<svg xmlns="http://www.w3.org/2000/svg" xmlns:xlink="http://www.w3.org/1999/xlink" width="800" height="447">
  <rect width="100%" height="100%" fill="#ffffff"/>
  <defs>
    <g id="x0a0"><radialGradient id="x0g0" cx=".5" cy=".5" fx=".33" fy=".33" r=".66"><stop offset="0%" stop-color="#6e84fa"/><stop offset="100%" stop-color="#2640c6"/></radialGradient><circle cx="0" cy="0" r="18.7" fill="url(#x0g0)" stroke="#000000" stroke-width="3.5"/></g>
    <g id="x0a1"><radialGradient id="x0g1" cx=".5" cy=".5" fx=".33" fy=".33" r=".66"><stop offset="0%" stop-color="#c3c3c3"/><stop offset="100%" stop-color="#888888"/></radialGradient><circle cx="0" cy="0" r="19.8" fill="url(#x0g1)" stroke="#000000" stroke-width="3.5"/></g>
    <g id="x0a3"><radialGradient id="x0g3" cx=".5" cy=".5" fx=".33" fy=".33" r=".66"><stop offset="0%" stop-color="#6e84fa"/><stop offset="100%" stop-color="#2640c6"/></radialGradient><circle cx="0" cy="0" r="18.7" fill="url(#x0g3)" stroke="#000000" stroke-width="3.5"/></g>
    <g id="x0a4"><radialGradient id="x0g4" cx=".5" cy=".5" fx=".33" fy=".33" r=".66"><stop offset="0%" stop-color="#c3c3c3"/><stop offset="100%" stop-color="#888888"/></radialGradient><circle cx="0" cy="0" r="19.8" fill="url(#x0g4)" stroke="#000000" stroke-width="3.5"/></g>
    <g id="x0a5"><radialGradient id="x0g5" cx=".5" cy=".5" fx=".33" fy=".33" r=".66"><stop offset="0%" stop-color="#c3c3c3"/><stop offset="100%" stop-color="#888888"/></radialGradient><circle cx="0" cy="0" r="19.8" fill="url(#x0g5)" stroke="#000000" stroke-width="3.5"/></g>
    <g id="x0a6"><radialGradient id="x0g6" cx=".5" cy=".5" fx=".33" fy=".33" r=".66"><stop offset="0%" stop-color="#c3c3c3"/><stop offset="100%" stop-color="#888888"/></radialGradient><circle cx="0" cy="0" r="19.8" fill="url(#x0g6)" stroke="#000000" stroke-width="3.5"/></g>
    <g id="x0a7"><radialGradient id="x0g7" cx=".5" cy=".5" fx=".33" fy=".33" r=".66"><stop offset="0%" stop-color="#6e84fa"/><stop offset="100%" stop-color="#2640c6"/></radialGradient><circle cx="0" cy="0" r="18.7" fill="url(#x0g7)" stroke="#000000" stroke-width="3.5"/></g>
    <g id="x0a8"><radialGradient id="x0g8" cx=".5" cy=".5" fx=".33" fy=".33" r=".66"><stop offset="0%" stop-color="#ffffff"/><stop offset="100%" stop-color="#cccccc"/></radialGradient><circle cx="0" cy="0" r="10.4" fill="url(#x0g8)" stroke="#000000" stroke-width="3.5"/></g>
    <g id="x0a9"><radialGradient id="x0g9" cx=".5" cy=".5" fx=".33" fy=".33" r=".66"><stop offset="0%" stop-color="#ffffff"/><stop offset="100%" stop-color="#cccccc"/></radialGradient><circle cx="0" cy="0" r="10.4" fill="url(#x0g9)" stroke="#000000" stroke-width="3.5"/></g>
    <g id="x0a10"><radialGradient id="x0g10" cx=".5" cy=".5" fx=".33" fy=".33" r=".66"><stop offset="0%" stop-color="#6e84fa"/><stop offset="100%" stop-color="#2640c6"/></radialGradient><circle cx="0" cy="0" r="18.7" fill="url(#x0g10)" stroke="#000000" stroke-width="3.5"/></g>
    <g id="x0a11"><radialGradient id="x0g11" cx=".5" cy=".5" fx=".33" fy=".33" r=".66"><stop offset="0%" stop-color="#c3c3c3"/><stop offset="100%" stop-color="#888888"/></radialGradient><circle cx="0" cy="0" r="19.8" fill="url(#x0g11)" stroke="#000000" stroke-width="3.5"/></g>
    <g id="x0a13"><radialGradient id="x0g13" cx=".5" cy=".5" fx=".33" fy=".33" r=".66"><stop offset="0%" stop-color="#6e84fa"/><stop offset="100%" stop-color="#2640c6"/></radialGradient><circle cx="0" cy="0" r="18.7" fill="url(#x0g13)" stroke="#000000" stroke-width="3.5"/></g>
    <g id="x0a14"><radialGradient id="x0g14" cx=".5" cy=".5" fx=".33" fy=".33" r=".66"><stop offset="0%" stop-color="#ffffff"/><stop offset="100%" stop-color="#cccccc"/></radialGradient><circle cx="0" cy="0" r="10.4" fill="url(#x0g14)" stroke="#000000" stroke-width="3.5"/></g>
    <g id="x0a15"><radialGradient id="x0g15" cx=".5" cy=".5" fx=".33" fy=".33" r=".66"><stop offset="0%" stop-color="#6e84fa"/><stop offset="100%" stop-color="#2640c6"/></radialGradient><circle cx="0" cy="0" r="18.7" fill="url(#x0g15)" stroke="#000000" stroke-width="3.5"/></g>
    <g id="x0a16"><radialGradient id="x0g16" cx=".5" cy=".5" fx=".33" fy=".33" r=".66"><stop offset="0%" stop-color="#ffffff"/><stop offset="100%" stop-color="#cccccc"/></radialGradient><circle cx="0" cy="0" r="10.4" fill="url(#x0g16)" stroke="#000000" stroke-width="3.5"/></g>
    <g id="x0a17"><radialGradient id="x0g17" cx=".5" cy=".5" fx=".33" fy=".33" r=".66"><stop offset="0%" stop-color="#c3c3c3"/><stop offset="100%" stop-color="#888888"/></radialGradient><circle cx="0" cy="0" r="19.8" fill="url(#x0g17)" stroke="#000000" stroke-width="3.5"/></g>
    <g id="x0a18"><radialGradient id="x0g18" cx=".5" cy=".5" fx=".33" fy=".33" r=".66"><stop offset="0%" stop-color="#ff5555"/><stop offset="100%" stop-color="#cc0a0a"/></radialGradient><circle cx="0" cy="0" r="17.8" fill="url(#x0g18)" stroke="#000000" stroke-width="3.5"/></g>
    <g id="x0a19"><radialGradient id="x0g19" cx=".5" cy=".5" fx=".33" fy=".33" r=".66"><stop offset="0%" stop-color="#6e84fa"/><stop offset="100%" stop-color="#2640c6"/></radialGradient><circle cx="0" cy="0" r="18.7" fill="url(#x0g19)" stroke="#000000" stroke-width="3.5"/></g>
    <g id="x0a20"><radialGradient id="x0g20" cx=".5" cy=".5" fx=".33" fy=".33" r=".66"><stop offset="0%" stop-color="#ffffff"/><stop offset="100%" stop-color="#cccccc"/></radialGradient><circle cx="0" cy="0" r="10.4" fill="url(#x0g20)" stroke="#000000" stroke-width="3.5"/></g>
    <g id="x0a21"><radialGradient id="x0g21" cx=".5" cy=".5" fx=".33" fy=".33" r=".66"><stop offset="0%" stop-color="#c3c3c3"/><stop offset="100%" stop-color="#888888"/></radialGradient><circle cx="0" cy="0" r="19.8" fill="url(#x0g21)" stroke="#000000" stroke-width="3.5"/></g>
    <g id="x0a23"><radialGradient id="x0g23" cx=".5" cy=".5" fx=".33" fy=".33" r=".66"><stop offset="0%" stop-color="#c3c3c3"/><stop offset="100%" stop-color="#888888"/></radialGradient><circle cx="0" cy="0" r="19.8" fill="url(#x0g23)" stroke="#000000" stroke-width="3.5"/></g>
    <g id="x0a24"><radialGradient id="x0g24" cx=".5" cy=".5" fx=".33" fy=".33" r=".66"><stop offset="0%" stop-color="#c3c3c3"/><stop offset="100%" stop-color="#888888"/></radialGradient><circle cx="0" cy="0" r="19.8" fill="url(#x0g24)" stroke="#000000" stroke-width="3.5"/></g>
    <g id="x0a28"><radialGradient id="x0g28" cx=".5" cy=".5" fx=".33" fy=".33" r=".66"><stop offset="0%" stop-color="#c3c3c3"/><stop offset="100%" stop-color="#888888"/></radialGradient><circle cx="0" cy="0" r="19.8" fill="url(#x0g28)" stroke="#000000" stroke-width="3.5"/></g>
    <g id="x0a29"><radialGradient id="x0g29" cx=".5" cy=".5" fx=".33" fy=".33" r=".66"><stop offset="0%" stop-color="#ff5555"/><stop offset="100%" stop-color="#cc0a0a"/></radialGradient><circle cx="0" cy="0" r="17.8" fill="url(#x0g29)" stroke="#000000" stroke-width="3.5"/></g>
  </defs>
  <path d="M 433.2 118.8 C 433.5 119.3 433.7 119.8 433.9 120.3 C 434.1 120.8 434.3 121.3 434.4 121.8 C 434.6 122.3 434.6 122.8 434.6 123.3 C 434.7 123.9 434.7 124.4 434.7 124.9 C 434.7 125.4 434.6 125.9 434.6 126.4 C 434.5 126.9 434.5 127.4 434.3 127.9 C 434.1 128.4 433.8 128.9 433.4 129.4 C 433.0 129.8 432.6 130.3 432.0 130.7 C 431.4 131.1 430.6 131.4 429.8 131.7 C 429.0 131.9 428.1 132.1 427.2 132.3 C 426.3 132.4 425.3 132.5 424.4 132.5 C 423.4 132.6 422.5 132.6 421.5 132.5 C 420.6 132.5 419.6 132.5 418.7 132.3 C 417.8 132.2 416.9 132.0 416.1 131.8 C 415.2 131.5 414.4 131.2 413.8 130.9 C 413.1 130.5 412.7 130.0 412.3 129.6 C 411.9 129.1 411.5 128.6 411.3 128.1 C 411.1 127.6 411.0 127.1 410.9 126.6 C 410.9 126.1 410.8 125.6 410.8 125.1 C 410.7 124.6 410.7 124.1 410.7 123.6 C 410.7 123.0 410.7 122.5 410.7 122.0 C 410.7 121.5 410.7 121.0 410.7 120.5 C 410.7 120.0 410.7 119.5 410.7 119.0 C 410.7 118.4 410.7 117.9 410.7 117.4 C 410.7 116.9 410.7 116.4 410.7 115.9 C 410.7 115.4 410.7 114.9 410.7 114.4 C 410.7 113.8 410.7 113.3 410.7 112.8 C 410.7 112.3 410.7 111.8 410.7 111.3 C 410.7 110.8 410.7 110.3 410.7 109.8 C 410.7 109.2 410.7 108.7 410.7 108.2 C 410.7 107.7 410.7 107.2 410.7 106.7 C 410.7 106.2 410.7 105.7 410.7 105.2 C 410.7 104.6 410.7 104.1 410.7 103.6 C 410.7 103.1 410.7 102.6 410.7 102.1 C 410.7 101.6 410.7 101.1 410.7 100.6 C 410.7 100.0 410.7 99.5 410.7 99.0 C 410.7 98.5 410.7 98.0 410.7 97.5 C 410.7 97.0 410.7 96.5 410.7 96.0 C 410.7 95.4 410.7 94.9 410.7 94.4 C 410.8 93.9 410.8 93.4 410.8 92.9 C 410.9 92.4 410.9 91.9 411.1 91.4 C 411.2 90.9 411.3 90.3 411.6 89.9 C 411.9 89.4 412.3 88.9 412.8 88.5 C 413.4 88.1 413.9 87.6 414.7 87.3 C 415.4 87.0 416.4 86.9 417.3 86.7 C 418.1 86.5 419.1 86.3 420.0 86.3 C 420.9 86.3 421.8 86.6 422.7 86.8 C 423.6 87.0 424.6 87.2 425.3 87.5 C 426.0 87.8 426.4 88.3 426.9 88.7 C 427.3 89.1 427.7 89.6 428.0 90.1 C 428.3 90.6 428.3 91.1 428.4 91.6 C 428.5 92.1 428.6 92.6 428.6 93.2 C 428.7 93.7 428.7 94.2 428.7 94.7 C 428.7 95.2 428.7 95.7 428.7 96.2 C 428.7 96.7 428.7 97.2 428.7 97.8 C 428.7 98.3 428.7 98.8 428.7 99.3 C 428.7 99.8 428.7 100.3 428.7 100.8 C 428.7 101.3 428.7 101.8 428.7 102.4 C 428.7 102.9 428.7 103.4 428.7 103.9 C 428.7 104.4 428.7 104.9 428.7 105.4 C 428.7 105.9 428.7 106.4 428.7 107.0 C 428.7 107.5 428.7 108.0 428.8 108.5 C 428.8 109.0 428.8 109.5 428.8 110.0 C 428.9 110.5 428.9 111.1 429.0 111.6 C 429.0 112.1 429.1 112.6 429.3 113.1 C 429.5 113.6 429.7 114.1 430.0 114.6 C 430.2 115.1 430.5 115.6 430.8 116.0 C 431.2 116.5 431.7 116.9 432.1 117.4 C 432.4 117.9 432.9 118.3 433.2 118.8 Z" fill="#35c42f" fill-rule="evenodd" stroke="none" opacity="1.000"/>
  <use x="670.0" y="324.0" xlink:href="#x0a24"/>
  <line x1="660.2" y1="309.1" x2="634.5" y2="269.7" stroke="#000000" stroke-width="8.7" stroke-linecap="round"/>
  <use x="96.3" y="165.0" xlink:href="#x0a14"/>
  <line x1="102.9" y1="171.7" x2="123.5" y2="192.8" stroke="#000000" stroke-width="8.7" stroke-linecap="round"/>
  <use x="135.3" y="204.8" xlink:href="#x0a13"/>
  <line x1="138.2" y1="222.1" x2="132.6" y2="262.9" stroke="#000000" stroke-width="6.1" stroke-linecap="round" stroke-dasharray="6.1,12.2"/>
  <line x1="127.8" y1="220.7" x2="122.2" y2="261.4" stroke="#000000" stroke-width="6.1" stroke-linecap="round"/>
  <line x1="151.1" y1="197.2" x2="191.5" y2="191.2" stroke="#000000" stroke-width="6.1" stroke-linecap="round"/>
  <line x1="152.6" y1="207.5" x2="193.0" y2="201.6" stroke="#000000" stroke-width="6.1" stroke-linecap="round" stroke-dasharray="6.1,12.2"/>
  <use x="496.5" y="71.7" xlink:href="#x0a18"/>
  <line x1="505.4" y1="85.0" x2="523.8" y2="112.5" stroke="#000000" stroke-width="8.7" stroke-linecap="round"/>
  <use x="124.9" y="279.8" xlink:href="#x0a11"/>
  <line x1="142.9" y1="284.7" x2="174.5" y2="304.0" stroke="#000000" stroke-width="6.1" stroke-linecap="round" stroke-dasharray="6.1,12.2"/>
  <line x1="137.4" y1="293.6" x2="169.1" y2="313.0" stroke="#000000" stroke-width="6.1" stroke-linecap="round"/>
  <use x="209.9" y="193.8" xlink:href="#x0a4"/>
  <line x1="214.5" y1="175.8" x2="234.7" y2="142.1" stroke="#000000" stroke-width="6.1" stroke-linecap="round"/>
  <line x1="223.5" y1="181.2" x2="243.7" y2="147.4" stroke="#000000" stroke-width="6.1" stroke-linecap="round" stroke-dasharray="6.1,12.2"/>
  <line x1="221.9" y1="208.0" x2="238.8" y2="246.5" stroke="#000000" stroke-width="6.1" stroke-linecap="round"/>
  <line x1="212.3" y1="212.3" x2="229.2" y2="250.8" stroke="#000000" stroke-width="6.1" stroke-linecap="round" stroke-dasharray="6.1,12.2"/>
  <use x="247.8" y="130.3" xlink:href="#x0a3"/>
  <line x1="265.2" y1="127.5" x2="302.9" y2="132.9" stroke="#000000" stroke-width="6.1" stroke-linecap="round"/>
  <line x1="263.7" y1="137.9" x2="301.4" y2="143.3" stroke="#000000" stroke-width="6.1" stroke-linecap="round" stroke-dasharray="6.1,12.2"/>
  <use x="633.0" y="73.4" xlink:href="#x0a20"/>
  <line x1="629.2" y1="82.0" x2="617.1" y2="109.1" stroke="#000000" stroke-width="8.7" stroke-linecap="round"/>
  <use x="186.1" y="317.3" xlink:href="#x0a10"/>
  <line x1="194.7" y1="301.9" x2="224.7" y2="273.5" stroke="#000000" stroke-width="6.1" stroke-linecap="round" stroke-dasharray="6.1,12.2"/>
  <line x1="201.9" y1="309.5" x2="231.9" y2="281.1" stroke="#000000" stroke-width="6.1" stroke-linecap="round"/>
  <use x="241.2" y="265.0" xlink:href="#x0a5"/>
  <line x1="259.3" y1="260.7" x2="301.7" y2="262.9" stroke="#000000" stroke-width="6.1" stroke-linecap="round" stroke-dasharray="6.1,12.2"/>
  <line x1="258.8" y1="271.2" x2="301.1" y2="273.4" stroke="#000000" stroke-width="6.1" stroke-linecap="round"/>
  <use x="446.0" y="200.8" xlink:href="#x0a16"/>
  <line x1="455.3" y1="200.3" x2="488.3" y2="198.3" stroke="#000000" stroke-width="8.7" stroke-linecap="round"/>
  <use x="319.9" y="140.6" xlink:href="#x0a1"/>
  <line x1="333.2" y1="153.6" x2="352.5" y2="187.4" stroke="#000000" stroke-width="6.1" stroke-linecap="round"/>
  <line x1="324.1" y1="158.7" x2="343.4" y2="192.6" stroke="#000000" stroke-width="6.1" stroke-linecap="round" stroke-dasharray="6.1,12.2"/>
  <use x="319.2" y="269.1" xlink:href="#x0a6"/>
  <line x1="323.6" y1="251.0" x2="343.3" y2="216.6" stroke="#000000" stroke-width="6.1" stroke-linecap="round" stroke-dasharray="6.1,12.2"/>
  <line x1="332.7" y1="256.3" x2="352.4" y2="221.8" stroke="#000000" stroke-width="6.1" stroke-linecap="round"/>
  <line x1="328.4" y1="284.5" x2="348.3" y2="318.0" stroke="#000000" stroke-width="8.7" stroke-linecap="round"/>
  <use x="356.2" y="204.6" xlink:href="#x0a0"/>
  <use x="533.7" y="127.3" xlink:href="#x0a17"/>
  <line x1="551.5" y1="126.7" x2="593.5" y2="125.1" stroke="#000000" stroke-width="8.7" stroke-linecap="round"/>
  <line x1="531.8" y1="145.8" x2="516.2" y2="183.8" stroke="#000000" stroke-width="6.1" stroke-linecap="round"/>
  <line x1="522.1" y1="141.9" x2="506.5" y2="179.8" stroke="#000000" stroke-width="6.1" stroke-linecap="round"/>
  <use x="512.1" y="322.0" xlink:href="#x0a29"/>
  <line x1="515.0" y1="305.4" x2="531.1" y2="275.6" stroke="#000000" stroke-width="6.1" stroke-linecap="round"/>
  <line x1="524.3" y1="310.4" x2="540.4" y2="280.6" stroke="#000000" stroke-width="6.1" stroke-linecap="round"/>
  <use x="610.3" y="124.5" xlink:href="#x0a19"/>
  <line x1="619.9" y1="138.2" x2="643.5" y2="171.6" stroke="#000000" stroke-width="8.7" stroke-linecap="round"/>
  <use x="505.0" y="197.3" xlink:href="#x0a15"/>
  <line x1="513.7" y1="211.7" x2="535.0" y2="247.1" stroke="#000000" stroke-width="8.7" stroke-linecap="round"/>
  <use x="356.9" y="332.4" xlink:href="#x0a7"/>
  <line x1="348.3" y1="346.9" x2="333.3" y2="372.1" stroke="#000000" stroke-width="8.7" stroke-linecap="round"/>
  <line x1="373.7" y1="332.4" x2="404.1" y2="332.3" stroke="#000000" stroke-width="8.7" stroke-linecap="round"/>
  <use x="328.5" y="380.2" xlink:href="#x0a8"/>
  <use x="413.5" y="332.2" xlink:href="#x0a9"/>
  <use x="544.2" y="262.4" xlink:href="#x0a28"/>
  <line x1="562.0" y1="260.7" x2="606.9" y2="256.5" stroke="#000000" stroke-width="8.7" stroke-linecap="round"/>
  <use x="653.8" y="186.2" xlink:href="#x0a21"/>
  <line x1="651.7" y1="204.7" x2="636.5" y2="240.4" stroke="#000000" stroke-width="6.1" stroke-linecap="round"/>
  <line x1="642.0" y1="200.6" x2="626.9" y2="236.3" stroke="#000000" stroke-width="6.1" stroke-linecap="round"/>
  <use x="624.7" y="254.8" xlink:href="#x0a23"/>
  <path d="M 416.1 186.6 C 416.5 187.1 416.8 187.6 417.0 188.1 C 417.2 188.6 417.3 189.1 417.3 189.6 C 417.4 190.1 417.5 190.6 417.5 191.1 C 417.6 191.6 417.6 192.1 417.6 192.6 C 417.6 193.1 417.6 193.6 417.6 194.1 C 417.6 194.6 417.6 195.1 417.6 195.6 C 417.6 196.1 417.6 196.7 417.6 197.2 C 417.6 197.7 417.6 198.2 417.6 198.7 C 417.6 199.2 417.6 199.7 417.6 200.2 C 417.6 200.7 417.6 201.2 417.6 201.7 C 417.6 202.2 417.6 202.7 417.6 203.2 C 417.6 203.7 417.6 204.2 417.6 204.7 C 417.6 205.2 417.6 205.7 417.6 206.3 C 417.6 206.8 417.6 207.3 417.6 207.8 C 417.6 208.3 417.6 208.8 417.6 209.3 C 417.6 209.8 417.6 210.3 417.6 210.8 C 417.6 211.3 417.6 211.8 417.6 212.3 C 417.5 212.8 417.5 213.3 417.5 213.8 C 417.4 214.3 417.4 214.8 417.3 215.3 C 417.1 215.8 417.0 216.4 416.8 216.8 C 416.5 217.3 416.1 217.8 415.6 218.2 C 415.1 218.6 414.6 219.1 413.9 219.4 C 413.2 219.7 412.2 219.9 411.4 220.1 C 410.5 220.3 409.6 220.5 408.7 220.5 C 407.8 220.6 406.9 220.3 406.0 220.1 C 405.1 220.0 404.2 219.8 403.4 219.5 C 402.7 219.2 402.1 218.8 401.6 218.4 C 401.1 218.0 400.7 217.5 400.4 217.0 C 400.1 216.5 400.0 216.0 399.8 215.5 C 399.7 215.0 399.7 214.5 399.6 214.0 C 399.6 213.5 399.5 213.0 399.5 212.5 C 399.5 212.0 399.5 211.5 399.5 211.0 C 399.5 210.5 399.5 210.0 399.5 209.5 C 399.5 209.0 399.5 208.5 399.5 208.0 C 399.5 207.4 399.5 206.9 399.5 206.4 C 399.5 205.9 399.5 205.4 399.5 204.9 C 399.5 204.4 399.5 203.9 399.5 203.4 C 399.5 202.9 399.5 202.4 399.5 201.9 C 399.5 201.4 399.5 200.9 399.5 200.4 C 399.5 199.9 399.5 199.4 399.5 198.9 C 399.5 198.4 399.5 197.8 399.5 197.3 C 399.5 196.8 399.5 196.3 399.5 195.8 C 399.5 195.3 399.5 194.8 399.5 194.3 C 399.5 193.8 399.5 193.3 399.5 192.8 C 399.5 192.3 399.5 191.8 399.5 191.3 C 399.6 190.8 399.6 190.3 399.7 189.8 C 399.8 189.3 399.8 188.7 400.0 188.3 C 400.2 187.8 400.4 187.3 400.8 186.8 C 401.2 186.4 401.6 185.9 402.2 185.5 C 402.8 185.1 403.6 184.8 404.4 184.6 C 405.2 184.3 406.1 184.1 407.0 184.0 C 407.9 183.9 408.8 183.9 409.7 184.0 C 410.6 184.1 411.5 184.3 412.4 184.5 C 413.2 184.7 414.1 185.0 414.7 185.3 C 415.3 185.7 415.7 186.2 416.1 186.6 Z" fill="#1b296a" fill-rule="evenodd" stroke="none" opacity="1.000"/>
  <path d="M 444.5 267.5 C 444.9 268.0 445.0 268.5 445.3 269.0 C 445.5 269.5 445.8 270.0 445.9 270.5 C 446.0 271.0 446.0 271.5 446.1 272.0 C 446.1 272.5 446.2 273.0 446.2 273.5 C 446.2 274.1 446.1 274.6 446.1 275.1 C 446.0 275.6 446.0 276.1 445.8 276.6 C 445.7 277.1 445.4 277.6 445.1 278.1 C 444.7 278.6 444.3 279.1 443.7 279.4 C 443.2 279.8 442.4 280.2 441.7 280.5 C 440.9 280.7 439.9 280.9 439.0 281.1 C 438.1 281.2 437.2 281.3 436.2 281.2 C 435.3 281.2 434.4 280.9 433.5 280.7 C 432.6 280.5 431.7 280.4 431.0 280.1 C 430.2 279.8 429.7 279.3 429.2 278.9 C 428.6 278.4 428.1 278.0 427.6 277.6 C 427.1 277.1 426.6 276.7 426.2 276.3 C 425.7 275.8 425.2 275.4 424.7 274.9 C 424.2 274.5 423.8 274.0 423.4 273.6 C 422.9 273.1 422.6 272.6 422.2 272.2 C 421.8 271.7 421.4 271.2 421.0 270.8 C 420.6 270.3 420.1 269.8 419.7 269.4 C 419.3 268.9 418.8 268.5 418.4 268.0 C 418.1 267.5 417.9 267.0 417.7 266.5 C 417.5 266.0 417.3 265.5 417.2 265.0 C 417.2 264.5 417.3 264.0 417.6 263.5 C 417.8 263.0 418.3 262.5 418.8 262.1 C 419.3 261.7 419.9 261.3 420.6 261.0 C 421.3 260.7 422.3 260.4 423.1 260.3 C 424.0 260.1 424.9 259.9 425.9 259.8 C 426.8 259.7 427.8 259.8 428.7 259.8 C 429.7 259.8 430.7 259.8 431.6 259.9 C 432.5 260.0 433.4 260.2 434.3 260.4 C 435.2 260.6 436.1 260.8 436.9 261.0 C 437.6 261.3 438.2 261.8 438.8 262.2 C 439.4 262.6 440.0 263.0 440.5 263.4 C 441.0 263.9 441.4 264.3 441.9 264.8 C 442.4 265.2 442.8 265.7 443.3 266.1 C 443.7 266.6 444.2 267.0 444.5 267.5 Z" fill="#40a528" fill-rule="evenodd" stroke="none" opacity="1.000"/>
  <path d="M 287.2 208.5 C 287.8 208.9 288.7 209.3 289.0 209.8 C 289.3 210.2 289.0 210.8 288.9 211.3 C 288.9 211.8 289.0 212.4 288.6 212.8 C 288.2 213.3 287.4 213.6 286.6 214.0 C 285.9 214.3 285.2 214.7 284.3 214.9 C 283.5 215.1 282.6 215.2 281.6 215.3 C 280.7 215.3 279.6 215.4 278.7 215.3 C 277.8 215.2 277.0 215.0 276.1 214.8 C 275.3 214.6 274.4 214.3 273.6 214.0 C 272.8 213.7 271.9 213.4 271.4 213.0 C 270.8 212.7 270.5 212.1 270.2 211.6 C 269.9 211.2 269.3 210.7 269.3 210.2 C 269.3 209.7 269.6 209.2 269.9 208.7 C 270.2 208.2 270.8 207.8 271.3 207.4 C 271.8 206.9 272.4 206.5 272.9 206.1 C 273.4 205.7 273.9 205.2 274.5 204.8 C 275.0 204.4 275.7 203.9 276.3 203.6 C 276.9 203.2 277.4 202.7 278.0 202.7 C 278.6 202.8 279.2 203.6 279.9 203.9 C 280.6 204.3 281.5 204.6 282.1 204.9 C 282.7 205.3 283.2 205.7 283.7 206.1 C 284.3 206.5 284.7 207.0 285.3 207.4 C 285.9 207.8 286.6 208.1 287.2 208.5 Z" fill="#771605" fill-rule="evenodd" stroke="none" opacity="1.000"/>
  <path d="M 582.9 190.8 C 583.5 191.2 584.0 191.6 584.3 192.1 C 584.6 192.5 584.7 193.1 584.6 193.6 C 584.6 194.1 584.5 194.6 584.1 195.1 C 583.7 195.5 583.0 195.9 582.4 196.3 C 581.8 196.7 581.0 197.0 580.5 197.5 C 580.0 197.9 579.9 198.4 579.7 198.9 C 579.4 199.4 579.3 199.9 579.0 200.4 C 578.7 200.9 578.2 201.4 577.7 201.8 C 577.2 202.2 576.5 202.6 575.9 203.0 C 575.2 203.4 574.6 203.9 573.8 204.1 C 573.1 204.3 572.2 204.2 571.3 204.2 C 570.4 204.1 569.3 204.1 568.5 203.9 C 567.6 203.7 567.0 203.4 566.3 203.0 C 565.6 202.7 565.0 202.3 564.3 201.9 C 563.7 201.5 562.9 201.1 562.6 200.7 C 562.3 200.2 562.5 199.7 562.5 199.1 C 562.5 198.6 562.2 198.1 562.5 197.6 C 562.7 197.1 563.5 196.7 563.9 196.3 C 564.4 195.8 564.9 195.3 565.2 194.8 C 565.4 194.4 565.5 193.8 565.7 193.3 C 565.8 192.8 565.8 192.3 566.0 191.8 C 566.2 191.3 566.5 190.8 566.9 190.3 C 567.3 189.9 567.7 189.4 568.4 189.1 C 569.0 188.7 570.0 188.5 570.9 188.3 C 571.7 188.0 572.6 187.5 573.4 187.5 C 574.2 187.6 574.7 188.3 575.6 188.5 C 576.4 188.8 577.5 188.8 578.3 189.0 C 579.2 189.2 580.0 189.5 580.7 189.8 C 581.5 190.1 582.3 190.4 582.9 190.8 Z" fill="#712409" fill-rule="evenodd" stroke="none" opacity="1.000"/>
  <path d="M 461.6 316.2 C 461.9 316.7 462.1 317.2 462.3 317.7 C 462.5 318.2 462.7 318.7 462.9 319.2 C 463.0 319.7 463.0 320.2 463.1 320.7 C 463.1 321.2 463.2 321.7 463.2 322.2 C 463.2 322.7 463.2 323.2 463.2 323.7 C 463.2 324.2 463.2 324.7 463.2 325.2 C 463.2 325.7 463.2 326.2 463.2 326.8 C 463.2 327.3 463.2 327.8 463.2 328.3 C 463.2 328.8 463.2 329.3 463.2 329.8 C 463.2 330.3 463.2 330.8 463.2 331.3 C 463.2 331.8 463.2 332.3 463.2 332.8 C 463.2 333.3 463.2 333.8 463.2 334.3 C 463.2 334.9 463.2 335.4 463.2 335.9 C 463.2 336.4 463.2 336.9 463.2 337.4 C 463.2 337.9 463.1 338.4 463.1 338.9 C 463.0 339.4 463.0 339.9 462.8 340.4 C 462.7 340.9 462.6 341.4 462.3 341.9 C 462.0 342.4 461.5 342.8 461.0 343.3 C 460.5 343.7 459.9 344.1 459.2 344.4 C 458.5 344.7 457.5 344.9 456.7 345.0 C 455.8 345.2 454.8 345.4 453.9 345.4 C 453.0 345.4 452.1 345.1 451.2 344.9 C 450.4 344.8 449.4 344.6 448.7 344.3 C 448.0 344.0 447.5 343.5 447.0 343.1 C 446.5 342.7 446.1 342.2 445.7 341.7 C 445.4 341.3 445.1 340.8 444.8 340.3 C 444.5 339.8 444.3 339.3 444.0 338.9 C 443.7 338.4 443.3 337.9 443.0 337.4 C 442.6 337.0 442.1 336.5 441.7 336.1 C 441.3 335.6 440.9 335.1 440.6 334.7 C 440.3 334.2 440.2 333.7 440.0 333.2 C 439.8 332.7 439.5 332.2 439.4 331.7 C 439.3 331.2 439.3 330.7 439.3 330.2 C 439.2 329.7 439.2 329.2 439.1 328.7 C 439.1 328.2 439.1 327.7 439.1 327.1 C 439.1 326.6 439.1 326.1 439.1 325.6 C 439.1 325.1 439.1 324.6 439.1 324.1 C 439.1 323.6 439.1 323.1 439.1 322.6 C 439.1 322.1 439.1 321.6 439.1 321.1 C 439.1 320.6 439.1 320.1 439.1 319.6 C 439.1 319.0 439.1 318.5 439.1 318.0 C 439.1 317.5 439.1 317.0 439.2 316.5 C 439.2 316.0 439.2 315.5 439.3 315.0 C 439.4 314.5 439.4 314.0 439.5 313.5 C 439.7 313.0 439.9 312.5 440.2 312.0 C 440.6 311.6 441.0 311.1 441.5 310.7 C 442.1 310.3 442.7 309.9 443.5 309.6 C 444.3 309.4 445.2 309.2 446.1 309.0 C 447.0 308.9 447.9 308.7 448.8 308.8 C 449.7 308.8 450.6 309.0 451.5 309.2 C 452.4 309.4 453.4 309.5 454.1 309.8 C 454.9 310.1 455.4 310.5 456.0 310.9 C 456.6 311.3 457.1 311.8 457.6 312.2 C 458.1 312.6 458.6 313.1 459.0 313.5 C 459.5 313.9 460.0 314.4 460.4 314.8 C 460.8 315.3 461.3 315.7 461.6 316.2 Z" fill="#236256" fill-rule="evenodd" stroke="none" opacity="1.000"/>
</svg>