<svg xmlns="http://www.w3.org/2000/svg" xmlns:xlink="http://www.w3.org/1999/xlink" viewBox="0 0 800 642" width="800" height="642">
  <rect width="100%" height="100%" fill="#ffffff"/>
  <defs>
    <g id="x0a0"><radialGradient id="x0g0" cx=".5" cy=".5" fx=".33" fy=".33" r=".66"><stop offset="0%" stop-color="#c9c9c9"/><stop offset="100%" stop-color="#959595"/></radialGradient><circle cx="0" cy="0" r="32.6" fill="url(#x0g0)" stroke="#292929" stroke-width="5.7"/></g>
    <g id="x0a1"><radialGradient id="x0g1" cx=".5" cy=".5" fx=".33" fy=".33" r=".66"><stop offset="0%" stop-color="#cccccc"/><stop offset="100%" stop-color="#9a9a9a"/></radialGradient><circle cx="0" cy="0" r="32.6" fill="url(#x0g1)" stroke="#393939" stroke-width="5.7"/></g>
    <g id="x0a2"><radialGradient id="x0g2" cx=".5" cy=".5" fx=".33" fy=".33" r=".66"><stop offset="0%" stop-color="#c5c5c5"/><stop offset="100%" stop-color="#8c8c8c"/></radialGradient><circle cx="0" cy="0" r="32.6" fill="url(#x0g2)" stroke="#0f0f0f" stroke-width="5.7"/></g>
    <g id="x0a3"><radialGradient id="x0g3" cx=".5" cy=".5" fx=".33" fy=".33" r=".66"><stop offset="0%" stop-color="#c3c3c3"/><stop offset="100%" stop-color="#888888"/></radialGradient><circle cx="0" cy="0" r="32.6" fill="url(#x0g3)" stroke="#000000" stroke-width="5.7"/></g>
    <g id="x0a4"><radialGradient id="x0g4" cx=".5" cy=".5" fx=".33" fy=".33" r=".66"><stop offset="0%" stop-color="#c4c4c4"/><stop offset="100%" stop-color="#8a8a8a"/></radialGradient><circle cx="0" cy="0" r="32.6" fill="url(#x0g4)" stroke="#080808" stroke-width="5.7"/></g>
    <g id="x0a5"><radialGradient id="x0g5" cx=".5" cy=".5" fx=".33" fy=".33" r=".66"><stop offset="0%" stop-color="#c8c8c8"/><stop offset="100%" stop-color="#929292"/></radialGradient><circle cx="0" cy="0" r="32.6" fill="url(#x0g5)" stroke="#212121" stroke-width="5.7"/></g>
    <g id="x0a6"><radialGradient id="x0g6" cx=".5" cy=".5" fx=".33" fy=".33" r=".66"><stop offset="0%" stop-color="#d0d0d0"/><stop offset="100%" stop-color="#a2a2a2"/></radialGradient><circle cx="0" cy="0" r="32.6" fill="url(#x0g6)" stroke="#525252" stroke-width="5.7"/></g>
    <g id="x0a7"><radialGradient id="x0g7" cx=".5" cy=".5" fx=".33" fy=".33" r=".66"><stop offset="0%" stop-color="#d7d7d7"/><stop offset="100%" stop-color="#b0b0b0"/></radialGradient><circle cx="0" cy="0" r="32.6" fill="url(#x0g7)" stroke="#7c7c7c" stroke-width="5.7"/></g>
    <g id="x0a8"><radialGradient id="x0g8" cx=".5" cy=".5" fx=".33" fy=".33" r=".66"><stop offset="0%" stop-color="#7489fa"/><stop offset="100%" stop-color="#2f48c8"/></radialGradient><circle cx="0" cy="0" r="30.7" fill="url(#x0g8)" stroke="#0f0f0f" stroke-width="5.7"/></g>
    <g id="x0a9"><radialGradient id="x0g9" cx=".5" cy=".5" fx=".33" fy=".33" r=".66"><stop offset="0%" stop-color="#7b8ffa"/><stop offset="100%" stop-color="#3951cb"/></radialGradient><circle cx="0" cy="0" r="30.7" fill="url(#x0g9)" stroke="#202020" stroke-width="5.7"/></g>
    <g id="x0a10"><radialGradient id="x0g10" cx=".5" cy=".5" fx=".33" fy=".33" r=".66"><stop offset="0%" stop-color="#6f84fa"/><stop offset="100%" stop-color="#2741c6"/></radialGradient><circle cx="0" cy="0" r="30.7" fill="url(#x0g10)" stroke="#020202" stroke-width="5.7"/></g>
    <g id="x0a11"><radialGradient id="x0g11" cx=".5" cy=".5" fx=".33" fy=".33" r=".66"><stop offset="0%" stop-color="#8e9ffb"/><stop offset="100%" stop-color="#566ad2"/></radialGradient><circle cx="0" cy="0" r="30.7" fill="url(#x0g11)" stroke="#515151" stroke-width="5.7"/></g>
    <g id="x0a12"><radialGradient id="x0g12" cx=".5" cy=".5" fx=".33" fy=".33" r=".66"><stop offset="0%" stop-color="#ff6060"/><stop offset="100%" stop-color="#cf1919"/></radialGradient><circle cx="0" cy="0" r="29.2" fill="url(#x0g12)" stroke="#171717" stroke-width="5.7"/></g>
    <g id="x0a13"><radialGradient id="x0g13" cx=".5" cy=".5" fx=".33" fy=".33" r=".66"><stop offset="0%" stop-color="#ff9090"/><stop offset="100%" stop-color="#dd6060"/></radialGradient><circle cx="0" cy="0" r="29.2" fill="url(#x0g13)" stroke="#808080" stroke-width="5.7"/></g>
  </defs>
  <defs>
    <radialGradient id="x0mo_pos_front" cx=".5" cy=".5" fx=".33" fy=".33" r=".66"><stop offset="0%" stop-color="#74a1c6"/><stop offset="100%" stop-color="#2a4e6c"/></radialGradient>
    <radialGradient id="x0mo_neg_front" cx=".5" cy=".5" fx=".33" fy=".33" r=".66"><stop offset="0%" stop-color="#9f3f3f"/><stop offset="100%" stop-color="#4c0000"/></radialGradient>
  </defs>
  <g opacity="0.70">
    <path d="M 424.5 123.0 C 426.1 126.6 425.9 130.9 426.5 134.9 C 427.0 138.9 428.4 143.0 427.8 146.9 C 427.3 150.8 425.2 154.6 423.2 158.2 C 421.3 161.8 419.0 165.5 416.0 168.5 C 413.1 171.4 409.3 173.9 405.4 176.1 C 401.6 178.2 397.4 180.3 393.1 181.4 C 388.8 182.4 384.2 182.3 379.7 182.3 C 375.1 182.3 370.3 182.2 365.9 181.3 C 361.6 180.4 357.3 178.8 353.6 176.7 C 349.8 174.6 346.5 171.6 343.3 168.7 C 340.1 165.9 337.1 162.7 334.4 159.5 C 331.6 156.3 328.3 153.1 326.8 149.4 C 325.3 145.8 325.6 141.6 325.2 137.6 C 324.9 133.6 323.8 129.3 324.6 125.5 C 325.4 121.7 327.9 118.1 330.2 114.7 C 332.4 111.2 335.4 108.0 338.3 104.9 C 341.2 101.8 344.2 98.7 347.6 96.1 C 351.0 93.4 354.7 90.4 358.8 89.2 C 362.9 87.9 367.7 88.7 372.2 88.9 C 376.7 89.0 381.7 88.8 385.9 89.9 C 390.2 91.0 394.2 93.2 397.9 95.5 C 401.5 97.9 404.7 100.9 407.9 103.8 C 411.0 106.7 414.1 109.8 416.9 113.0 C 419.6 116.2 422.9 119.3 424.5 123.0 Z" fill="#74a1c6" fill-rule="evenodd" stroke="none"/>
  </g>
  <g opacity="0.70">
    <path d="M 451.7 417.2 C 452.7 421.0 453.5 425.1 453.6 429.0 C 453.8 432.9 453.7 436.8 452.7 440.6 C 451.7 444.4 449.6 448.1 447.6 451.6 C 445.6 455.1 443.4 458.6 440.7 461.8 C 438.1 464.9 434.9 467.8 431.6 470.5 C 428.3 473.1 424.7 475.7 420.9 477.7 C 417.0 479.6 412.7 480.9 408.5 482.2 C 404.2 483.4 399.8 484.4 395.4 485.2 C 391.0 486.0 386.6 486.5 382.1 486.8 C 377.6 487.0 373.1 486.9 368.5 486.9 C 364.0 486.9 359.5 487.0 355.0 486.8 C 350.5 486.6 345.5 486.8 341.6 485.6 C 337.7 484.4 333.6 482.7 331.7 479.7 C 329.9 476.8 330.8 471.9 330.4 467.9 C 330.0 464.0 329.8 460.0 329.4 456.1 C 329.1 452.1 328.8 448.2 328.3 444.2 C 327.9 440.3 327.5 436.3 326.6 432.5 C 325.7 428.6 324.2 424.8 323.0 421.0 C 321.7 417.2 320.8 413.3 319.0 409.7 C 317.2 406.1 314.5 402.8 312.3 399.4 C 310.0 395.9 307.7 392.5 305.5 389.1 C 303.2 385.7 300.8 382.3 298.8 378.8 C 296.8 375.2 295.0 371.6 293.4 367.9 C 291.9 364.2 290.6 360.4 289.5 356.5 C 288.4 352.7 287.4 348.8 286.7 344.9 C 285.9 341.0 285.4 337.1 285.1 333.2 C 284.8 329.2 284.8 325.2 284.9 321.3 C 285.0 317.3 285.1 313.3 285.9 309.5 C 286.6 305.6 288.0 301.8 289.5 298.1 C 291.1 294.4 292.8 290.6 295.2 287.3 C 297.6 284.0 300.7 281.0 303.9 278.3 C 307.1 275.6 310.7 273.2 314.4 270.9 C 318.1 268.6 321.9 266.4 326.0 264.7 C 330.0 263.1 334.3 261.9 338.7 261.0 C 343.0 260.1 347.6 259.7 352.1 259.5 C 356.5 259.2 361.0 259.1 365.4 259.5 C 369.8 260.0 374.3 261.2 378.6 262.4 C 382.8 263.6 387.2 264.7 391.1 266.5 C 395.0 268.4 398.6 271.0 402.0 273.6 C 405.4 276.1 408.8 278.9 411.6 281.9 C 414.4 285.0 417.0 288.3 419.0 291.8 C 421.1 295.3 422.5 299.1 423.8 302.9 C 425.2 306.7 426.5 310.5 427.3 314.4 C 428.1 318.3 428.2 322.3 428.6 326.2 C 429.0 330.1 429.5 334.1 429.7 338.0 C 429.9 342.0 429.7 346.0 429.8 349.9 C 429.9 353.9 429.6 357.9 430.1 361.8 C 430.5 365.7 431.5 369.6 432.3 373.5 C 433.1 377.4 433.4 381.4 434.8 385.2 C 436.3 388.9 438.7 392.3 440.8 395.8 C 442.9 399.2 445.7 402.5 447.6 406.1 C 449.4 409.6 450.7 413.4 451.7 417.2 Z" fill="#9f3f3f" fill-rule="evenodd" stroke="none"/>
  </g>
  <g opacity="0.70">
    <path d="M 777.9 328.1 C 778.7 332.0 780.3 335.9 780.0 339.7 C 779.7 343.5 777.5 347.3 776.0 351.0 C 774.5 354.8 773.3 358.7 771.1 362.1 C 769.0 365.6 766.2 368.7 763.2 371.7 C 760.3 374.6 757.0 377.4 753.4 379.8 C 749.9 382.2 746.1 384.6 741.9 386.0 C 737.8 387.4 733.1 387.4 728.6 388.1 C 724.2 388.8 719.5 390.5 715.3 389.9 C 711.1 389.4 707.3 386.6 703.3 384.7 C 699.4 382.9 695.3 381.1 691.5 379.0 C 687.8 376.8 684.1 374.4 680.9 371.7 C 677.7 368.9 674.7 365.9 672.3 362.5 C 670.0 359.2 668.4 355.4 666.8 351.8 C 665.1 348.1 662.8 344.4 662.2 340.6 C 661.6 336.8 662.8 332.8 663.3 329.0 C 663.9 325.1 664.5 321.1 665.7 317.3 C 666.8 313.5 668.4 309.7 670.5 306.3 C 672.5 302.8 675.1 299.4 677.9 296.4 C 680.8 293.4 684.0 290.4 687.6 288.2 C 691.3 285.9 695.6 284.4 699.7 282.9 C 703.8 281.3 708.1 279.2 712.4 278.7 C 716.7 278.3 721.1 279.5 725.5 280.3 C 729.9 281.0 734.4 281.8 738.6 283.2 C 742.7 284.7 746.6 286.7 750.2 289.0 C 753.9 291.3 757.2 294.1 760.3 296.9 C 763.3 299.8 766.1 303.0 768.6 306.2 C 771.1 309.5 773.7 312.8 775.2 316.5 C 776.8 320.1 777.2 324.2 777.9 328.1 Z" fill="#9f3f3f" fill-rule="evenodd" stroke="none"/>
  </g>
  <g opacity="0.70">
    <path d="M 614.8 426.2 C 616.0 430.0 617.1 433.8 617.4 437.7 C 617.8 441.7 617.3 445.7 616.9 449.7 C 616.6 453.6 616.4 457.6 615.5 461.4 C 614.5 465.3 612.9 469.0 611.3 472.7 C 609.6 476.4 607.9 480.1 605.7 483.6 C 603.6 487.1 601.1 490.4 598.3 493.6 C 595.6 496.7 592.4 499.6 589.1 502.3 C 585.8 505.0 582.3 507.6 578.5 509.7 C 574.8 511.9 570.6 513.6 566.5 515.2 C 562.3 516.8 558.2 518.5 553.8 519.4 C 549.5 520.3 544.9 520.3 540.4 520.5 C 535.9 520.8 531.3 521.3 526.8 521.0 C 522.3 520.7 517.9 519.8 513.6 518.7 C 509.2 517.7 504.9 516.5 500.8 514.8 C 496.7 513.2 492.7 511.2 489.0 508.9 C 485.4 506.6 482.0 503.9 478.9 501.1 C 475.8 498.2 473.0 495.0 470.5 491.7 C 467.9 488.5 465.2 485.1 463.6 481.5 C 462.1 477.8 461.8 473.7 461.1 469.8 C 460.3 465.9 458.8 461.9 459.0 458.0 C 459.3 454.1 461.4 450.3 462.4 446.5 C 463.5 442.6 464.3 438.7 465.6 434.9 C 466.8 431.1 468.5 427.4 469.9 423.6 C 471.2 419.8 472.2 415.9 473.6 412.1 C 475.1 408.4 476.5 404.6 478.6 401.1 C 480.7 397.6 483.3 394.2 486.2 391.2 C 489.1 388.2 492.5 385.4 496.2 383.2 C 499.9 381.0 504.2 379.5 508.3 377.9 C 512.4 376.3 516.7 374.5 521.0 373.7 C 525.4 373.0 529.9 373.2 534.4 373.2 C 538.9 373.1 543.6 373.0 548.0 373.6 C 552.4 374.1 556.8 375.2 561.0 376.5 C 565.3 377.8 569.4 379.5 573.4 381.3 C 577.4 383.2 581.3 385.3 584.9 387.6 C 588.6 389.9 592.2 392.4 595.3 395.3 C 598.4 398.1 601.3 401.3 603.8 404.6 C 606.2 407.8 608.4 411.4 610.2 415.0 C 612.1 418.6 613.6 422.4 614.8 426.2 Z" fill="#74a1c6" fill-rule="evenodd" stroke="none"/>
  </g>
  <g opacity="0.70">
    <path d="M 261.4 432.0 C 261.6 435.9 261.1 439.9 260.7 443.9 C 260.3 447.9 260.2 451.9 259.2 455.8 C 258.2 459.6 256.5 463.3 254.7 467.0 C 252.9 470.6 250.5 474.0 248.3 477.6 C 246.2 481.1 244.2 484.7 241.7 488.0 C 239.3 491.4 236.7 494.8 233.6 497.6 C 230.4 500.4 226.9 503.0 222.9 504.7 C 218.9 506.4 214.1 507.0 209.7 507.8 C 205.3 508.7 200.9 510.3 196.5 509.9 C 192.2 509.6 188.0 507.3 183.8 505.7 C 179.7 504.1 175.1 502.8 171.6 500.4 C 168.0 498.1 165.1 494.8 162.4 491.6 C 159.7 488.5 157.6 484.9 155.4 481.4 C 153.3 477.9 151.3 474.3 149.5 470.6 C 147.7 466.9 145.5 463.3 144.7 459.4 C 143.9 455.6 144.6 451.5 144.8 447.5 C 145.0 443.6 144.8 439.5 145.8 435.6 C 146.8 431.8 149.0 428.2 150.7 424.5 C 152.4 420.8 154.7 417.3 156.2 413.6 C 157.8 409.8 158.8 406.0 159.9 402.1 C 161.0 398.2 162.2 394.3 162.8 390.4 C 163.5 386.5 163.8 382.5 163.9 378.6 C 164.0 374.6 163.6 370.6 163.6 366.6 C 163.6 362.6 163.6 358.6 163.7 354.6 C 163.7 350.6 163.6 346.6 164.1 342.7 C 164.5 338.7 165.1 334.7 166.4 330.9 C 167.7 327.2 169.9 323.5 172.2 320.1 C 174.5 316.7 177.1 313.3 180.3 310.6 C 183.5 307.9 187.5 305.5 191.5 303.9 C 195.5 302.3 200.0 301.6 204.4 301.1 C 208.8 300.6 213.6 300.6 218.0 300.9 C 222.5 301.3 227.0 301.8 231.1 303.3 C 235.1 304.7 238.8 307.4 242.4 309.9 C 245.9 312.3 249.2 315.1 252.4 317.9 C 255.6 320.8 259.0 323.6 261.5 326.8 C 264.0 330.1 266.2 333.8 267.4 337.5 C 268.7 341.3 268.5 345.4 268.8 349.4 C 269.0 353.3 269.5 357.4 269.1 361.3 C 268.7 365.3 267.3 369.1 266.3 373.0 C 265.2 376.9 263.5 380.6 262.6 384.5 C 261.7 388.4 261.2 392.4 260.6 396.3 C 260.0 400.3 259.0 404.2 258.9 408.2 C 258.8 412.2 259.5 416.1 260.0 420.1 C 260.4 424.0 261.3 428.0 261.4 432.0 Z" fill="#74a1c6" fill-rule="evenodd" stroke="none"/>
  </g>
  <use x="388.0" y="108.3" xlink:href="#x0a13"/>
  <line x1="406.0" y1="126.2" x2="427.6" y2="171.7" stroke="#3a3a3a" stroke-width="10.0" stroke-linecap="round"/>
  <line x1="390.5" y1="133.6" x2="412.0" y2="179.1" stroke="#3a3a3a" stroke-width="10.0" stroke-linecap="round"/>
  <use x="641.0" y="118.3" xlink:href="#x0a7"/>
  <line x1="623.7" y1="139.8" x2="577.4" y2="196.9" stroke="#393939" stroke-width="14.4" stroke-linecap="round"/>
  <use x="431.2" y="199.5" xlink:href="#x0a6"/>
  <line x1="460.2" y1="203.4" x2="533.7" y2="213.4" stroke="#2e2e2e" stroke-width="14.4" stroke-linecap="round"/>
  <line x1="416.1" y1="221.4" x2="378.4" y2="276.3" stroke="#212121" stroke-width="14.4" stroke-linecap="round"/>
  <use x="561.1" y="217.1" xlink:href="#x0a11"/>
  <line x1="572.9" y1="237.6" x2="604.7" y2="292.9" stroke="#1e1e1e" stroke-width="14.4" stroke-linecap="round"/>
  <use x="140.9" y="233.7" xlink:href="#x0a1"/>
  <line x1="162.1" y1="252.0" x2="217.2" y2="299.4" stroke="#181818" stroke-width="14.4" stroke-linecap="round"/>
  <use x="363.3" y="298.2" xlink:href="#x0a0"/>
  <line x1="335.8" y1="311.0" x2="265.5" y2="321.2" stroke="#141414" stroke-width="10.0" stroke-linecap="round" stroke-dasharray="10.0,20.1"/>
  <line x1="333.3" y1="293.9" x2="263.0" y2="304.1" stroke="#141414" stroke-width="10.0" stroke-linecap="round"/>
  <line x1="383.6" y1="317.5" x2="413.5" y2="372.4" stroke="#0e0e0e" stroke-width="10.0" stroke-linecap="round"/>
  <line x1="368.5" y1="325.8" x2="398.4" y2="380.7" stroke="#0e0e0e" stroke-width="10.0" stroke-linecap="round" stroke-dasharray="10.0,20.1"/>
  <use x="617.2" y="314.7" xlink:href="#x0a5"/>
  <line x1="646.0" y1="305.8" x2="700.8" y2="305.1" stroke="#0f0f0f" stroke-width="10.0" stroke-linecap="round"/>
  <line x1="646.2" y1="323.0" x2="701.0" y2="322.4" stroke="#0f0f0f" stroke-width="10.0" stroke-linecap="round"/>
  <line x1="601.3" y1="337.8" x2="560.9" y2="396.4" stroke="#0d0d0d" stroke-width="14.4" stroke-linecap="round"/>
  <use x="237.2" y="316.6" xlink:href="#x0a9"/>
  <line x1="241.9" y1="341.8" x2="232.6" y2="401.9" stroke="#0a0a0a" stroke-width="10.0" stroke-linecap="round" stroke-dasharray="10.0,20.1"/>
  <line x1="224.9" y1="339.2" x2="215.6" y2="399.3" stroke="#0a0a0a" stroke-width="10.0" stroke-linecap="round"/>
  <use x="726.8" y="313.5" xlink:href="#x0a12"/>
  <use x="545.9" y="418.2" xlink:href="#x0a8"/>
  <line x1="518.6" y1="414.3" x2="447.7" y2="404.1" stroke="#080808" stroke-width="14.4" stroke-linecap="round"/>
  <line x1="557.2" y1="437.0" x2="588.7" y2="489.6" stroke="#020202" stroke-width="14.4" stroke-linecap="round"/>
  <use x="418.7" y="400.0" xlink:href="#x0a2"/>
  <line x1="403.8" y1="424.4" x2="354.9" y2="467.1" stroke="#040404" stroke-width="10.0" stroke-linecap="round"/>
  <line x1="392.5" y1="411.4" x2="343.6" y2="454.1" stroke="#040404" stroke-width="10.0" stroke-linecap="round" stroke-dasharray="10.0,20.1"/>
  <use x="220.1" y="426.0" xlink:href="#x0a4"/>
  <line x1="249.8" y1="430.4" x2="309.0" y2="458.2" stroke="#020202" stroke-width="10.0" stroke-linecap="round" stroke-dasharray="10.0,20.1"/>
  <line x1="242.5" y1="446.0" x2="301.7" y2="473.8" stroke="#020202" stroke-width="10.0" stroke-linecap="round"/>
  <use x="329.9" y="477.5" xlink:href="#x0a10"/>
  <use x="600.7" y="509.5" xlink:href="#x0a3"/>
  <g opacity="0.70">
    <path d="M 424.5 86.7 C 426.7 90.2 428.9 94.0 429.7 97.9 C 430.6 101.8 429.9 105.9 429.7 109.9 C 429.5 114.0 429.8 118.3 428.5 122.1 C 427.3 125.9 424.9 129.4 422.3 132.7 C 419.7 136.0 416.3 138.9 413.0 141.7 C 409.7 144.6 406.2 147.3 402.6 149.8 C 398.9 152.2 395.3 155.2 391.1 156.5 C 386.9 157.7 382.2 157.2 377.6 157.2 C 373.0 157.2 368.1 157.6 363.8 156.5 C 359.4 155.5 355.4 153.4 351.7 151.1 C 348.0 148.8 344.7 145.8 341.5 142.8 C 338.4 139.8 335.4 136.7 332.8 133.4 C 330.3 130.0 327.2 126.6 326.2 122.9 C 325.2 119.1 326.4 114.7 326.7 110.7 C 327.0 106.7 326.6 102.5 328.1 98.8 C 329.5 95.1 332.8 91.8 335.5 88.5 C 338.1 85.2 340.9 81.9 343.9 78.9 C 347.0 75.9 350.3 72.7 354.0 70.5 C 357.7 68.3 361.9 66.6 366.3 65.5 C 370.6 64.3 375.4 63.7 380.0 63.5 C 384.5 63.3 389.1 63.1 393.4 64.0 C 397.8 64.9 402.1 67.0 406.0 69.1 C 409.9 71.2 413.8 73.6 416.9 76.5 C 420.0 79.5 422.4 83.1 424.5 86.7 Z" fill="url(#x0mo_neg_front)" fill-rule="evenodd" stroke="none"/>
  </g>
  <g opacity="0.70">
    <path d="M 451.7 359.3 C 452.8 363.1 453.4 367.1 453.9 371.0 C 454.5 375.0 455.0 379.0 455.0 382.9 C 454.9 386.9 454.6 390.9 453.7 394.8 C 452.9 398.6 451.6 402.5 450.0 406.2 C 448.4 409.9 446.6 413.7 444.2 417.0 C 441.9 420.3 438.8 423.4 435.7 426.3 C 432.6 429.2 429.3 432.0 425.7 434.3 C 422.0 436.7 418.2 438.9 414.0 440.2 C 409.8 441.5 405.0 441.7 400.5 442.2 C 396.1 442.7 391.5 443.8 387.1 443.3 C 382.7 442.8 378.5 440.7 374.3 439.2 C 370.2 437.7 365.7 436.4 362.0 434.2 C 358.2 432.1 354.9 429.2 351.8 426.4 C 348.6 423.5 345.5 420.5 343.1 417.2 C 340.7 413.9 338.9 410.2 337.1 406.5 C 335.4 402.8 334.1 399.0 332.6 395.2 C 331.1 391.5 329.7 387.7 328.3 383.9 C 326.8 380.1 325.5 376.3 324.0 372.6 C 322.4 368.8 321.0 365.0 319.0 361.5 C 316.9 358.0 314.0 354.9 311.6 351.5 C 309.1 348.1 306.7 344.7 304.5 341.3 C 302.3 337.8 300.1 334.3 298.2 330.7 C 296.4 327.1 294.6 323.3 293.3 319.6 C 292.0 315.8 291.1 311.9 290.4 307.9 C 289.6 304.0 289.1 300.0 288.8 296.1 C 288.4 292.1 288.4 288.1 288.5 284.2 C 288.7 280.2 289.1 276.2 289.8 272.3 C 290.4 268.3 291.1 264.4 292.4 260.6 C 293.7 256.8 295.5 253.1 297.6 249.6 C 299.7 246.1 302.1 242.6 304.9 239.5 C 307.7 236.4 310.8 233.5 314.1 230.8 C 317.4 228.1 320.9 225.4 324.7 223.2 C 328.4 221.1 332.6 219.3 336.8 218.0 C 341.0 216.6 345.6 215.9 350.0 215.2 C 354.5 214.5 358.9 213.6 363.4 213.8 C 367.8 214.1 372.2 215.6 376.6 216.7 C 380.9 217.8 385.5 218.6 389.5 220.4 C 393.5 222.1 397.0 224.8 400.5 227.3 C 404.0 229.9 407.3 232.6 410.4 235.5 C 413.4 238.5 416.2 241.6 418.8 244.9 C 421.3 248.2 423.5 251.7 425.5 255.3 C 427.6 258.8 429.3 262.5 430.9 266.3 C 432.4 270.0 433.4 273.9 434.6 277.8 C 435.7 281.6 437.1 285.5 437.6 289.4 C 438.2 293.3 437.8 297.3 437.8 301.3 C 437.8 305.3 437.4 309.3 437.7 313.3 C 438.1 317.2 439.1 321.1 439.9 325.0 C 440.8 328.9 441.7 332.8 442.9 336.7 C 444.2 340.5 446.0 344.2 447.4 347.9 C 448.9 351.7 450.6 355.4 451.7 359.3 Z" fill="url(#x0mo_pos_front)" fill-rule="evenodd" stroke="none"/>
  </g>
  <g opacity="0.70">
    <path d="M 759.8 308.6 C 760.5 312.4 760.7 316.3 760.4 320.2 C 760.1 324.1 759.1 328.1 757.9 331.9 C 756.8 335.7 755.6 339.6 753.4 342.9 C 751.3 346.3 748.1 349.3 744.9 352.1 C 741.8 354.8 738.1 357.2 734.6 359.6 C 731.0 362.0 727.3 364.5 723.4 366.3 C 719.5 368.1 715.3 369.6 711.0 370.4 C 706.6 371.2 701.9 371.0 697.5 371.1 C 693.0 371.1 688.4 371.5 684.2 370.6 C 679.9 369.7 675.8 367.6 671.9 365.6 C 668.0 363.7 664.0 361.6 660.8 358.9 C 657.6 356.2 654.9 352.9 652.5 349.6 C 650.2 346.2 648.0 342.6 646.8 338.8 C 645.7 335.1 646.1 331.0 645.8 327.0 C 645.4 323.1 644.3 319.0 644.8 315.2 C 645.3 311.3 647.1 307.5 648.6 303.8 C 650.0 300.1 651.3 296.2 653.4 292.7 C 655.4 289.2 658.1 286.0 661.0 282.9 C 663.8 279.9 667.0 277.0 670.4 274.4 C 673.8 271.8 677.4 269.2 681.2 267.4 C 685.1 265.5 689.2 264.2 693.5 263.3 C 697.8 262.4 702.6 262.0 707.0 262.1 C 711.3 262.2 715.7 262.7 719.7 264.0 C 723.8 265.4 727.5 268.0 731.2 270.3 C 734.9 272.5 738.6 274.8 741.9 277.5 C 745.2 280.2 748.5 283.1 750.9 286.3 C 753.3 289.6 754.8 293.4 756.3 297.1 C 757.8 300.8 759.1 304.7 759.8 308.6 Z" fill="url(#x0mo_pos_front)" fill-rule="evenodd" stroke="none"/>
  </g>
  <g opacity="0.70">
    <path d="M 596.7 366.5 C 598.2 370.3 599.8 374.1 600.9 378.0 C 602.0 381.8 603.0 385.7 603.2 389.7 C 603.5 393.7 602.8 397.7 602.5 401.7 C 602.2 405.7 602.0 409.7 601.3 413.7 C 600.7 417.7 599.7 421.6 598.7 425.5 C 597.6 429.4 596.6 433.4 595.0 437.1 C 593.4 440.8 591.4 444.5 589.0 447.9 C 586.5 451.2 583.6 454.4 580.4 457.2 C 577.2 460.1 573.5 462.6 569.7 464.8 C 565.9 466.9 561.8 469.0 557.5 470.2 C 553.3 471.5 548.7 472.1 544.2 472.5 C 539.7 472.9 535.0 473.2 530.5 472.8 C 526.1 472.5 521.6 471.9 517.4 470.5 C 513.2 469.2 509.2 466.9 505.3 464.8 C 501.4 462.7 497.6 460.4 494.0 458.0 C 490.3 455.7 486.4 453.4 483.3 450.6 C 480.1 447.7 477.3 444.4 475.2 440.9 C 473.2 437.4 472.1 433.4 470.7 429.6 C 469.3 425.7 467.7 421.9 467.0 418.0 C 466.3 414.1 465.9 410.1 466.4 406.2 C 466.9 402.3 468.8 398.4 470.0 394.6 C 471.2 390.7 472.1 386.7 473.6 383.0 C 475.0 379.2 476.8 375.5 479.0 371.9 C 481.1 368.4 483.6 364.9 486.3 361.7 C 489.0 358.5 492.1 355.5 495.4 352.7 C 498.7 350.0 502.4 347.6 506.1 345.2 C 509.7 342.8 513.6 340.6 517.4 338.5 C 521.3 336.3 525.1 334.2 529.2 332.4 C 533.2 330.6 537.5 329.0 541.7 327.6 C 545.9 326.1 550.0 323.9 554.2 324.0 C 558.4 324.1 563.0 326.4 567.1 328.0 C 571.2 329.7 575.7 331.4 578.9 334.1 C 582.0 336.8 583.9 340.8 586.1 344.3 C 588.3 347.8 590.1 351.5 591.9 355.2 C 593.7 358.9 595.2 362.7 596.7 366.5 Z" fill="url(#x0mo_neg_front)" fill-rule="evenodd" stroke="none"/>
  </g>
  <g opacity="0.70">
    <path d="M 261.4 397.3 C 261.9 401.2 262.9 405.1 263.0 409.1 C 263.1 413.0 262.5 416.9 261.9 420.8 C 261.3 424.7 261.0 428.7 259.7 432.4 C 258.3 436.1 256.3 439.7 253.8 442.9 C 251.3 446.1 248.0 448.9 244.8 451.7 C 241.6 454.4 238.3 457.2 234.7 459.5 C 231.1 461.7 227.2 463.8 223.0 465.1 C 218.9 466.3 214.2 466.5 209.8 467.0 C 205.4 467.5 200.8 468.7 196.6 468.0 C 192.3 467.4 188.3 465.0 184.3 463.2 C 180.4 461.3 176.3 459.5 172.9 457.0 C 169.5 454.6 166.5 451.5 163.9 448.3 C 161.3 445.2 159.1 441.7 157.1 438.2 C 155.1 434.7 153.7 430.9 152.2 427.2 C 150.6 423.6 148.7 419.9 147.8 416.1 C 146.9 412.3 146.7 408.4 146.9 404.5 C 147.0 400.6 147.7 396.6 148.6 392.8 C 149.5 389.0 150.8 385.2 152.3 381.6 C 153.9 377.9 156.1 374.4 157.8 370.8 C 159.4 367.1 161.2 363.5 162.1 359.7 C 163.1 355.9 163.1 351.9 163.5 348.0 C 163.8 344.1 164.2 340.1 164.4 336.2 C 164.5 332.3 164.3 328.3 164.4 324.4 C 164.5 320.5 164.2 316.5 164.9 312.7 C 165.6 308.8 167.1 305.0 168.5 301.3 C 169.9 297.6 171.2 293.7 173.4 290.3 C 175.5 286.9 178.4 283.8 181.4 280.9 C 184.4 278.1 187.8 275.3 191.4 273.1 C 195.0 270.8 198.9 269.0 203.0 267.6 C 207.2 266.3 211.8 265.5 216.1 264.9 C 220.5 264.3 224.9 263.6 229.2 264.0 C 233.6 264.5 237.9 266.1 242.0 267.6 C 246.1 269.0 250.5 270.5 253.9 272.8 C 257.4 275.2 260.4 278.4 262.8 281.7 C 265.1 285.0 266.5 288.8 267.8 292.6 C 269.0 296.3 269.6 300.3 270.2 304.2 C 270.9 308.0 271.5 312.0 271.4 315.9 C 271.4 319.8 270.4 323.7 269.8 327.6 C 269.2 331.5 268.7 335.4 267.9 339.3 C 267.0 343.1 265.9 346.9 264.7 350.7 C 263.6 354.5 261.6 358.2 260.9 362.1 C 260.2 365.9 260.5 369.9 260.3 373.8 C 260.2 377.7 259.8 381.7 260.0 385.6 C 260.2 389.5 260.9 393.4 261.4 397.3 Z" fill="url(#x0mo_neg_front)" fill-rule="evenodd" stroke="none"/>
  </g>
</svg>