<svg xmlns="http://www.w3.org/2000/svg" xmlns:xlink="http://www.w3.org/1999/xlink" width="800" height="729">
  <rect width="100%" height="100%" fill="#ffffff"/>
  <defs>
    <g id="x0a0"><radialGradient id="x0g0" cx=".5" cy=".5" fx=".33" fy=".33" r=".66"><stop offset="0%" stop-color="#e4e4e4"/><stop offset="100%" stop-color="#979797"/></radialGradient><circle cx="0" cy="0" r="33.4" fill="url(#x0g0)" stroke="#020202" stroke-width="2.2"/></g>
    <g id="x0a1"><radialGradient id="x0g1" cx=".5" cy=".5" fx=".33" fy=".33" r=".66"><stop offset="0%" stop-color="#e4e4e4"/><stop offset="100%" stop-color="#979797"/></radialGradient><circle cx="0" cy="0" r="33.4" fill="url(#x0g1)" stroke="#000000" stroke-width="2.2"/></g>
    <g id="x0a2"><radialGradient id="x0g2" cx=".5" cy=".5" fx=".33" fy=".33" r=".66"><stop offset="0%" stop-color="#e4e4e4"/><stop offset="100%" stop-color="#989898"/></radialGradient><circle cx="0" cy="0" r="33.4" fill="url(#x0g2)" stroke="#040404" stroke-width="2.2"/></g>
    <g id="x0a3"><radialGradient id="x0g3" cx=".5" cy=".5" fx=".33" fy=".33" r=".66"><stop offset="0%" stop-color="#e4e4e4"/><stop offset="100%" stop-color="#979797"/></radialGradient><circle cx="0" cy="0" r="33.4" fill="url(#x0g3)" stroke="#000000" stroke-width="2.2"/></g>
    <g id="x0a4"><radialGradient id="x0g4" cx=".5" cy=".5" fx=".33" fy=".33" r=".66"><stop offset="0%" stop-color="#e4e4e4"/><stop offset="100%" stop-color="#979797"/></radialGradient><circle cx="0" cy="0" r="33.4" fill="url(#x0g4)" stroke="#020202" stroke-width="2.2"/></g>
    <g id="x0a5"><radialGradient id="x0g5" cx=".5" cy=".5" fx=".33" fy=".33" r=".66"><stop offset="0%" stop-color="#e4e4e4"/><stop offset="100%" stop-color="#979797"/></radialGradient><circle cx="0" cy="0" r="33.4" fill="url(#x0g5)" stroke="#010101" stroke-width="2.2"/></g>
    <g id="x0a6"><radialGradient id="x0g6" cx=".5" cy=".5" fx=".33" fy=".33" r=".66"><stop offset="0%" stop-color="#e4e4e4"/><stop offset="100%" stop-color="#979797"/></radialGradient><circle cx="0" cy="0" r="33.4" fill="url(#x0g6)" stroke="#020202" stroke-width="2.2"/></g>
    <g id="x0a7"><radialGradient id="x0g7" cx=".5" cy=".5" fx=".33" fy=".33" r=".66"><stop offset="0%" stop-color="#e4e4e4"/><stop offset="100%" stop-color="#979797"/></radialGradient><circle cx="0" cy="0" r="33.4" fill="url(#x0g7)" stroke="#010101" stroke-width="2.2"/></g>
    <g id="x0a8"><radialGradient id="x0g8" cx=".5" cy=".5" fx=".33" fy=".33" r=".66"><stop offset="0%" stop-color="#a7a7d3"/><stop offset="100%" stop-color="#5c5c88"/></radialGradient><circle cx="0" cy="0" r="31.5" fill="url(#x0g8)" stroke="#0a0a0a" stroke-width="2.2"/></g>
    <g id="x0a9"><radialGradient id="x0g9" cx=".5" cy=".5" fx=".33" fy=".33" r=".66"><stop offset="0%" stop-color="#a5a5d2"/><stop offset="100%" stop-color="#585885"/></radialGradient><circle cx="0" cy="0" r="31.5" fill="url(#x0g9)" stroke="#010101" stroke-width="2.2"/></g>
    <g id="x0a10"><radialGradient id="x0g10" cx=".5" cy=".5" fx=".33" fy=".33" r=".66"><stop offset="0%" stop-color="#a6a6d2"/><stop offset="100%" stop-color="#595986"/></radialGradient><circle cx="0" cy="0" r="31.5" fill="url(#x0g10)" stroke="#040404" stroke-width="2.2"/></g>
    <g id="x0a11"><radialGradient id="x0g11" cx=".5" cy=".5" fx=".33" fy=".33" r=".66"><stop offset="0%" stop-color="#a6a6d2"/><stop offset="100%" stop-color="#5a5a86"/></radialGradient><circle cx="0" cy="0" r="31.5" fill="url(#x0g11)" stroke="#050505" stroke-width="2.2"/></g>
    <g id="x0a12"><radialGradient id="x0g12" cx=".5" cy=".5" fx=".33" fy=".33" r=".66"><stop offset="0%" stop-color="#ff5555"/><stop offset="100%" stop-color="#b20909"/></radialGradient><circle cx="0" cy="0" r="30.0" fill="url(#x0g12)" stroke="#000000" stroke-width="2.2"/></g>
    <g id="x0a13"><radialGradient id="x0g13" cx=".5" cy=".5" fx=".33" fy=".33" r=".66"><stop offset="0%" stop-color="#ff5555"/><stop offset="100%" stop-color="#b20909"/></radialGradient><circle cx="0" cy="0" r="30.0" fill="url(#x0g13)" stroke="#000000" stroke-width="2.2"/></g>
  </defs>
  <use x="560.2" y="478.6" xlink:href="#x0a8"/>
  <line x1="532.1" y1="475.3" x2="459.3" y2="466.8" stroke="#030303" stroke-width="14.7" stroke-linecap="round"/>
  <line x1="575.6" y1="455.2" x2="617.0" y2="392.2" stroke="#020202" stroke-width="14.7" stroke-linecap="round"/>
  <line x1="571.7" y1="503.9" x2="604.1" y2="575.0" stroke="#020202" stroke-width="14.7" stroke-linecap="round"/>
  <use x="575.7" y="245.6" xlink:href="#x0a11"/>
  <line x1="547.7" y1="242.2" x2="472.2" y2="233.0" stroke="#010101" stroke-width="14.7" stroke-linecap="round"/>
  <line x1="587.8" y1="271.2" x2="620.5" y2="340.2" stroke="#010101" stroke-width="14.7" stroke-linecap="round"/>
  <line x1="592.6" y1="222.9" x2="640.0" y2="158.8" stroke="#010101" stroke-width="14.7" stroke-linecap="round"/>
  <use x="429.5" y="463.3" xlink:href="#x0a2"/>
  <line x1="408.4" y1="484.7" x2="358.2" y2="535.7" stroke="#020202" stroke-width="14.7" stroke-linecap="round"/>
  <line x1="416.4" y1="436.2" x2="385.7" y2="372.8" stroke="#010101" stroke-width="14.7" stroke-linecap="round"/>
  <use x="338.3" y="555.8" xlink:href="#x0a10"/>
  <line x1="313.1" y1="542.9" x2="252.3" y2="511.7" stroke="#010101" stroke-width="14.7" stroke-linecap="round"/>
  <use x="372.6" y="345.7" xlink:href="#x0a0"/>
  <line x1="388.1" y1="319.9" x2="426.9" y2="255.1" stroke="#010101" stroke-width="14.7" stroke-linecap="round"/>
  <line x1="343.0" y1="351.1" x2="270.9" y2="364.4" stroke="#010101" stroke-width="14.7" stroke-linecap="round"/>
  <use x="225.5" y="497.9" xlink:href="#x0a4"/>
  <line x1="229.6" y1="468.1" x2="239.2" y2="397.6" stroke="#010101" stroke-width="14.7" stroke-linecap="round"/>
  <use x="442.3" y="229.3" xlink:href="#x0a6"/>
  <line x1="430.6" y1="201.6" x2="408.5" y2="149.2" stroke="#000000" stroke-width="14.7" stroke-linecap="round"/>
  <use x="243.0" y="369.5" xlink:href="#x0a9"/>
  <line x1="222.5" y1="350.0" x2="166.0" y2="296.4" stroke="#000000" stroke-width="14.7" stroke-linecap="round"/>
  <use x="633.4" y="367.3" xlink:href="#x0a5"/>
  <line x1="663.0" y1="369.6" x2="719.3" y2="373.9" stroke="#000000" stroke-width="14.7" stroke-linecap="round"/>
  <use x="657.9" y="134.7" xlink:href="#x0a7"/>
  <use x="398.0" y="124.3" xlink:href="#x0a13"/>
  <use x="616.4" y="601.9" xlink:href="#x0a3"/>
  <use x="144.2" y="275.7" xlink:href="#x0a1"/>
  <use x="745.9" y="376.0" xlink:href="#x0a12"/>
</svg>