<svg xmlns="http://www.w3.org/2000/svg" xmlns:xlink="http://www.w3.org/1999/xlink" width="800" height="629">
  <rect width="100%" height="100%" fill="#ffffff"/>
  <defs>
    <g id="x0a0"><radialGradient id="x0g0" cx=".5" cy=".5" fx=".33" fy=".33" r=".66"><stop offset="0%" stop-color="#c9c9c9"/><stop offset="100%" stop-color="#959595"/></radialGradient><circle cx="0" cy="0" r="31.9" fill="url(#x0g0)" stroke="#292929" stroke-width="5.6"/></g>
    <g id="x0a1"><radialGradient id="x0g1" cx=".5" cy=".5" fx=".33" fy=".33" r=".66"><stop offset="0%" stop-color="#cccccc"/><stop offset="100%" stop-color="#9a9a9a"/></radialGradient><circle cx="0" cy="0" r="31.9" fill="url(#x0g1)" stroke="#393939" stroke-width="5.6"/></g>
    <g id="x0a2"><radialGradient id="x0g2" cx=".5" cy=".5" fx=".33" fy=".33" r=".66"><stop offset="0%" stop-color="#c5c5c5"/><stop offset="100%" stop-color="#8c8c8c"/></radialGradient><circle cx="0" cy="0" r="31.9" fill="url(#x0g2)" stroke="#0f0f0f" stroke-width="5.6"/></g>
    <g id="x0a3"><radialGradient id="x0g3" cx=".5" cy=".5" fx=".33" fy=".33" r=".66"><stop offset="0%" stop-color="#c3c3c3"/><stop offset="100%" stop-color="#888888"/></radialGradient><circle cx="0" cy="0" r="31.9" fill="url(#x0g3)" stroke="#000000" stroke-width="5.6"/></g>
    <g id="x0a4"><radialGradient id="x0g4" cx=".5" cy=".5" fx=".33" fy=".33" r=".66"><stop offset="0%" stop-color="#c4c4c4"/><stop offset="100%" stop-color="#8a8a8a"/></radialGradient><circle cx="0" cy="0" r="31.9" fill="url(#x0g4)" stroke="#080808" stroke-width="5.6"/></g>
    <g id="x0a5"><radialGradient id="x0g5" cx=".5" cy=".5" fx=".33" fy=".33" r=".66"><stop offset="0%" stop-color="#c8c8c8"/><stop offset="100%" stop-color="#929292"/></radialGradient><circle cx="0" cy="0" r="31.9" fill="url(#x0g5)" stroke="#212121" stroke-width="5.6"/></g>
    <g id="x0a6"><radialGradient id="x0g6" cx=".5" cy=".5" fx=".33" fy=".33" r=".66"><stop offset="0%" stop-color="#d0d0d0"/><stop offset="100%" stop-color="#a2a2a2"/></radialGradient><circle cx="0" cy="0" r="31.9" fill="url(#x0g6)" stroke="#525252" stroke-width="5.6"/></g>
    <g id="x0a7"><radialGradient id="x0g7" cx=".5" cy=".5" fx=".33" fy=".33" r=".66"><stop offset="0%" stop-color="#d7d7d7"/><stop offset="100%" stop-color="#b0b0b0"/></radialGradient><circle cx="0" cy="0" r="31.9" fill="url(#x0g7)" stroke="#7c7c7c" stroke-width="5.6"/></g>
    <g id="x0a8"><radialGradient id="x0g8" cx=".5" cy=".5" fx=".33" fy=".33" r=".66"><stop offset="0%" stop-color="#7489fa"/><stop offset="100%" stop-color="#2f48c8"/></radialGradient><circle cx="0" cy="0" r="30.0" fill="url(#x0g8)" stroke="#0f0f0f" stroke-width="5.6"/></g>
    <g id="x0a9"><radialGradient id="x0g9" cx=".5" cy=".5" fx=".33" fy=".33" r=".66"><stop offset="0%" stop-color="#7b8ffa"/><stop offset="100%" stop-color="#3951cb"/></radialGradient><circle cx="0" cy="0" r="30.0" fill="url(#x0g9)" stroke="#202020" stroke-width="5.6"/></g>
    <g id="x0a10"><radialGradient id="x0g10" cx=".5" cy=".5" fx=".33" fy=".33" r=".66"><stop offset="0%" stop-color="#6f84fa"/><stop offset="100%" stop-color="#2741c6"/></radialGradient><circle cx="0" cy="0" r="30.0" fill="url(#x0g10)" stroke="#020202" stroke-width="5.6"/></g>
    <g id="x0a11"><radialGradient id="x0g11" cx=".5" cy=".5" fx=".33" fy=".33" r=".66"><stop offset="0%" stop-color="#8e9ffb"/><stop offset="100%" stop-color="#566ad2"/></radialGradient><circle cx="0" cy="0" r="30.0" fill="url(#x0g11)" stroke="#515151" stroke-width="5.6"/></g>
    <g id="x0a12"><radialGradient id="x0g12" cx=".5" cy=".5" fx=".33" fy=".33" r=".66"><stop offset="0%" stop-color="#ff6060"/><stop offset="100%" stop-color="#cf1919"/></radialGradient><circle cx="0" cy="0" r="28.6" fill="url(#x0g12)" stroke="#171717" stroke-width="5.6"/></g>
    <g id="x0a13"><radialGradient id="x0g13" cx=".5" cy=".5" fx=".33" fy=".33" r=".66"><stop offset="0%" stop-color="#ff9090"/><stop offset="100%" stop-color="#dd6060"/></radialGradient><circle cx="0" cy="0" r="28.6" fill="url(#x0g13)" stroke="#808080" stroke-width="5.6"/></g>
    <g id="x0a14"><radialGradient id="x0g14" cx=".5" cy=".5" fx=".33" fy=".33" r=".66"><stop offset="0%" stop-color="#ffffff"/><stop offset="100%" stop-color="#e0e0e0"/></radialGradient><circle cx="0" cy="0" r="16.8" fill="url(#x0g14)" stroke="#909090" stroke-width="5.6"/></g>
    <g id="x0a15"><radialGradient id="x0g15" cx=".5" cy=".5" fx=".33" fy=".33" r=".66"><stop offset="0%" stop-color="#ffffff"/><stop offset="100%" stop-color="#cfcfcf"/></radialGradient><circle cx="0" cy="0" r="16.8" fill="url(#x0g15)" stroke="#161616" stroke-width="5.6"/></g>
    <g id="x0a16"><radialGradient id="x0g16" cx=".5" cy=".5" fx=".33" fy=".33" r=".66"><stop offset="0%" stop-color="#ffffff"/><stop offset="100%" stop-color="#cccccc"/></radialGradient><circle cx="0" cy="0" r="16.8" fill="url(#x0g16)" stroke="#030303" stroke-width="5.6"/></g>
    <g id="x0a17"><radialGradient id="x0g17" cx=".5" cy=".5" fx=".33" fy=".33" r=".66"><stop offset="0%" stop-color="#ffffff"/><stop offset="100%" stop-color="#cccccc"/></radialGradient><circle cx="0" cy="0" r="16.8" fill="url(#x0g17)" stroke="#000000" stroke-width="5.6"/></g>
    <g id="x0a18"><radialGradient id="x0g18" cx=".5" cy=".5" fx=".33" fy=".33" r=".66"><stop offset="0%" stop-color="#ffffff"/><stop offset="100%" stop-color="#d3d3d3"/></radialGradient><circle cx="0" cy="0" r="16.8" fill="url(#x0g18)" stroke="#383838" stroke-width="5.6"/></g>
    <g id="x0a19"><radialGradient id="x0g19" cx=".5" cy=".5" fx=".33" fy=".33" r=".66"><stop offset="0%" stop-color="#ffffff"/><stop offset="100%" stop-color="#cccccc"/></radialGradient><circle cx="0" cy="0" r="16.8" fill="url(#x0g19)" stroke="#000000" stroke-width="5.6"/></g>
    <g id="x0a20"><radialGradient id="x0g20" cx=".5" cy=".5" fx=".33" fy=".33" r=".66"><stop offset="0%" stop-color="#ffffff"/><stop offset="100%" stop-color="#cccccc"/></radialGradient><circle cx="0" cy="0" r="16.8" fill="url(#x0g20)" stroke="#020202" stroke-width="5.6"/></g>
    <g id="x0a21"><radialGradient id="x0g21" cx=".5" cy=".5" fx=".33" fy=".33" r=".66"><stop offset="0%" stop-color="#ffffff"/><stop offset="100%" stop-color="#e2e2e2"/></radialGradient><circle cx="0" cy="0" r="16.8" fill="url(#x0g21)" stroke="#a3a3a3" stroke-width="5.6"/></g>
    <g id="x0a22"><radialGradient id="x0g22" cx=".5" cy=".5" fx=".33" fy=".33" r=".66"><stop offset="0%" stop-color="#ffffff"/><stop offset="100%" stop-color="#eaeaea"/></radialGradient><circle cx="0" cy="0" r="16.8" fill="url(#x0g22)" stroke="#b2b2b2" stroke-width="5.6"/></g>
    <g id="x0a23"><radialGradient id="x0g23" cx=".5" cy=".5" fx=".33" fy=".33" r=".66"><stop offset="0%" stop-color="#ffffff"/><stop offset="100%" stop-color="#d4d4d4"/></radialGradient><circle cx="0" cy="0" r="16.8" fill="url(#x0g23)" stroke="#3b3b3b" stroke-width="5.6"/></g>
  </defs>
  <defs>
    <radialGradient id="x0mo_pos_front" cx=".5" cy=".5" fx=".33" fy=".33" r=".66"><stop offset="0%" stop-color="#74a1c6"/><stop offset="100%" stop-color="#2a4e6c"/></radialGradient>
    <radialGradient id="x0mo_neg_front" cx=".5" cy=".5" fx=".33" fy=".33" r=".66"><stop offset="0%" stop-color="#9f3f3f"/><stop offset="100%" stop-color="#4c0000"/></radialGradient>
  </defs>
  <g opacity="0.70">
    <path d="M 433.9 131.5 C 434.8 135.4 436.8 139.2 436.7 143.0 C 436.7 146.9 435.0 150.6 433.8 154.4 C 432.6 158.1 431.4 162.0 429.7 165.6 C 428.1 169.3 426.3 173.0 424.0 176.3 C 421.7 179.7 419.0 182.9 415.9 185.7 C 412.8 188.5 409.2 191.0 405.4 193.1 C 401.6 195.1 397.4 196.7 393.3 198.2 C 389.2 199.7 385.0 201.7 380.6 202.2 C 376.3 202.7 371.7 201.6 367.2 201.3 C 362.7 200.9 358.0 201.4 353.8 200.2 C 349.6 199.1 345.9 196.4 342.2 194.3 C 338.4 192.2 334.8 189.8 331.3 187.4 C 327.8 184.9 324.3 182.4 321.3 179.5 C 318.3 176.6 315.6 173.3 313.4 170.0 C 311.1 166.6 309.4 162.9 307.7 159.3 C 306.1 155.6 304.6 151.8 303.6 148.0 C 302.6 144.2 302.3 140.3 301.7 136.3 C 301.2 132.4 300.1 128.5 300.2 124.6 C 300.4 120.8 301.5 117.0 302.8 113.2 C 304.1 109.5 305.9 105.8 308.0 102.4 C 310.2 98.9 312.6 95.6 315.6 92.6 C 318.5 89.7 322.1 87.2 325.7 84.9 C 329.3 82.7 333.3 80.8 337.4 79.1 C 341.4 77.5 345.7 76.0 350.0 75.1 C 354.3 74.2 358.8 74.0 363.2 73.7 C 367.7 73.4 372.3 72.9 376.7 73.4 C 381.1 73.8 385.4 74.9 389.5 76.4 C 393.6 77.8 397.7 79.7 401.4 81.9 C 405.1 84.0 408.6 86.6 411.7 89.4 C 414.8 92.2 417.7 95.4 420.2 98.6 C 422.7 101.8 424.9 105.3 426.8 108.8 C 428.7 112.4 430.5 116.1 431.7 119.9 C 432.8 123.6 433.1 127.6 433.9 131.5 Z" fill="#74a1c6" fill-rule="evenodd" stroke="none"/>
  </g>
  <g opacity="0.70">
    <path d="M 451.7 365.1 C 452.2 368.9 452.6 372.8 453.3 376.6 C 453.9 380.5 454.8 384.3 455.6 388.1 C 456.3 392.0 457.2 395.8 457.6 399.6 C 458.1 403.5 458.1 407.4 458.3 411.3 C 458.4 415.2 458.7 419.1 458.4 422.9 C 458.1 426.8 457.5 430.7 456.6 434.4 C 455.7 438.2 454.5 442.0 453.0 445.6 C 451.4 449.3 449.7 452.9 447.3 456.2 C 445.0 459.4 441.9 462.3 438.9 465.1 C 435.8 468.0 432.5 470.5 429.2 473.2 C 426.0 475.8 423.0 478.7 419.6 481.1 C 416.2 483.6 412.6 486.0 408.9 488.1 C 405.2 490.2 401.1 491.8 397.3 493.8 C 393.5 495.7 389.8 497.9 386.1 499.9 C 382.3 502.0 378.5 504.0 374.7 506.0 C 370.9 508.0 367.2 510.1 363.4 512.1 C 359.6 514.0 355.9 516.3 351.9 517.9 C 347.9 519.5 343.6 520.4 339.4 521.6 C 335.2 522.8 331.0 524.9 326.7 524.9 C 322.5 525.0 318.1 523.2 313.9 522.0 C 309.7 520.7 305.0 519.8 301.6 517.6 C 298.2 515.4 295.5 511.8 293.4 508.5 C 291.3 505.2 289.8 501.4 289.0 497.7 C 288.2 494.0 288.5 489.9 288.5 486.1 C 288.6 482.2 288.6 478.3 289.3 474.5 C 290.0 470.6 291.5 466.9 292.7 463.2 C 293.9 459.5 295.6 455.8 296.6 452.1 C 297.7 448.3 298.6 444.5 299.3 440.7 C 299.9 436.8 301.1 432.8 300.7 429.1 C 300.3 425.4 298.4 421.8 297.0 418.2 C 295.5 414.5 293.7 410.9 292.0 407.4 C 290.2 403.8 288.3 400.3 286.5 396.8 C 284.6 393.2 282.8 389.7 281.0 386.1 C 279.3 382.6 278.0 378.8 276.2 375.3 C 274.4 371.7 272.1 368.4 270.3 364.8 C 268.4 361.3 266.5 357.8 265.1 354.1 C 263.6 350.5 262.5 346.7 261.4 342.9 C 260.4 339.2 258.9 335.4 258.6 331.6 C 258.3 327.7 259.1 323.8 259.4 319.9 C 259.8 316.0 259.7 312.1 260.7 308.3 C 261.8 304.6 263.9 301.1 265.6 297.5 C 267.3 293.9 269.1 290.4 271.0 286.8 C 272.9 283.3 274.7 279.8 276.8 276.4 C 278.9 273.0 281.1 269.5 283.7 266.4 C 286.4 263.4 289.5 260.5 292.8 257.9 C 296.0 255.3 299.7 253.0 303.4 250.9 C 307.1 248.8 311.0 246.9 315.0 245.3 C 319.0 243.6 323.1 242.3 327.3 241.0 C 331.5 239.8 335.8 238.9 340.0 237.7 C 344.2 236.4 348.3 234.7 352.5 233.6 C 356.7 232.5 361.1 232.0 365.4 231.1 C 369.7 230.2 374.0 228.9 378.3 228.3 C 382.7 227.6 387.1 227.5 391.5 227.4 C 395.9 227.2 400.6 226.5 404.8 227.2 C 409.0 227.9 413.2 229.5 416.7 231.7 C 420.2 233.8 423.2 237.1 425.8 240.2 C 428.4 243.2 430.6 246.7 432.5 250.2 C 434.5 253.7 436.1 257.3 437.4 261.0 C 438.7 264.7 439.5 268.6 440.4 272.4 C 441.3 276.2 442.1 280.0 442.8 283.8 C 443.4 287.7 443.9 291.6 444.4 295.4 C 445.0 299.3 445.5 303.1 445.9 307.0 C 446.3 310.9 446.7 314.7 447.0 318.6 C 447.4 322.5 447.8 326.4 448.1 330.2 C 448.4 334.1 448.7 338.0 449.0 341.9 C 449.4 345.7 449.5 349.6 450.0 353.5 C 450.4 357.4 451.1 361.2 451.7 365.1 Z" fill="#9f3f3f" fill-rule="evenodd" stroke="none"/>
  </g>
  <g opacity="0.70">
    <path d="M 780.0 331.1 C 780.0 334.9 778.8 338.8 777.9 342.7 C 777.1 346.5 776.2 350.4 774.8 354.1 C 773.4 357.9 771.7 361.5 769.6 365.0 C 767.5 368.5 765.1 371.9 762.3 374.9 C 759.5 377.9 756.3 380.8 752.8 383.2 C 749.3 385.7 745.4 387.7 741.4 389.5 C 737.5 391.3 733.3 393.1 729.1 394.1 C 724.8 395.2 720.2 395.4 715.8 395.8 C 711.4 396.3 706.8 397.1 702.4 397.0 C 698.0 396.9 693.5 396.0 689.2 395.2 C 684.9 394.3 680.4 393.3 676.3 391.8 C 672.2 390.3 668.2 388.4 664.6 386.1 C 661.0 383.8 657.9 380.9 654.8 378.0 C 651.7 375.2 648.8 372.1 646.1 369.0 C 643.4 365.9 640.7 362.7 638.6 359.2 C 636.4 355.8 634.7 352.1 633.2 348.4 C 631.7 344.7 630.3 340.9 629.6 337.1 C 628.9 333.2 629.0 329.3 629.2 325.4 C 629.4 321.5 629.9 317.5 630.9 313.7 C 632.0 309.9 633.4 306.2 635.3 302.7 C 637.3 299.3 640.1 296.1 642.7 292.9 C 645.4 289.7 648.3 286.7 651.2 283.7 C 654.0 280.7 656.7 277.5 660.0 274.8 C 663.3 272.2 666.9 269.8 670.7 267.8 C 674.5 265.7 678.8 264.4 682.9 262.7 C 686.9 261.0 690.9 258.8 695.1 257.8 C 699.3 256.8 703.7 256.8 708.1 256.9 C 712.5 257.1 717.1 257.7 721.4 258.7 C 725.7 259.7 729.8 261.1 733.7 262.9 C 737.7 264.7 741.6 266.9 745.0 269.3 C 748.5 271.8 751.5 274.8 754.5 277.7 C 757.5 280.6 760.4 283.7 762.9 286.9 C 765.5 290.1 768.0 293.4 770.0 296.9 C 772.1 300.4 773.9 304.1 775.2 307.8 C 776.4 311.6 776.9 315.5 777.7 319.4 C 778.5 323.3 780.0 327.2 780.0 331.1 Z" fill="#9f3f3f" fill-rule="evenodd" stroke="none"/>
  </g>
  <g opacity="0.70">
    <path d="M 620.3 416.1 C 621.6 419.8 623.5 423.3 624.1 427.1 C 624.7 430.8 624.0 434.8 623.8 438.6 C 623.6 442.5 623.7 446.4 622.9 450.1 C 622.0 453.9 620.1 457.4 618.6 461.1 C 617.2 464.7 615.9 468.4 614.3 472.0 C 612.7 475.6 611.1 479.2 609.1 482.6 C 607.2 486.1 605.1 489.5 602.7 492.7 C 600.3 496.0 597.7 499.0 595.0 502.1 C 592.3 505.1 589.6 508.2 586.5 511.0 C 583.5 513.7 580.1 516.2 576.6 518.5 C 573.1 520.9 569.5 523.1 565.6 524.9 C 561.8 526.7 557.5 527.9 553.4 529.2 C 549.3 530.5 545.2 532.1 540.9 532.8 C 536.6 533.5 532.1 533.2 527.7 533.3 C 523.4 533.4 518.9 533.9 514.6 533.6 C 510.2 533.3 505.9 532.3 501.7 531.3 C 497.4 530.4 493.1 529.4 489.1 528.0 C 485.0 526.6 481.1 524.8 477.4 522.7 C 473.7 520.7 470.3 518.2 466.9 515.7 C 463.6 513.2 460.3 510.6 457.4 507.8 C 454.4 504.9 451.6 501.9 449.2 498.7 C 446.9 495.5 445.0 492.0 443.3 488.4 C 441.7 484.9 440.3 481.1 439.4 477.4 C 438.4 473.7 437.9 469.8 437.4 466.0 C 436.9 462.2 436.5 458.3 436.4 454.4 C 436.3 450.6 436.5 446.8 436.8 442.9 C 437.2 439.1 437.7 435.2 438.5 431.4 C 439.2 427.7 440.1 423.9 441.4 420.2 C 442.7 416.6 444.6 413.0 446.5 409.6 C 448.4 406.1 450.9 402.9 453.0 399.5 C 455.1 396.1 456.9 392.6 459.1 389.3 C 461.3 386.0 463.7 382.7 466.3 379.6 C 468.8 376.5 471.4 373.3 474.6 370.7 C 477.8 368.1 481.4 365.8 485.2 363.9 C 489.0 362.1 493.2 360.7 497.4 359.5 C 501.5 358.2 505.8 357.3 510.0 356.3 C 514.3 355.3 518.5 354.4 522.7 353.3 C 526.9 352.2 531.1 350.7 535.3 349.8 C 539.5 348.8 543.9 348.3 548.2 347.8 C 552.5 347.3 557.0 346.5 561.3 346.6 C 565.5 346.8 569.8 347.4 573.7 348.8 C 577.6 350.2 581.3 352.8 584.6 355.2 C 588.0 357.6 591.3 360.3 594.0 363.3 C 596.7 366.3 598.7 369.9 600.8 373.2 C 602.9 376.6 604.8 380.1 606.7 383.6 C 608.6 387.1 610.4 390.6 612.0 394.2 C 613.6 397.7 614.9 401.4 616.3 405.1 C 617.6 408.8 619.0 412.5 620.3 416.1 Z" fill="#74a1c6" fill-rule="evenodd" stroke="none"/>
  </g>
  <g opacity="0.70">
    <path d="M 274.2 324.1 C 275.2 327.9 275.8 331.8 276.2 335.7 C 276.5 339.6 276.4 343.5 276.2 347.5 C 276.0 351.4 275.5 355.3 274.9 359.1 C 274.4 363.0 273.3 366.8 272.6 370.7 C 271.9 374.6 271.1 378.4 270.6 382.3 C 270.1 386.2 269.9 390.1 269.6 394.0 C 269.4 397.9 269.1 401.8 269.2 405.7 C 269.3 409.7 269.8 413.6 270.0 417.5 C 270.3 421.4 270.5 425.3 270.6 429.2 C 270.7 433.1 270.7 437.1 270.6 441.0 C 270.5 444.9 270.5 448.8 270.1 452.7 C 269.7 456.6 269.0 460.5 268.2 464.3 C 267.5 468.2 266.7 472.1 265.5 475.8 C 264.2 479.6 262.6 483.3 260.6 486.8 C 258.7 490.3 256.4 493.7 253.8 496.9 C 251.2 500.0 248.3 503.0 245.2 505.8 C 242.1 508.6 238.8 511.3 235.3 513.7 C 231.8 516.1 228.1 518.5 224.1 520.2 C 220.1 521.8 215.7 522.5 211.4 523.4 C 207.1 524.3 202.6 525.4 198.2 525.5 C 193.8 525.6 189.5 524.9 185.1 524.1 C 180.8 523.4 176.3 522.5 172.2 521.2 C 168.0 519.9 164.0 518.1 160.2 516.1 C 156.4 514.1 152.8 511.7 149.4 509.2 C 145.9 506.8 142.6 504.1 139.5 501.3 C 136.4 498.5 133.5 495.5 130.8 492.4 C 128.0 489.3 125.4 486.1 123.2 482.7 C 121.0 479.4 118.7 475.8 117.5 472.1 C 116.3 468.4 116.3 464.3 115.9 460.4 C 115.6 456.5 114.9 452.6 115.3 448.7 C 115.7 444.9 117.5 441.1 118.6 437.3 C 119.6 433.5 120.6 429.7 121.6 425.9 C 122.6 422.1 123.5 418.2 124.5 414.4 C 125.5 410.6 126.8 406.8 127.6 403.0 C 128.5 399.1 128.8 395.2 129.5 391.3 C 130.1 387.4 130.6 383.6 131.4 379.7 C 132.1 375.8 133.0 372.0 133.9 368.2 C 134.8 364.3 135.5 360.4 136.7 356.7 C 137.9 352.9 139.8 349.3 141.1 345.6 C 142.4 341.8 143.4 338.0 144.5 334.2 C 145.7 330.4 146.7 326.6 148.0 322.9 C 149.3 319.1 150.6 315.3 152.3 311.7 C 154.1 308.1 155.9 304.4 158.4 301.3 C 161.0 298.1 164.2 295.3 167.6 292.8 C 171.1 290.4 175.1 288.5 179.0 286.6 C 182.9 284.8 186.9 282.6 191.1 281.7 C 195.3 280.7 199.8 280.8 204.2 280.7 C 208.7 280.7 213.2 280.8 217.6 281.4 C 222.0 282.0 226.3 282.9 230.6 284.1 C 234.8 285.3 239.0 286.8 243.0 288.5 C 247.0 290.2 251.2 291.8 254.6 294.2 C 258.1 296.5 261.4 299.4 264.0 302.5 C 266.5 305.7 268.3 309.4 270.0 313.0 C 271.7 316.6 273.2 320.3 274.2 324.1 Z" fill="#74a1c6" fill-rule="evenodd" stroke="none"/>
  </g>
  <use x="585.3" y="68.8" xlink:href="#x0a22"/>
  <line x1="591.9" y1="76.1" x2="615.6" y2="102.2" stroke="#5e5e5e" stroke-width="14.1" stroke-linecap="round"/>
  <use x="712.7" y="152.9" xlink:href="#x0a21"/>
  <line x1="699.7" y1="147.2" x2="653.0" y2="126.8" stroke="#505050" stroke-width="14.1" stroke-linecap="round"/>
  <use x="155.5" y="196.5" xlink:href="#x0a14"/>
  <line x1="152.9" y1="201.5" x2="143.4" y2="219.5" stroke="#363636" stroke-width="14.1" stroke-linecap="round"/>
  <use x="380.4" y="106.2" xlink:href="#x0a13"/>
  <line x1="398.0" y1="123.7" x2="419.1" y2="168.3" stroke="#3a3a3a" stroke-width="9.8" stroke-linecap="round"/>
  <line x1="382.8" y1="130.9" x2="403.9" y2="175.6" stroke="#3a3a3a" stroke-width="9.8" stroke-linecap="round"/>
  <use x="628.2" y="116.0" xlink:href="#x0a7"/>
  <line x1="611.2" y1="137.0" x2="565.9" y2="193.0" stroke="#393939" stroke-width="14.1" stroke-linecap="round"/>
  <line x1="633.9" y1="97.1" x2="644.7" y2="61.4" stroke="#323232" stroke-width="14.1" stroke-linecap="round"/>
  <use x="422.7" y="195.5" xlink:href="#x0a6"/>
  <line x1="451.1" y1="199.4" x2="523.1" y2="209.1" stroke="#2e2e2e" stroke-width="14.1" stroke-linecap="round"/>
  <line x1="407.9" y1="217.0" x2="371.0" y2="270.7" stroke="#212121" stroke-width="14.1" stroke-linecap="round"/>
  <use x="549.9" y="212.8" xlink:href="#x0a11"/>
  <line x1="561.4" y1="232.8" x2="592.6" y2="287.0" stroke="#1e1e1e" stroke-width="14.1" stroke-linecap="round"/>
  <use x="647.7" y="51.5" xlink:href="#x0a23"/>
  <use x="138.4" y="229.0" xlink:href="#x0a1"/>
  <line x1="113.0" y1="242.4" x2="65.2" y2="267.5" stroke="#202020" stroke-width="14.1" stroke-linecap="round"/>
  <line x1="159.2" y1="246.9" x2="213.1" y2="293.3" stroke="#181818" stroke-width="14.1" stroke-linecap="round"/>
  <line x1="137.0" y1="206.2" x2="134.3" y2="163.1" stroke="#151515" stroke-width="14.1" stroke-linecap="round"/>
  <use x="51.9" y="274.5" xlink:href="#x0a18"/>
  <use x="356.2" y="292.2" xlink:href="#x0a0"/>
  <line x1="329.2" y1="304.7" x2="260.4" y2="314.7" stroke="#141414" stroke-width="9.8" stroke-linecap="round" stroke-dasharray="9.8,19.7"/>
  <line x1="326.8" y1="288.0" x2="258.0" y2="298.0" stroke="#141414" stroke-width="9.8" stroke-linecap="round"/>
  <line x1="376.1" y1="311.1" x2="405.4" y2="364.9" stroke="#0e0e0e" stroke-width="9.8" stroke-linecap="round"/>
  <line x1="361.3" y1="319.2" x2="390.6" y2="372.9" stroke="#0e0e0e" stroke-width="9.8" stroke-linecap="round" stroke-dasharray="9.8,19.7"/>
  <use x="604.8" y="308.3" xlink:href="#x0a5"/>
  <line x1="633.0" y1="299.6" x2="686.7" y2="299.0" stroke="#0f0f0f" stroke-width="9.8" stroke-linecap="round"/>
  <line x1="633.2" y1="316.4" x2="686.9" y2="315.8" stroke="#0f0f0f" stroke-width="9.8" stroke-linecap="round"/>
  <line x1="589.2" y1="331.0" x2="549.7" y2="388.4" stroke="#0d0d0d" stroke-width="14.1" stroke-linecap="round"/>
  <use x="232.7" y="310.2" xlink:href="#x0a9"/>
  <line x1="237.3" y1="334.9" x2="228.2" y2="393.8" stroke="#0a0a0a" stroke-width="9.8" stroke-linecap="round" stroke-dasharray="9.8,19.7"/>
  <line x1="220.7" y1="332.3" x2="211.5" y2="391.2" stroke="#0a0a0a" stroke-width="9.8" stroke-linecap="round"/>
  <use x="712.2" y="307.1" xlink:href="#x0a12"/>
  <use x="133.6" y="151.1" xlink:href="#x0a15"/>
  <use x="535.0" y="409.7" xlink:href="#x0a8"/>
  <line x1="508.3" y1="405.9" x2="438.8" y2="395.9" stroke="#080808" stroke-width="14.1" stroke-linecap="round"/>
  <line x1="546.0" y1="428.1" x2="576.9" y2="479.6" stroke="#020202" stroke-width="14.1" stroke-linecap="round"/>
  <use x="410.4" y="391.8" xlink:href="#x0a2"/>
  <line x1="395.8" y1="415.8" x2="348.0" y2="457.6" stroke="#040404" stroke-width="9.8" stroke-linecap="round"/>
  <line x1="384.7" y1="403.1" x2="336.9" y2="444.9" stroke="#040404" stroke-width="9.8" stroke-linecap="round" stroke-dasharray="9.8,19.7"/>
  <use x="216.0" y="417.3" xlink:href="#x0a4"/>
  <line x1="245.0" y1="421.7" x2="303.1" y2="448.9" stroke="#020202" stroke-width="9.8" stroke-linecap="round" stroke-dasharray="9.8,19.7"/>
  <line x1="237.9" y1="436.9" x2="295.9" y2="464.2" stroke="#020202" stroke-width="9.8" stroke-linecap="round"/>
  <line x1="190.8" y1="429.0" x2="143.8" y2="450.9" stroke="#020202" stroke-width="14.1" stroke-linecap="round"/>
  <use x="675.2" y="527.2" xlink:href="#x0a16"/>
  <line x1="661.8" y1="522.9" x2="614.0" y2="507.4" stroke="#000000" stroke-width="14.1" stroke-linecap="round"/>
  <use x="323.5" y="467.8" xlink:href="#x0a10"/>
  <use x="130.5" y="457.1" xlink:href="#x0a20"/>
  <use x="588.6" y="499.1" xlink:href="#x0a3"/>
  <line x1="571.6" y1="522.1" x2="539.5" y2="565.4" stroke="#000000" stroke-width="14.1" stroke-linecap="round"/>
  <line x1="592.7" y1="488.9" x2="600.5" y2="469.5" stroke="#000000" stroke-width="14.1" stroke-linecap="round"/>
  <use x="530.5" y="577.5" xlink:href="#x0a19"/>
  <use x="602.6" y="464.1" xlink:href="#x0a17"/>
  <g opacity="0.70">
    <path d="M 442.8 92.0 C 443.5 95.8 443.8 99.6 443.5 103.4 C 443.3 107.2 442.3 111.1 441.3 114.9 C 440.3 118.6 439.2 122.4 437.4 125.9 C 435.7 129.4 433.3 132.8 430.9 136.0 C 428.5 139.3 425.9 142.5 423.1 145.4 C 420.2 148.3 417.1 151.2 413.6 153.6 C 410.2 156.0 406.3 158.0 402.4 159.8 C 398.5 161.5 394.3 163.0 390.1 164.1 C 385.9 165.1 381.5 165.9 377.2 166.1 C 372.8 166.3 368.3 165.7 363.9 165.3 C 359.5 164.8 355.0 164.7 350.9 163.5 C 346.8 162.4 342.7 160.5 339.1 158.4 C 335.4 156.2 332.3 153.4 329.1 150.7 C 325.9 148.1 322.8 145.2 320.0 142.3 C 317.1 139.3 314.3 136.3 312.0 133.0 C 309.8 129.7 307.7 126.1 306.6 122.4 C 305.5 118.7 305.8 114.7 305.4 110.8 C 305.1 106.9 304.4 103.0 304.6 99.2 C 304.8 95.3 305.8 91.5 306.5 87.7 C 307.3 83.8 308.0 80.0 309.2 76.3 C 310.5 72.5 311.9 68.8 313.8 65.3 C 315.7 61.9 317.9 58.3 320.6 55.3 C 323.3 52.3 326.5 49.6 330.0 47.3 C 333.6 45.1 337.7 43.4 341.8 41.9 C 345.8 40.4 350.0 38.9 354.3 38.2 C 358.6 37.6 363.2 38.1 367.6 38.0 C 372.0 38.0 376.6 37.3 380.9 37.9 C 385.2 38.5 389.3 40.2 393.5 41.5 C 397.6 42.9 401.9 44.2 405.7 46.1 C 409.6 47.9 413.2 50.2 416.6 52.7 C 420.0 55.2 423.2 57.9 426.1 60.8 C 429.0 63.7 431.6 67.0 433.7 70.3 C 435.9 73.6 437.8 77.2 439.3 80.8 C 440.8 84.4 442.1 88.3 442.8 92.0 Z" fill="url(#x0mo_neg_front)" fill-rule="evenodd" stroke="none"/>
  </g>
  <g opacity="0.70">
    <path d="M 762.3 298.7 C 762.7 302.5 763.6 306.3 763.1 310.1 C 762.7 313.8 760.8 317.5 759.5 321.2 C 758.1 324.9 756.8 328.6 755.2 332.2 C 753.7 335.8 752.1 339.4 750.3 342.9 C 748.4 346.4 746.5 349.9 744.0 353.0 C 741.6 356.2 738.8 359.3 735.6 361.9 C 732.4 364.6 728.8 366.9 725.0 368.7 C 721.1 370.5 716.8 371.6 712.6 372.8 C 708.5 374.0 704.2 375.2 699.9 375.7 C 695.6 376.2 691.1 375.6 686.7 375.5 C 682.3 375.5 677.8 375.8 673.5 375.4 C 669.2 374.9 664.9 373.8 660.7 372.7 C 656.5 371.6 652.2 370.4 648.4 368.6 C 644.5 366.8 640.8 364.6 637.7 361.9 C 634.6 359.2 632.0 355.9 629.9 352.6 C 627.7 349.3 626.1 345.6 624.8 342.0 C 623.4 338.3 622.4 334.5 621.8 330.7 C 621.2 326.9 621.4 323.0 621.2 319.1 C 621.1 315.3 620.7 311.4 621.0 307.6 C 621.2 303.7 622.1 299.9 622.7 296.1 C 623.4 292.3 623.9 288.4 624.9 284.7 C 626.0 281.0 627.5 277.3 629.2 273.8 C 631.0 270.2 633.1 266.8 635.5 263.6 C 638.0 260.4 640.7 257.3 643.8 254.6 C 646.8 251.9 650.4 249.5 654.0 247.4 C 657.7 245.3 661.6 243.2 665.6 241.9 C 669.7 240.7 674.1 240.1 678.4 239.9 C 682.7 239.7 687.2 240.2 691.5 240.6 C 695.9 241.0 700.3 241.3 704.5 242.3 C 708.7 243.2 712.9 244.7 716.9 246.2 C 720.9 247.7 725.0 249.3 728.7 251.4 C 732.3 253.5 735.7 256.0 738.9 258.6 C 742.1 261.3 745.0 264.2 747.7 267.2 C 750.4 270.3 752.9 273.5 755.1 276.8 C 757.2 280.1 759.5 283.5 760.7 287.2 C 761.9 290.8 761.8 294.8 762.3 298.7 Z" fill="url(#x0mo_pos_front)" fill-rule="evenodd" stroke="none"/>
  </g>
  <g opacity="0.70">
    <path d="M 451.7 283.9 C 451.9 287.8 451.9 291.7 452.0 295.6 C 452.1 299.5 452.1 303.4 452.3 307.3 C 452.5 311.2 453.0 315.1 453.3 319.0 C 453.6 322.9 453.9 326.9 454.3 330.7 C 454.8 334.6 455.5 338.5 456.1 342.4 C 456.6 346.3 457.3 350.1 457.6 354.0 C 458.0 357.9 458.0 361.8 458.2 365.8 C 458.4 369.7 458.8 373.6 458.6 377.5 C 458.5 381.4 457.9 385.3 457.4 389.2 C 456.9 393.0 456.5 397.0 455.5 400.8 C 454.6 404.6 453.4 408.4 451.7 412.0 C 450.0 415.6 447.8 419.0 445.4 422.4 C 443.1 425.7 440.4 428.8 437.6 431.8 C 434.7 434.8 431.5 437.6 428.2 440.2 C 424.8 442.7 421.2 445.0 417.4 447.1 C 413.7 449.1 409.7 451.1 405.7 452.7 C 401.6 454.3 397.3 455.3 393.1 456.7 C 389.0 458.1 384.8 459.4 380.8 461.1 C 376.7 462.8 372.8 464.6 369.0 466.7 C 365.3 468.8 361.8 471.3 358.4 473.8 C 354.9 476.2 351.7 479.0 348.3 481.5 C 344.9 484.1 341.5 486.5 338.0 489.0 C 334.5 491.4 331.5 495.3 327.6 496.3 C 323.6 497.3 318.7 495.6 314.4 494.7 C 310.1 493.9 305.1 493.3 301.7 491.2 C 298.2 489.1 295.4 485.5 293.5 482.1 C 291.5 478.7 290.6 474.8 290.1 471.0 C 289.7 467.1 290.2 463.1 290.6 459.2 C 291.0 455.4 291.5 451.4 292.7 447.7 C 293.9 444.0 296.1 440.5 297.8 436.9 C 299.6 433.2 301.6 429.7 303.1 426.1 C 304.6 422.4 305.9 418.6 306.8 414.8 C 307.8 411.0 308.8 407.1 308.9 403.2 C 308.9 399.4 307.9 395.5 307.4 391.6 C 306.8 387.7 306.6 383.7 305.4 380.0 C 304.2 376.3 302.1 372.8 300.1 369.3 C 298.2 365.8 295.7 362.5 293.6 359.0 C 291.6 355.5 289.4 352.1 287.6 348.5 C 285.9 344.9 284.3 341.3 282.9 337.6 C 281.5 333.8 280.5 330.0 279.5 326.2 C 278.5 322.4 277.7 318.5 277.0 314.7 C 276.2 310.8 275.7 306.9 275.0 303.1 C 274.2 299.2 273.4 295.4 272.7 291.5 C 272.0 287.7 271.2 283.8 270.8 279.9 C 270.3 276.0 269.9 272.1 269.8 268.2 C 269.7 264.3 269.6 260.4 270.4 256.6 C 271.1 252.8 273.0 249.1 274.4 245.4 C 275.8 241.7 277.1 238.0 278.7 234.3 C 280.4 230.7 282.1 227.1 284.3 223.7 C 286.4 220.3 288.9 216.9 291.6 213.9 C 294.3 210.8 297.4 207.9 300.6 205.2 C 303.8 202.5 307.4 200.1 311.0 197.8 C 314.6 195.5 318.3 193.3 322.3 191.5 C 326.2 189.8 330.4 188.5 334.6 187.3 C 338.8 186.1 343.2 185.2 347.6 184.5 C 351.9 183.7 356.3 183.2 360.8 183.0 C 365.2 182.7 369.7 182.7 374.1 182.8 C 378.6 182.8 383.0 183.0 387.4 183.4 C 391.9 183.8 396.3 184.3 400.6 185.2 C 405.0 186.1 409.3 187.1 413.3 188.8 C 417.2 190.5 420.9 192.8 424.3 195.4 C 427.6 197.9 430.8 200.8 433.3 204.0 C 435.8 207.2 437.7 210.8 439.2 214.5 C 440.8 218.1 441.6 222.0 442.6 225.8 C 443.6 229.6 444.5 233.5 445.3 237.3 C 446.1 241.1 446.8 245.0 447.5 248.9 C 448.2 252.7 448.8 256.6 449.4 260.5 C 449.9 264.4 450.3 268.3 450.6 272.2 C 451.0 276.1 451.4 280.0 451.7 283.9 Z" fill="url(#x0mo_pos_front)" fill-rule="evenodd" stroke="none"/>
  </g>
  <g opacity="0.70">
    <path d="M 611.4 367.6 C 611.7 371.5 612.1 375.4 612.2 379.3 C 612.3 383.2 612.0 387.1 611.9 391.0 C 611.8 394.9 611.9 398.8 611.5 402.7 C 611.2 406.5 610.4 410.4 609.8 414.3 C 609.1 418.1 608.8 422.0 607.6 425.8 C 606.4 429.5 604.6 433.1 602.7 436.6 C 600.7 440.1 598.6 443.6 596.0 446.7 C 593.4 449.8 590.5 452.9 587.2 455.5 C 584.0 458.1 580.2 460.2 576.4 462.2 C 572.5 464.1 568.4 465.5 564.2 466.9 C 560.1 468.3 555.9 469.5 551.6 470.6 C 547.4 471.8 543.1 472.8 538.7 473.6 C 534.4 474.4 530.0 474.9 525.6 475.3 C 521.2 475.8 516.7 476.8 512.4 476.4 C 508.1 475.9 504.0 473.9 499.8 472.6 C 495.7 471.3 491.3 470.3 487.3 468.6 C 483.4 466.9 479.5 464.9 476.0 462.5 C 472.6 460.2 469.6 457.2 466.6 454.3 C 463.7 451.4 461.0 448.3 458.3 445.2 C 455.5 442.2 452.5 439.3 450.1 436.0 C 447.6 432.8 445.2 429.4 443.7 425.8 C 442.3 422.2 441.9 418.2 441.1 414.4 C 440.4 410.5 439.3 406.6 439.3 402.8 C 439.2 398.9 440.3 395.1 441.0 391.2 C 441.6 387.4 441.9 383.4 443.2 379.7 C 444.5 376.0 446.6 372.5 448.6 369.1 C 450.7 365.6 453.3 362.4 455.5 359.1 C 457.8 355.7 460.0 352.3 462.2 349.0 C 464.4 345.6 466.3 342.0 468.9 338.9 C 471.4 335.7 474.4 332.8 477.4 329.9 C 480.3 327.0 483.4 324.1 486.6 321.4 C 489.8 318.7 493.1 316.1 496.4 313.6 C 499.8 311.0 503.3 308.6 506.8 306.2 C 510.2 303.8 513.7 301.3 517.3 299.0 C 520.8 296.7 524.5 294.5 528.2 292.4 C 531.9 290.2 535.3 287.5 539.3 285.9 C 543.3 284.4 547.8 283.9 552.2 283.1 C 556.5 282.2 561.0 280.7 565.2 280.9 C 569.5 281.0 573.9 282.3 577.9 283.8 C 581.8 285.4 585.6 287.8 588.9 290.4 C 592.1 292.9 595.2 295.8 597.6 299.0 C 599.9 302.3 601.6 306.0 602.9 309.7 C 604.2 313.4 604.6 317.3 605.3 321.2 C 606.0 325.0 606.7 328.9 607.3 332.7 C 608.0 336.6 608.5 340.5 609.0 344.3 C 609.5 348.2 610.0 352.1 610.4 356.0 C 610.8 359.8 611.1 363.7 611.4 367.6 Z" fill="url(#x0mo_neg_front)" fill-rule="evenodd" stroke="none"/>
  </g>
  <g opacity="0.70">
    <path d="M 274.2 394.7 C 274.8 398.5 275.6 402.2 275.5 406.1 C 275.4 409.9 274.2 413.7 273.5 417.5 C 272.8 421.3 272.3 425.2 271.1 428.9 C 270.0 432.6 268.5 436.3 266.7 439.8 C 264.9 443.4 262.9 446.9 260.5 450.1 C 258.1 453.3 255.2 456.3 252.1 459.0 C 249.0 461.7 245.5 464.1 241.9 466.3 C 238.3 468.5 234.4 470.4 230.4 472.0 C 226.5 473.7 222.4 475.3 218.2 476.0 C 213.9 476.8 209.3 476.5 205.0 476.4 C 200.6 476.4 196.1 476.8 191.9 476.0 C 187.7 475.2 183.7 473.1 179.6 471.7 C 175.6 470.2 171.3 469.0 167.4 467.4 C 163.4 465.7 159.4 463.9 155.8 461.8 C 152.1 459.7 148.6 457.3 145.5 454.6 C 142.3 451.9 139.5 448.9 136.9 445.8 C 134.3 442.7 131.9 439.4 129.8 436.0 C 127.6 432.7 125.7 429.1 124.1 425.6 C 122.4 422.0 121.0 418.3 119.7 414.6 C 118.3 410.9 116.4 407.3 115.8 403.5 C 115.2 399.8 115.7 395.8 115.8 392.0 C 116.0 388.1 115.8 384.2 116.6 380.4 C 117.4 376.6 119.2 373.0 120.6 369.4 C 122.0 365.7 123.8 362.2 125.1 358.5 C 126.5 354.8 127.5 351.0 128.5 347.3 C 129.5 343.5 130.4 339.7 131.3 335.9 C 132.2 332.1 133.0 328.3 133.9 324.6 C 134.8 320.8 135.5 316.9 136.6 313.2 C 137.7 309.5 139.2 305.8 140.6 302.1 C 142.0 298.5 143.5 294.8 145.1 291.2 C 146.6 287.6 148.0 283.9 149.9 280.4 C 151.8 276.9 153.8 273.5 156.3 270.3 C 158.7 267.1 161.4 263.9 164.5 261.2 C 167.6 258.5 171.2 256.1 174.8 254.0 C 178.5 251.9 182.5 250.0 186.5 248.6 C 190.6 247.2 194.9 246.3 199.2 245.6 C 203.5 244.9 208.0 244.8 212.4 244.6 C 216.7 244.5 221.1 244.3 225.5 244.7 C 229.8 245.1 234.2 246.1 238.4 247.2 C 242.6 248.3 247.0 249.3 250.6 251.3 C 254.3 253.3 257.5 256.1 260.4 259.0 C 263.2 261.9 265.6 265.3 267.6 268.7 C 269.5 272.1 271.0 275.8 272.2 279.5 C 273.3 283.3 273.8 287.1 274.4 291.0 C 275.1 294.8 275.9 298.6 276.1 302.5 C 276.4 306.3 276.1 310.2 275.8 314.0 C 275.4 317.9 274.7 321.7 274.1 325.6 C 273.6 329.4 273.2 333.3 272.7 337.1 C 272.1 340.9 271.2 344.7 270.7 348.6 C 270.3 352.4 269.8 356.2 269.8 360.1 C 269.8 363.9 270.2 367.8 270.6 371.7 C 270.9 375.5 271.4 379.4 272.0 383.2 C 272.6 387.0 273.6 390.8 274.2 394.7 Z" fill="url(#x0mo_neg_front)" fill-rule="evenodd" stroke="none"/>
  </g>
  <g opacity="0.70">
    <path d="M 638.0 469.8 C 638.8 473.5 637.8 477.5 637.3 481.4 C 636.9 485.3 636.5 489.3 635.4 493.1 C 634.3 496.9 632.7 500.6 630.8 504.2 C 628.9 507.7 626.8 511.3 624.1 514.5 C 621.5 517.6 618.4 520.4 614.9 522.9 C 611.5 525.4 607.5 527.6 603.6 529.3 C 599.7 531.0 595.6 533.0 591.3 533.3 C 587.0 533.7 582.4 532.1 578.0 531.4 C 573.6 530.7 569.0 530.4 564.8 529.1 C 560.7 527.7 556.7 525.6 553.1 523.4 C 549.5 521.1 546.0 518.5 543.2 515.5 C 540.4 512.5 538.2 508.9 536.3 505.3 C 534.5 501.8 532.5 498.1 532.0 494.3 C 531.6 490.5 533.1 486.4 533.7 482.5 C 534.3 478.6 534.4 474.6 535.9 470.9 C 537.4 467.3 540.3 464.0 542.5 460.6 C 544.8 457.2 547.0 453.8 549.4 450.4 C 551.9 447.1 554.2 443.6 557.0 440.6 C 559.9 437.7 562.9 434.2 566.8 432.5 C 570.6 430.7 575.5 430.8 579.9 430.1 C 584.4 429.4 589.1 427.5 593.2 428.2 C 597.4 428.8 601.1 431.9 604.9 434.0 C 608.7 436.0 612.6 438.1 616.1 440.6 C 619.6 443.1 623.1 445.7 625.8 448.8 C 628.5 451.8 630.5 455.5 632.5 459.0 C 634.6 462.5 637.2 466.1 638.0 469.8 Z" fill="url(#x0mo_pos_front)" fill-rule="evenodd" stroke="none"/>
  </g>
</svg>