<svg xmlns="http://www.w3.org/2000/svg" xmlns:xlink="http://www.w3.org/1999/xlink" width="800" height="658">
  <rect width="100%" height="100%" fill="#ffffff"/>
  <defs>
    <g id="x0a0"><radialGradient id="x0g0" cx=".5" cy=".5" fx=".33" fy=".33" r=".66"><stop offset="0%" stop-color="#c9c9c9"/><stop offset="100%" stop-color="#959595"/></radialGradient><circle cx="0" cy="0" r="33.4" fill="url(#x0g0)" stroke="#292929" stroke-width="5.9"/></g>
    <g id="x0a1"><radialGradient id="x0g1" cx=".5" cy=".5" fx=".33" fy=".33" r=".66"><stop offset="0%" stop-color="#cccccc"/><stop offset="100%" stop-color="#9a9a9a"/></radialGradient><circle cx="0" cy="0" r="33.4" fill="url(#x0g1)" stroke="#393939" stroke-width="5.9"/></g>
    <g id="x0a2"><radialGradient id="x0g2" cx=".5" cy=".5" fx=".33" fy=".33" r=".66"><stop offset="0%" stop-color="#c5c5c5"/><stop offset="100%" stop-color="#8c8c8c"/></radialGradient><circle cx="0" cy="0" r="33.4" fill="url(#x0g2)" stroke="#0f0f0f" stroke-width="5.9"/></g>
    <g id="x0a3"><radialGradient id="x0g3" cx=".5" cy=".5" fx=".33" fy=".33" r=".66"><stop offset="0%" stop-color="#c3c3c3"/><stop offset="100%" stop-color="#888888"/></radialGradient><circle cx="0" cy="0" r="33.4" fill="url(#x0g3)" stroke="#000000" stroke-width="5.9"/></g>
    <g id="x0a4"><radialGradient id="x0g4" cx=".5" cy=".5" fx=".33" fy=".33" r=".66"><stop offset="0%" stop-color="#c4c4c4"/><stop offset="100%" stop-color="#8a8a8a"/></radialGradient><circle cx="0" cy="0" r="33.4" fill="url(#x0g4)" stroke="#080808" stroke-width="5.9"/></g>
    <g id="x0a5"><radialGradient id="x0g5" cx=".5" cy=".5" fx=".33" fy=".33" r=".66"><stop offset="0%" stop-color="#c8c8c8"/><stop offset="100%" stop-color="#929292"/></radialGradient><circle cx="0" cy="0" r="33.4" fill="url(#x0g5)" stroke="#212121" stroke-width="5.9"/></g>
    <g id="x0a6"><radialGradient id="x0g6" cx=".5" cy=".5" fx=".33" fy=".33" r=".66"><stop offset="0%" stop-color="#d0d0d0"/><stop offset="100%" stop-color="#a2a2a2"/></radialGradient><circle cx="0" cy="0" r="33.4" fill="url(#x0g6)" stroke="#525252" stroke-width="5.9"/></g>
    <g id="x0a7"><radialGradient id="x0g7" cx=".5" cy=".5" fx=".33" fy=".33" r=".66"><stop offset="0%" stop-color="#d7d7d7"/><stop offset="100%" stop-color="#b0b0b0"/></radialGradient><circle cx="0" cy="0" r="33.4" fill="url(#x0g7)" stroke="#7c7c7c" stroke-width="5.9"/></g>
    <g id="x0a8"><radialGradient id="x0g8" cx=".5" cy=".5" fx=".33" fy=".33" r=".66"><stop offset="0%" stop-color="#7489fa"/><stop offset="100%" stop-color="#2f48c8"/></radialGradient><circle cx="0" cy="0" r="31.5" fill="url(#x0g8)" stroke="#0f0f0f" stroke-width="5.9"/></g>
    <g id="x0a9"><radialGradient id="x0g9" cx=".5" cy=".5" fx=".33" fy=".33" r=".66"><stop offset="0%" stop-color="#7b8ffa"/><stop offset="100%" stop-color="#3951cb"/></radialGradient><circle cx="0" cy="0" r="31.5" fill="url(#x0g9)" stroke="#202020" stroke-width="5.9"/></g>
    <g id="x0a10"><radialGradient id="x0g10" cx=".5" cy=".5" fx=".33" fy=".33" r=".66"><stop offset="0%" stop-color="#6f84fa"/><stop offset="100%" stop-color="#2741c6"/></radialGradient><circle cx="0" cy="0" r="31.5" fill="url(#x0g10)" stroke="#020202" stroke-width="5.9"/></g>
    <g id="x0a11"><radialGradient id="x0g11" cx=".5" cy=".5" fx=".33" fy=".33" r=".66"><stop offset="0%" stop-color="#8e9ffb"/><stop offset="100%" stop-color="#566ad2"/></radialGradient><circle cx="0" cy="0" r="31.5" fill="url(#x0g11)" stroke="#515151" stroke-width="5.9"/></g>
    <g id="x0a12"><radialGradient id="x0g12" cx=".5" cy=".5" fx=".33" fy=".33" r=".66"><stop offset="0%" stop-color="#ff6060"/><stop offset="100%" stop-color="#cf1919"/></radialGradient><circle cx="0" cy="0" r="30.0" fill="url(#x0g12)" stroke="#171717" stroke-width="5.9"/></g>
    <g id="x0a13"><radialGradient id="x0g13" cx=".5" cy=".5" fx=".33" fy=".33" r=".66"><stop offset="0%" stop-color="#ff9090"/><stop offset="100%" stop-color="#dd6060"/></radialGradient><circle cx="0" cy="0" r="30.0" fill="url(#x0g13)" stroke="#808080" stroke-width="5.9"/></g>
  </defs>
  <defs>
    <radialGradient id="x0mo_pos_front" cx=".5" cy=".5" fx=".33" fy=".33" r=".66"><stop offset="0%" stop-color="#9f3f3f"/><stop offset="100%" stop-color="#4c0000"/></radialGradient>
    <radialGradient id="x0mo_neg_front" cx=".5" cy=".5" fx=".33" fy=".33" r=".66"><stop offset="0%" stop-color="#3f9f9f"/><stop offset="100%" stop-color="#004c4c"/></radialGradient>
  </defs>
  <g opacity="0.70">
    <path d="M 444.8 119.4 C 446.2 123.2 446.8 127.3 447.1 131.3 C 447.4 135.3 447.1 139.4 446.8 143.4 C 446.4 147.4 446.3 151.5 445.0 155.4 C 443.8 159.2 441.7 163.0 439.4 166.5 C 437.1 170.0 434.5 173.4 431.4 176.3 C 428.3 179.3 424.8 182.0 421.0 184.3 C 417.2 186.6 413.1 188.6 408.9 190.2 C 404.6 191.7 400.2 192.8 395.7 193.5 C 391.1 194.1 386.4 194.0 381.8 194.0 C 377.2 194.1 372.5 194.6 368.1 193.8 C 363.7 193.1 359.4 191.2 355.2 189.5 C 351.0 187.8 346.8 186.0 343.1 183.6 C 339.5 181.2 336.2 178.2 333.3 175.0 C 330.4 171.9 328.0 168.4 325.9 164.8 C 323.7 161.2 321.8 157.5 320.4 153.6 C 319.1 149.8 318.6 145.7 317.9 141.7 C 317.2 137.7 316.0 133.7 316.1 129.7 C 316.2 125.7 317.2 121.7 318.5 117.9 C 319.9 114.1 321.8 110.3 324.0 106.8 C 326.3 103.3 328.8 99.8 331.9 96.8 C 334.9 93.8 338.6 91.2 342.4 89.0 C 346.2 86.8 350.6 85.2 354.8 83.7 C 359.1 82.2 363.5 80.6 368.0 80.0 C 372.5 79.4 377.2 80.0 381.7 80.2 C 386.3 80.4 391.0 80.5 395.5 81.2 C 400.1 81.9 404.6 82.9 408.8 84.4 C 413.0 86.0 417.1 88.1 420.8 90.5 C 424.5 92.8 427.9 95.6 431.0 98.6 C 434.1 101.6 436.8 104.9 439.1 108.4 C 441.4 111.9 443.5 115.6 444.8 119.4 Z" fill="#9f3f3f" fill-rule="evenodd" stroke="none"/>
  </g>
  <g opacity="0.70">
    <path d="M 612.3 239.8 C 614.4 243.5 616.6 247.3 617.2 251.3 C 617.7 255.2 616.4 259.6 615.6 263.7 C 614.9 267.7 614.6 272.0 612.7 275.7 C 610.7 279.3 607.2 282.5 604.0 285.5 C 600.7 288.5 597.4 291.8 593.4 293.8 C 589.4 295.9 584.5 296.6 580.0 297.8 C 575.4 299.0 570.8 301.2 566.3 301.2 C 561.8 301.2 557.2 299.2 552.7 297.8 C 548.3 296.3 543.5 295.0 539.7 292.7 C 536.0 290.4 532.7 287.2 530.0 283.8 C 527.3 280.5 525.1 276.7 523.7 272.8 C 522.3 268.9 522.3 264.5 521.8 260.4 C 521.2 256.3 520.0 252.1 520.5 248.1 C 521.1 244.0 523.1 240.1 524.9 236.2 C 526.6 232.3 528.1 228.1 530.9 224.9 C 533.8 221.8 537.8 219.3 541.9 217.3 C 546.0 215.3 550.7 214.0 555.2 213.1 C 559.8 212.1 564.5 211.2 569.0 211.5 C 573.6 211.8 578.3 213.5 582.7 214.9 C 587.1 216.3 591.8 217.6 595.5 219.9 C 599.2 222.3 602.1 225.9 604.9 229.2 C 607.8 232.5 610.3 236.1 612.3 239.8 Z" fill="#9f3f3f" fill-rule="evenodd" stroke="none"/>
  </g>
  <g opacity="0.70">
    <path d="M 491.4 217.9 C 493.1 221.6 494.1 225.6 494.8 229.6 C 495.6 233.6 496.0 237.7 496.0 241.8 C 495.9 245.8 495.6 249.9 494.7 253.8 C 493.8 257.8 492.2 261.7 490.7 265.6 C 489.1 269.4 487.4 273.2 485.4 276.8 C 483.3 280.5 480.8 283.9 478.5 287.5 C 476.1 291.0 473.6 294.4 471.2 297.9 C 468.9 301.4 467.0 305.2 464.5 308.6 C 462.0 312.1 459.3 315.4 456.5 318.6 C 453.6 321.8 450.4 324.8 447.2 327.8 C 444.0 330.7 440.7 333.5 437.2 336.3 C 433.8 339.0 430.2 341.6 426.5 344.1 C 422.8 346.5 418.8 348.7 414.9 350.8 C 410.9 353.0 407.0 355.2 402.8 357.0 C 398.7 358.7 394.2 360.0 389.9 361.3 C 385.5 362.7 381.0 364.3 376.5 364.9 C 372.1 365.5 367.5 365.6 363.1 364.9 C 358.7 364.2 354.2 362.5 350.0 360.8 C 345.8 359.2 341.3 357.6 337.8 355.1 C 334.3 352.6 331.4 349.2 329.0 345.7 C 326.6 342.3 324.9 338.4 323.3 334.6 C 321.6 330.8 319.4 326.9 319.2 322.9 C 318.9 319.0 321.0 314.9 321.9 311.0 C 322.9 307.0 323.6 302.9 324.8 299.0 C 326.1 295.1 327.9 291.3 329.5 287.5 C 331.2 283.7 332.9 279.9 334.8 276.2 C 336.7 272.4 339.0 268.9 340.9 265.2 C 342.9 261.5 344.7 257.7 346.3 253.9 C 347.9 250.1 349.2 246.2 350.6 242.3 C 352.1 238.4 353.3 234.4 354.9 230.6 C 356.5 226.8 358.1 222.9 360.4 219.4 C 362.7 215.9 365.7 212.8 368.6 209.6 C 371.6 206.5 374.7 203.4 377.9 200.5 C 381.1 197.5 384.4 194.5 388.0 192.1 C 391.6 189.6 395.6 187.2 399.8 185.6 C 404.0 184.0 408.7 183.3 413.2 182.4 C 417.7 181.4 422.2 180.1 426.8 179.9 C 431.4 179.7 436.1 180.5 440.7 181.0 C 445.3 181.5 450.2 181.5 454.5 182.8 C 458.8 184.1 462.9 186.3 466.6 188.7 C 470.2 191.1 473.4 194.2 476.3 197.3 C 479.3 200.4 481.9 203.9 484.4 207.3 C 486.9 210.7 489.6 214.1 491.4 217.9 Z" fill="#3f9f9f" fill-rule="evenodd" stroke="none"/>
  </g>
  <g opacity="0.70">
    <path d="M 295.9 334.0 C 297.4 337.9 299.5 341.8 299.9 345.9 C 300.3 349.9 299.0 354.0 298.3 358.1 C 297.6 362.1 297.2 366.4 295.7 370.3 C 294.1 374.1 291.5 377.7 288.9 381.1 C 286.3 384.4 283.1 387.6 279.8 390.6 C 276.6 393.6 273.1 396.5 269.4 398.9 C 265.7 401.4 261.7 403.8 257.4 405.4 C 253.1 406.9 248.3 407.5 243.7 408.4 C 239.1 409.3 234.5 410.7 229.9 410.7 C 225.2 410.7 220.6 409.3 216.0 408.4 C 211.4 407.5 206.5 407.1 202.3 405.4 C 198.0 403.8 194.3 401.0 190.6 398.4 C 187.0 395.8 183.6 392.9 180.4 389.9 C 177.2 386.9 174.0 383.7 171.4 380.3 C 168.8 376.9 166.5 373.3 164.8 369.4 C 163.1 365.6 162.2 361.4 161.2 357.4 C 160.3 353.4 159.0 349.3 159.1 345.3 C 159.1 341.2 160.4 337.1 161.4 333.0 C 162.3 329.0 162.8 324.7 164.8 321.1 C 166.7 317.4 170.0 314.2 173.1 311.1 C 176.2 308.0 179.7 305.2 183.3 302.5 C 186.9 299.9 190.7 297.3 194.8 295.3 C 198.9 293.3 203.2 291.8 207.7 290.6 C 212.2 289.4 217.0 288.6 221.6 288.2 C 226.2 287.7 230.8 287.3 235.4 287.8 C 240.0 288.3 244.6 289.7 249.1 291.1 C 253.5 292.4 258.0 293.7 262.0 295.7 C 266.1 297.8 269.8 300.4 273.3 303.2 C 276.8 305.9 280.0 309.0 283.0 312.1 C 286.0 315.3 289.0 318.7 291.1 322.3 C 293.3 325.9 294.4 330.0 295.9 334.0 Z" fill="#9f3f3f" fill-rule="evenodd" stroke="none"/>
  </g>
  <g opacity="0.70">
    <path d="M 584.4 435.7 C 587.3 438.8 591.1 441.9 592.3 445.5 C 593.4 449.1 591.7 453.5 591.4 457.5 C 591.1 461.5 592.0 465.9 590.4 469.5 C 588.9 473.1 585.1 476.0 582.1 479.0 C 579.1 481.9 575.8 485.1 572.2 487.2 C 568.5 489.3 564.4 490.8 560.2 491.6 C 555.9 492.3 550.8 492.2 546.5 491.7 C 542.1 491.3 537.7 490.8 533.9 489.0 C 530.1 487.2 527.0 483.8 523.9 480.8 C 520.8 477.9 517.2 474.9 515.5 471.4 C 513.7 467.9 514.0 463.7 513.5 459.7 C 513.1 455.8 512.0 451.5 512.8 447.7 C 513.6 443.9 515.9 440.4 518.2 437.1 C 520.5 433.7 523.6 430.6 526.8 427.7 C 529.9 424.8 532.9 420.9 536.8 419.6 C 540.7 418.2 545.7 419.5 550.2 419.6 C 554.8 419.7 559.8 419.2 563.9 420.4 C 568.0 421.6 571.6 424.5 575.0 427.0 C 578.4 429.6 581.5 432.6 584.4 435.7 Z" fill="#3f9f9f" fill-rule="evenodd" stroke="none"/>
  </g>
  <g opacity="0.70">
    <path d="M 463.4 416.6 C 465.7 420.0 466.9 424.0 468.2 427.8 C 469.5 431.7 470.8 435.7 471.2 439.6 C 471.6 443.6 471.4 447.6 470.8 451.5 C 470.2 455.4 469.1 459.5 467.6 463.3 C 466.2 467.0 464.6 470.8 462.1 474.1 C 459.7 477.4 456.2 480.3 453.0 483.2 C 449.8 486.0 446.4 488.7 443.0 491.4 C 439.6 494.1 436.2 496.9 432.5 499.2 C 428.8 501.5 424.7 503.4 420.7 505.2 C 416.6 507.1 412.4 508.6 408.1 510.2 C 403.9 511.8 399.8 513.5 395.4 514.7 C 391.1 515.8 386.5 516.2 382.0 517.2 C 377.5 518.1 373.2 519.4 368.7 520.2 C 364.2 520.9 359.6 521.2 355.0 521.6 C 350.5 522.0 345.3 523.8 341.5 522.7 C 337.8 521.5 334.5 517.9 332.5 514.6 C 330.6 511.3 330.0 506.7 329.8 502.8 C 329.6 498.9 330.0 494.9 331.3 491.2 C 332.5 487.4 335.5 484.0 337.3 480.3 C 339.2 476.7 340.6 472.8 342.2 469.1 C 343.9 465.3 345.9 461.7 347.4 457.9 C 348.9 454.1 350.0 450.2 351.2 446.3 C 352.5 442.4 353.5 438.5 354.6 434.6 C 355.8 430.7 356.8 426.8 358.2 422.9 C 359.7 419.1 361.2 415.3 363.3 411.8 C 365.4 408.2 367.7 404.6 370.7 401.6 C 373.7 398.7 377.6 396.3 381.4 394.1 C 385.3 391.9 389.3 389.6 393.6 388.4 C 397.8 387.3 402.4 387.2 406.9 387.2 C 411.4 387.2 416.2 387.6 420.6 388.4 C 425.0 389.2 429.4 390.4 433.4 392.2 C 437.4 394.0 441.0 396.7 444.6 399.2 C 448.2 401.7 451.7 404.3 454.8 407.2 C 458.0 410.1 461.2 413.2 463.4 416.6 Z" fill="#9f3f3f" fill-rule="evenodd" stroke="none"/>
  </g>
  <g opacity="0.70">
    <path d="M 277.3 453.9 C 278.4 457.8 279.5 461.9 280.0 465.9 C 280.4 469.8 280.1 473.9 279.9 477.9 C 279.7 481.9 279.3 486.0 278.6 490.0 C 277.8 494.0 276.9 497.9 275.5 501.8 C 274.1 505.6 272.3 509.4 270.2 513.0 C 268.1 516.5 265.6 520.0 262.9 523.2 C 260.1 526.4 256.9 529.4 253.6 532.2 C 250.3 535.0 246.8 537.6 243.1 540.0 C 239.4 542.4 235.7 545.0 231.5 546.6 C 227.3 548.2 222.6 548.6 218.1 549.5 C 213.6 550.3 209.1 551.6 204.6 551.8 C 200.0 552.0 195.4 551.2 190.9 550.7 C 186.3 550.2 181.6 550.1 177.2 549.0 C 172.8 548.0 168.5 546.3 164.5 544.4 C 160.4 542.5 156.5 540.2 153.0 537.7 C 149.5 535.1 146.2 532.2 143.3 529.1 C 140.5 526.0 138.1 522.4 135.8 518.9 C 133.6 515.4 131.7 511.7 129.8 508.0 C 127.9 504.3 125.6 500.7 124.4 496.8 C 123.2 493.0 123.0 488.9 122.5 484.9 C 122.1 480.9 121.2 476.7 121.7 472.8 C 122.2 468.9 123.8 465.1 125.4 461.3 C 126.9 457.6 129.0 453.9 131.2 450.3 C 133.3 446.7 135.5 443.1 138.2 439.9 C 140.9 436.7 144.2 433.8 147.4 430.9 C 150.5 427.9 153.8 425.0 157.2 422.3 C 160.6 419.6 164.1 416.8 167.9 414.7 C 171.7 412.5 175.9 410.8 180.2 409.4 C 184.5 408.0 189.1 407.1 193.6 406.3 C 198.1 405.6 202.6 404.9 207.2 404.9 C 211.7 404.9 216.4 405.6 220.9 406.3 C 225.4 407.0 230.1 407.5 234.2 409.0 C 238.4 410.5 242.2 413.0 245.9 415.4 C 249.5 417.9 252.8 420.7 256.1 423.5 C 259.4 426.3 262.8 429.2 265.6 432.3 C 268.5 435.5 271.2 438.8 273.1 442.4 C 275.1 446.0 276.2 450.0 277.3 453.9 Z" fill="#3f9f9f" fill-rule="evenodd" stroke="none"/>
  </g>
  <use x="398.0" y="110.5" xlink:href="#x0a13"/>
  <line x1="416.5" y1="128.9" x2="438.6" y2="175.7" stroke="#3a3a3a" stroke-width="10.3" stroke-linecap="round"/>
  <line x1="400.5" y1="136.5" x2="422.6" y2="183.3" stroke="#3a3a3a" stroke-width="10.3" stroke-linecap="round"/>
  <use x="657.9" y="120.8" xlink:href="#x0a7"/>
  <line x1="640.0" y1="142.9" x2="592.6" y2="201.5" stroke="#393939" stroke-width="14.7" stroke-linecap="round"/>
  <use x="442.3" y="204.2" xlink:href="#x0a6"/>
  <line x1="472.2" y1="208.2" x2="547.7" y2="218.5" stroke="#2e2e2e" stroke-width="14.7" stroke-linecap="round"/>
  <line x1="426.9" y1="226.7" x2="388.1" y2="283.1" stroke="#212121" stroke-width="14.7" stroke-linecap="round"/>
  <use x="575.7" y="222.3" xlink:href="#x0a11"/>
  <line x1="587.8" y1="243.3" x2="620.5" y2="300.2" stroke="#1e1e1e" stroke-width="14.7" stroke-linecap="round"/>
  <use x="144.2" y="239.3" xlink:href="#x0a1"/>
  <line x1="166.0" y1="258.1" x2="222.5" y2="306.8" stroke="#181818" stroke-width="14.7" stroke-linecap="round"/>
  <use x="372.6" y="305.6" xlink:href="#x0a0"/>
  <line x1="344.3" y1="318.7" x2="272.2" y2="329.2" stroke="#141414" stroke-width="10.3" stroke-linecap="round" stroke-dasharray="10.3,20.6"/>
  <line x1="341.8" y1="301.2" x2="269.6" y2="311.7" stroke="#141414" stroke-width="10.3" stroke-linecap="round"/>
  <line x1="393.5" y1="325.4" x2="424.2" y2="381.8" stroke="#0e0e0e" stroke-width="10.3" stroke-linecap="round"/>
  <line x1="378.0" y1="333.9" x2="408.6" y2="390.3" stroke="#0e0e0e" stroke-width="10.3" stroke-linecap="round" stroke-dasharray="10.3,20.6"/>
  <use x="633.4" y="322.5" xlink:href="#x0a5"/>
  <line x1="662.9" y1="313.3" x2="719.2" y2="312.7" stroke="#0f0f0f" stroke-width="10.3" stroke-linecap="round"/>
  <line x1="663.1" y1="331.0" x2="719.4" y2="330.4" stroke="#0f0f0f" stroke-width="10.3" stroke-linecap="round"/>
  <line x1="617.0" y1="346.3" x2="575.6" y2="406.5" stroke="#0d0d0d" stroke-width="14.7" stroke-linecap="round"/>
  <use x="243.0" y="324.5" xlink:href="#x0a9"/>
  <line x1="248.0" y1="350.4" x2="238.3" y2="412.1" stroke="#0a0a0a" stroke-width="10.3" stroke-linecap="round" stroke-dasharray="10.3,20.6"/>
  <line x1="230.5" y1="347.7" x2="220.9" y2="409.4" stroke="#0a0a0a" stroke-width="10.3" stroke-linecap="round"/>
  <use x="745.9" y="321.3" xlink:href="#x0a12"/>
  <use x="560.2" y="428.8" xlink:href="#x0a8"/>
  <line x1="532.1" y1="424.8" x2="459.3" y2="414.4" stroke="#080808" stroke-width="14.7" stroke-linecap="round"/>
  <line x1="571.7" y1="448.1" x2="604.1" y2="502.2" stroke="#020202" stroke-width="14.7" stroke-linecap="round"/>
  <use x="429.5" y="410.1" xlink:href="#x0a2"/>
  <line x1="414.2" y1="435.2" x2="364.0" y2="479.1" stroke="#040404" stroke-width="10.3" stroke-linecap="round"/>
  <line x1="402.6" y1="421.9" x2="352.4" y2="465.7" stroke="#040404" stroke-width="10.3" stroke-linecap="round" stroke-dasharray="10.3,20.6"/>
  <use x="225.5" y="436.9" xlink:href="#x0a4"/>
  <line x1="256.0" y1="441.4" x2="316.9" y2="470.0" stroke="#020202" stroke-width="10.3" stroke-linecap="round" stroke-dasharray="10.3,20.6"/>
  <line x1="248.5" y1="457.4" x2="309.4" y2="486.0" stroke="#020202" stroke-width="10.3" stroke-linecap="round"/>
  <use x="338.3" y="489.8" xlink:href="#x0a10"/>
  <use x="616.4" y="522.6" xlink:href="#x0a3"/>
  <g opacity="0.70">
    <path d="M 444.8 77.0 C 446.4 80.9 447.2 85.0 448.2 89.1 C 449.1 93.1 450.5 97.2 450.7 101.3 C 451.0 105.4 450.1 109.5 449.7 113.7 C 449.3 117.8 449.5 122.1 448.3 126.0 C 447.1 130.0 445.0 133.8 442.6 137.3 C 440.2 140.8 437.1 144.0 433.9 147.1 C 430.7 150.1 427.1 152.8 423.5 155.5 C 420.0 158.2 416.4 161.0 412.4 163.2 C 408.5 165.4 404.3 167.8 399.8 168.7 C 395.4 169.7 390.5 168.9 385.8 168.9 C 381.1 168.9 376.1 169.5 371.7 168.5 C 367.2 167.6 362.9 165.6 358.9 163.4 C 355.0 161.3 351.5 158.3 348.1 155.5 C 344.6 152.7 341.4 149.7 338.2 146.6 C 335.1 143.5 331.8 140.4 329.4 136.9 C 327.0 133.5 324.8 129.6 323.6 125.7 C 322.4 121.8 322.7 117.5 322.3 113.3 C 322.0 109.2 321.2 105.1 321.5 101.0 C 321.7 96.9 322.9 92.8 323.8 88.7 C 324.7 84.6 325.4 80.5 326.9 76.6 C 328.3 72.7 330.1 68.8 332.4 65.2 C 334.6 61.6 337.3 58.0 340.5 55.0 C 343.7 52.1 347.7 49.7 351.7 47.6 C 355.7 45.5 360.2 43.7 364.6 42.6 C 369.1 41.5 373.8 41.1 378.4 40.8 C 383.1 40.5 388.0 40.4 392.6 40.8 C 397.2 41.1 401.9 41.9 406.3 43.2 C 410.7 44.5 415.0 46.4 419.0 48.5 C 423.0 50.7 426.9 53.2 430.2 56.0 C 433.5 58.9 436.4 62.3 438.8 65.8 C 441.2 69.3 443.3 73.1 444.8 77.0 Z" fill="url(#x0mo_neg_front)" fill-rule="evenodd" stroke="none"/>
  </g>
  <g opacity="0.70">
    <path d="M 603.0 215.0 C 604.0 219.0 605.2 223.2 604.7 227.2 C 604.2 231.2 601.9 235.2 599.9 239.0 C 598.0 242.8 596.3 247.0 593.0 249.8 C 589.8 252.6 584.8 254.0 580.4 255.7 C 576.1 257.5 571.5 260.0 567.1 260.1 C 562.6 260.2 558.1 258.0 553.8 256.3 C 549.5 254.7 544.8 252.9 541.2 250.3 C 537.7 247.7 535.0 244.1 532.7 240.6 C 530.3 237.1 527.8 233.1 527.0 229.1 C 526.1 225.2 526.8 221.1 527.6 217.1 C 528.5 213.1 530.1 208.8 532.2 205.2 C 534.3 201.5 536.8 198.0 540.1 195.2 C 543.5 192.4 548.1 190.6 552.2 188.5 C 556.3 186.5 560.6 183.0 564.9 182.8 C 569.2 182.6 573.6 185.6 577.8 187.4 C 582.0 189.2 586.7 191.0 590.2 193.6 C 593.8 196.2 596.9 199.4 599.1 203.0 C 601.2 206.5 602.1 211.0 603.0 215.0 Z" fill="url(#x0mo_neg_front)" fill-rule="evenodd" stroke="none"/>
  </g>
  <g opacity="0.70">
    <path d="M 491.4 178.4 C 493.1 182.1 494.4 186.1 495.4 190.0 C 496.5 193.9 497.5 197.9 497.8 201.9 C 498.0 205.9 497.4 210.0 497.1 214.0 C 496.8 218.0 496.9 222.1 495.9 226.0 C 494.9 229.9 493.0 233.7 491.3 237.4 C 489.5 241.2 487.8 245.0 485.5 248.4 C 483.1 251.9 480.2 255.0 477.3 258.2 C 474.4 261.3 471.2 264.2 467.9 267.1 C 464.7 269.9 461.1 272.4 457.7 275.1 C 454.2 277.8 450.8 280.5 447.4 283.2 C 444.0 286.0 440.6 288.7 437.3 291.5 C 434.0 294.3 430.7 297.1 427.4 299.9 C 424.1 302.7 420.9 305.6 417.5 308.4 C 414.2 311.2 410.9 314.1 407.5 316.8 C 404.1 319.4 400.8 322.4 396.9 324.5 C 393.0 326.5 388.5 327.8 384.2 329.2 C 379.9 330.6 375.5 332.8 371.1 333.0 C 366.7 333.3 362.0 331.9 357.7 330.6 C 353.4 329.3 349.0 327.6 345.4 325.3 C 341.7 323.0 338.6 319.9 335.9 316.7 C 333.2 313.5 330.9 309.9 329.4 306.1 C 327.9 302.4 327.4 298.3 327.0 294.3 C 326.6 290.3 326.8 286.2 326.9 282.1 C 327.0 278.1 327.2 274.1 327.6 270.1 C 328.0 266.0 328.8 262.0 329.4 258.0 C 330.1 254.0 330.8 250.0 331.4 246.1 C 332.1 242.1 332.7 238.0 333.5 234.1 C 334.2 230.1 334.9 226.1 335.9 222.2 C 337.0 218.2 338.5 214.4 339.8 210.5 C 341.2 206.7 342.3 202.7 344.1 199.0 C 345.9 195.3 348.2 191.8 350.6 188.3 C 352.9 184.9 355.5 181.5 358.2 178.2 C 360.9 175.0 363.8 171.8 366.9 168.9 C 370.0 165.9 373.3 163.0 376.8 160.4 C 380.3 157.8 384.0 155.3 387.7 153.0 C 391.5 150.8 395.3 148.4 399.5 146.7 C 403.6 145.1 408.3 144.4 412.7 143.3 C 417.1 142.2 421.6 140.3 426.0 140.1 C 430.5 139.9 435.1 141.5 439.6 142.3 C 444.1 143.1 448.8 143.6 453.0 145.0 C 457.3 146.5 461.2 148.8 464.9 151.1 C 468.7 153.4 472.3 156.0 475.6 158.8 C 478.9 161.6 482.2 164.5 484.8 167.8 C 487.4 171.1 489.6 174.7 491.4 178.4 Z" fill="url(#x0mo_pos_front)" fill-rule="evenodd" stroke="none"/>
  </g>
  <g opacity="0.70">
    <path d="M 295.9 296.2 C 297.5 300.0 297.8 304.2 298.5 308.3 C 299.2 312.3 300.3 316.6 300.0 320.6 C 299.7 324.6 298.2 328.6 296.7 332.5 C 295.2 336.3 293.3 340.2 291.0 343.8 C 288.8 347.4 286.2 350.9 283.1 354.0 C 280.0 357.1 276.4 359.9 272.7 362.3 C 268.9 364.7 264.6 366.7 260.4 368.3 C 256.1 369.9 251.4 370.7 246.9 372.0 C 242.4 373.3 237.9 375.8 233.5 375.9 C 229.1 376.1 224.7 374.3 220.3 373.1 C 215.9 371.8 211.4 370.3 207.2 368.5 C 203.0 366.7 198.6 364.9 195.0 362.4 C 191.3 359.9 188.0 356.8 185.1 353.6 C 182.2 350.4 180.1 346.6 177.7 343.0 C 175.3 339.5 172.8 336.0 170.7 332.3 C 168.6 328.6 166.3 324.9 165.2 321.0 C 164.0 317.1 164.2 312.8 163.9 308.6 C 163.7 304.5 162.9 300.4 163.6 296.4 C 164.2 292.4 166.3 288.4 168.1 284.6 C 169.8 280.8 171.5 276.9 174.0 273.4 C 176.5 270.0 179.8 266.8 183.1 263.9 C 186.4 261.0 189.9 258.1 193.8 255.9 C 197.7 253.7 202.0 251.9 206.5 250.8 C 210.9 249.6 215.9 249.3 220.5 249.0 C 225.1 248.7 229.7 248.3 234.1 249.1 C 238.6 249.8 243.0 252.0 247.3 253.6 C 251.7 255.1 256.2 256.4 260.2 258.5 C 264.2 260.5 268.0 263.2 271.4 266.0 C 274.8 268.8 277.6 272.2 280.5 275.5 C 283.4 278.7 286.1 282.1 288.6 285.6 C 291.2 289.0 294.3 292.4 295.9 296.2 Z" fill="url(#x0mo_neg_front)" fill-rule="evenodd" stroke="none"/>
  </g>
  <g opacity="0.70">
    <path d="M 565.8 411.7 C 568.9 414.3 570.8 419.3 570.5 423.0 C 570.2 426.8 567.3 431.2 564.3 434.3 C 561.2 437.3 556.4 439.2 552.2 441.3 C 548.0 443.4 542.7 447.4 539.2 446.7 C 535.8 446.0 533.7 440.7 531.5 437.1 C 529.3 433.6 526.4 429.2 525.9 425.4 C 525.5 421.5 526.8 417.8 528.8 414.3 C 530.8 410.8 534.1 405.6 538.0 404.5 C 541.9 403.4 547.4 406.5 552.0 407.7 C 556.7 408.9 562.7 409.2 565.8 411.7 Z" fill="url(#x0mo_pos_front)" fill-rule="evenodd" stroke="none"/>
  </g>
  <g opacity="0.70">
    <path d="M 472.7 394.3 C 473.3 398.3 472.8 402.4 472.7 406.4 C 472.6 410.4 472.8 414.6 472.1 418.5 C 471.4 422.5 469.9 426.3 468.4 430.1 C 466.8 433.9 465.0 437.7 462.7 441.2 C 460.4 444.6 457.6 447.9 454.5 450.8 C 451.4 453.8 447.7 456.4 444.1 458.8 C 440.4 461.2 436.6 463.7 432.5 465.4 C 428.5 467.1 424.0 468.2 419.6 469.2 C 415.2 470.2 410.6 470.9 406.0 471.5 C 401.5 472.1 396.9 472.5 392.3 472.8 C 387.8 473.0 383.1 472.9 378.5 472.9 C 373.9 473.0 369.3 473.0 364.7 473.1 C 360.1 473.1 355.1 473.8 350.9 473.3 C 346.7 472.7 341.0 472.3 339.4 469.7 C 337.8 467.1 340.7 461.7 341.2 457.7 C 341.7 453.7 341.8 449.6 342.3 445.6 C 342.8 441.6 343.7 437.6 344.2 433.6 C 344.8 429.6 344.7 425.5 345.5 421.5 C 346.3 417.6 347.9 413.8 349.1 409.8 C 350.2 405.9 351.1 401.9 352.4 398.1 C 353.7 394.2 355.2 390.4 356.9 386.7 C 358.7 382.9 360.6 379.2 362.8 375.7 C 365.1 372.2 367.6 368.7 370.6 365.7 C 373.6 362.7 377.3 360.2 380.9 357.7 C 384.6 355.3 388.4 352.7 392.4 351.0 C 396.5 349.3 400.9 348.2 405.3 347.6 C 409.7 346.9 414.6 346.8 419.1 347.0 C 423.6 347.2 428.2 347.6 432.4 348.9 C 436.7 350.2 440.6 352.5 444.5 354.7 C 448.4 356.9 452.2 359.2 455.5 362.0 C 458.8 364.7 462.0 367.9 464.2 371.3 C 466.5 374.8 467.7 378.8 469.2 382.6 C 470.6 386.5 472.1 390.4 472.7 394.3 Z" fill="url(#x0mo_neg_front)" fill-rule="evenodd" stroke="none"/>
  </g>
  <g opacity="0.70">
    <path d="M 286.6 420.6 C 287.7 424.5 287.0 428.8 287.2 432.9 C 287.3 437.0 288.5 441.3 287.6 445.2 C 286.8 449.2 284.1 452.9 282.1 456.6 C 280.2 460.3 278.2 464.1 275.7 467.5 C 273.2 471.0 270.5 474.5 267.4 477.5 C 264.3 480.5 260.6 483.1 256.9 485.6 C 253.1 488.1 249.1 490.3 245.2 492.5 C 241.2 494.7 237.4 497.3 233.1 498.7 C 228.8 500.2 224.1 500.6 219.5 501.3 C 214.9 502.0 210.2 503.0 205.6 502.9 C 200.9 502.8 196.4 501.8 191.9 500.9 C 187.3 499.9 182.8 498.7 178.5 497.1 C 174.2 495.5 170.0 493.6 166.1 491.3 C 162.3 489.1 158.7 486.3 155.3 483.5 C 152.0 480.6 148.8 477.5 146.2 474.1 C 143.6 470.8 141.5 467.0 139.7 463.3 C 137.9 459.5 136.3 455.6 135.2 451.6 C 134.1 447.7 133.4 443.6 133.1 439.5 C 132.7 435.5 132.6 431.3 132.8 427.2 C 133.1 423.1 133.4 419.0 134.4 415.0 C 135.4 411.1 136.9 407.1 138.6 403.3 C 140.4 399.5 142.2 395.7 144.7 392.3 C 147.2 388.8 150.4 385.7 153.5 382.7 C 156.7 379.7 160.1 376.8 163.8 374.3 C 167.5 371.8 171.3 369.2 175.5 367.5 C 179.7 365.9 184.6 365.4 189.1 364.5 C 193.7 363.6 198.3 362.0 202.9 362.1 C 207.5 362.2 212.0 364.0 216.6 365.0 C 221.1 366.0 225.9 366.5 230.2 368.1 C 234.5 369.6 238.3 372.1 242.3 374.3 C 246.2 376.5 250.1 378.8 253.8 381.3 C 257.5 383.8 261.2 386.5 264.4 389.4 C 267.7 392.3 270.6 395.6 273.3 398.9 C 276.0 402.3 278.4 405.8 280.7 409.4 C 282.9 413.1 285.5 416.7 286.6 420.6 Z" fill="url(#x0mo_pos_front)" fill-rule="evenodd" stroke="none"/>
  </g>
</svg>