<svg xmlns="http://www.w3.org/2000/svg" xmlns:xlink="http://www.w3.org/1999/xlink" width="800" height="729">
  <rect width="100%" height="100%" fill="#ffffff"/>
  <circle cx="560.2" cy="478.6" r="31.5" fill="#3b5af8" stroke="#0e0e0e" stroke-width="5.9"/>
  <line x1="532.1" y1="475.3" x2="459.3" y2="466.8" stroke="#050505" stroke-width="14.7" stroke-linecap="round"/>
  <line x1="575.6" y1="455.2" x2="617.0" y2="392.2" stroke="#040404" stroke-width="14.7" stroke-linecap="round"/>
  <line x1="571.7" y1="503.9" x2="604.1" y2="575.0" stroke="#030303" stroke-width="14.7" stroke-linecap="round"/>
  <circle cx="575.7" cy="245.6" r="31.5" fill="#3655f8" stroke="#070707" stroke-width="5.9"/>
  <line x1="547.7" y1="242.2" x2="472.2" y2="233.0" stroke="#020202" stroke-width="14.7" stroke-linecap="round"/>
  <line x1="587.8" y1="271.2" x2="620.5" y2="340.2" stroke="#020202" stroke-width="14.7" stroke-linecap="round"/>
  <line x1="592.6" y1="222.9" x2="640.0" y2="158.8" stroke="#020202" stroke-width="14.7" stroke-linecap="round"/>
  <circle cx="429.5" cy="463.3" r="33.4" fill="#acacac" stroke="#060606" stroke-width="5.9"/>
  <line x1="414.7" y1="491.0" x2="364.5" y2="541.9" stroke="#030303" stroke-width="10.3" stroke-linecap="round"/>
  <line x1="402.1" y1="478.5" x2="351.9" y2="529.4" stroke="#030303" stroke-width="10.3" stroke-linecap="round" stroke-dasharray="10.3,20.6"/>
  <line x1="408.4" y1="440.1" x2="377.8" y2="376.6" stroke="#020202" stroke-width="10.3" stroke-linecap="round" stroke-dasharray="10.3,20.6"/>
  <line x1="424.4" y1="432.4" x2="393.7" y2="368.9" stroke="#020202" stroke-width="10.3" stroke-linecap="round"/>
  <circle cx="338.3" cy="555.8" r="31.5" fill="#3454f8" stroke="#060606" stroke-width="5.9"/>
  <line x1="309.1" y1="550.8" x2="248.2" y2="519.5" stroke="#020202" stroke-width="10.3" stroke-linecap="round"/>
  <line x1="317.2" y1="535.0" x2="256.3" y2="503.8" stroke="#020202" stroke-width="10.3" stroke-linecap="round" stroke-dasharray="10.3,20.6"/>
  <circle cx="372.6" cy="345.7" r="33.4" fill="#ababab" stroke="#030303" stroke-width="5.9"/>
  <line x1="388.1" y1="319.9" x2="426.9" y2="255.1" stroke="#010101" stroke-width="14.7" stroke-linecap="round"/>
  <line x1="344.6" y1="359.8" x2="272.5" y2="373.1" stroke="#010101" stroke-width="10.3" stroke-linecap="round" stroke-dasharray="10.3,20.6"/>
  <line x1="341.4" y1="342.4" x2="269.3" y2="355.7" stroke="#010101" stroke-width="10.3" stroke-linecap="round"/>
  <circle cx="225.5" cy="497.9" r="33.4" fill="#ababab" stroke="#030303" stroke-width="5.9"/>
  <line x1="220.8" y1="466.9" x2="230.5" y2="396.4" stroke="#010101" stroke-width="10.3" stroke-linecap="round"/>
  <line x1="238.4" y1="469.3" x2="248.0" y2="398.8" stroke="#010101" stroke-width="10.3" stroke-linecap="round" stroke-dasharray="10.3,20.6"/>
  <circle cx="442.3" cy="229.3" r="33.4" fill="#ababab" stroke="#030303" stroke-width="5.9"/>
  <line x1="422.5" y1="205.1" x2="400.3" y2="152.6" stroke="#010101" stroke-width="10.3" stroke-linecap="round"/>
  <line x1="438.8" y1="198.2" x2="416.6" y2="145.7" stroke="#010101" stroke-width="10.3" stroke-linecap="round"/>
  <circle cx="243.0" cy="369.5" r="31.5" fill="#3151f8" stroke="#020202" stroke-width="5.9"/>
  <line x1="222.5" y1="350.0" x2="166.0" y2="296.4" stroke="#000000" stroke-width="14.7" stroke-linecap="round"/>
  <circle cx="633.4" cy="367.3" r="33.4" fill="#aaaaaa" stroke="#020202" stroke-width="5.9"/>
  <line x1="663.7" y1="360.8" x2="720.0" y2="365.1" stroke="#000000" stroke-width="10.3" stroke-linecap="round"/>
  <line x1="662.4" y1="378.4" x2="718.6" y2="382.8" stroke="#000000" stroke-width="10.3" stroke-linecap="round"/>
  <circle cx="657.9" cy="134.7" r="33.4" fill="#aaaaaa" stroke="#020202" stroke-width="5.9"/>
  <circle cx="398.0" cy="124.3" r="30.0" fill="#ff0e0e" stroke="#010101" stroke-width="5.9"/>
  <circle cx="616.4" cy="601.9" r="33.4" fill="#aaaaaa" stroke="#000000" stroke-width="5.9"/>
  <circle cx="144.2" cy="275.7" r="33.4" fill="#aaaaaa" stroke="#000000" stroke-width="5.9"/>
  <circle cx="745.9" cy="376.0" r="30.0" fill="#ff0d0d" stroke="#000000" stroke-width="5.9"/>
</svg>