<svg xmlns="http://www.w3.org/2000/svg" xmlns:xlink="http://www.w3.org/1999/xlink" width="711" height="800">
  <rect width="100%" height="100%" fill="#ffffff"/>
  <defs>
    <g id="x0a0"><radialGradient id="x0g0" cx=".5" cy=".5" fx=".33" fy=".33" r=".66"><stop offset="0%" stop-color="#c3c3c3"/><stop offset="100%" stop-color="#888888"/></radialGradient><circle cx="0" cy="0" r="48.0" fill="url(#x0g0)" stroke="#000000" stroke-width="8.5"/></g>
    <g id="x0a1"><radialGradient id="x0g1" cx=".5" cy=".5" fx=".33" fy=".33" r=".66"><stop offset="0%" stop-color="#c5c5c5"/><stop offset="100%" stop-color="#8d8d8d"/></radialGradient><circle cx="0" cy="0" r="48.0" fill="url(#x0g1)" stroke="#0f0f0f" stroke-width="8.5"/></g>
    <g id="x0a2"><radialGradient id="x0g2" cx=".5" cy=".5" fx=".33" fy=".33" r=".66"><stop offset="0%" stop-color="#c3c3c3"/><stop offset="100%" stop-color="#888888"/></radialGradient><circle cx="0" cy="0" r="48.0" fill="url(#x0g2)" stroke="#000000" stroke-width="8.5"/></g>
    <g id="x0a3"><radialGradient id="x0g3" cx=".5" cy=".5" fx=".33" fy=".33" r=".66"><stop offset="0%" stop-color="#c5c5c5"/><stop offset="100%" stop-color="#8d8d8d"/></radialGradient><circle cx="0" cy="0" r="48.0" fill="url(#x0g3)" stroke="#0f0f0f" stroke-width="8.5"/></g>
    <g id="x0a4"><radialGradient id="x0g4" cx=".5" cy=".5" fx=".33" fy=".33" r=".66"><stop offset="0%" stop-color="#c3c3c3"/><stop offset="100%" stop-color="#888888"/></radialGradient><circle cx="0" cy="0" r="48.0" fill="url(#x0g4)" stroke="#000000" stroke-width="8.5"/></g>
    <g id="x0a5"><radialGradient id="x0g5" cx=".5" cy=".5" fx=".33" fy=".33" r=".66"><stop offset="0%" stop-color="#c5c5c5"/><stop offset="100%" stop-color="#8d8d8d"/></radialGradient><circle cx="0" cy="0" r="48.0" fill="url(#x0g5)" stroke="#0f0f0f" stroke-width="8.5"/></g>
    <g id="x0a6"><radialGradient id="x0g6" cx=".5" cy=".5" fx=".33" fy=".33" r=".66"><stop offset="0%" stop-color="#ffffff"/><stop offset="100%" stop-color="#cdcdcd"/></radialGradient><circle cx="0" cy="0" r="25.2" fill="url(#x0g6)" stroke="#0c0c0c" stroke-width="8.5"/></g>
    <g id="x0a7"><radialGradient id="x0g7" cx=".5" cy=".5" fx=".33" fy=".33" r=".66"><stop offset="0%" stop-color="#ffffff"/><stop offset="100%" stop-color="#cccccc"/></radialGradient><circle cx="0" cy="0" r="25.2" fill="url(#x0g7)" stroke="#000000" stroke-width="8.5"/></g>
    <g id="x0a8"><radialGradient id="x0g8" cx=".5" cy=".5" fx=".33" fy=".33" r=".66"><stop offset="0%" stop-color="#ffffff"/><stop offset="100%" stop-color="#cccccc"/></radialGradient><circle cx="0" cy="0" r="25.2" fill="url(#x0g8)" stroke="#010101" stroke-width="8.5"/></g>
    <g id="x0a9"><radialGradient id="x0g9" cx=".5" cy=".5" fx=".33" fy=".33" r=".66"><stop offset="0%" stop-color="#ffffff"/><stop offset="100%" stop-color="#dfdfdf"/></radialGradient><circle cx="0" cy="0" r="25.2" fill="url(#x0g9)" stroke="#8d8d8d" stroke-width="8.5"/></g>
    <g id="x0a10"><radialGradient id="x0g10" cx=".5" cy=".5" fx=".33" fy=".33" r=".66"><stop offset="0%" stop-color="#ffffff"/><stop offset="100%" stop-color="#cccccc"/></radialGradient><circle cx="0" cy="0" r="25.2" fill="url(#x0g10)" stroke="#000000" stroke-width="8.5"/></g>
    <g id="x0a11"><radialGradient id="x0g11" cx=".5" cy=".5" fx=".33" fy=".33" r=".66"><stop offset="0%" stop-color="#ffffff"/><stop offset="100%" stop-color="#cdcdcd"/></radialGradient><circle cx="0" cy="0" r="25.2" fill="url(#x0g11)" stroke="#0c0c0c" stroke-width="8.5"/></g>
    <g id="x0a12"><radialGradient id="x0g12" cx=".5" cy=".5" fx=".33" fy=".33" r=".66"><stop offset="0%" stop-color="#ffffff"/><stop offset="100%" stop-color="#dfdfdf"/></radialGradient><circle cx="0" cy="0" r="25.2" fill="url(#x0g12)" stroke="#8d8d8d" stroke-width="8.5"/></g>
    <g id="x0a13"><radialGradient id="x0g13" cx=".5" cy=".5" fx=".33" fy=".33" r=".66"><stop offset="0%" stop-color="#ffffff"/><stop offset="100%" stop-color="#cccccc"/></radialGradient><circle cx="0" cy="0" r="25.2" fill="url(#x0g13)" stroke="#010101" stroke-width="8.5"/></g>
    <g id="x0a14"><radialGradient id="x0g14" cx=".5" cy=".5" fx=".33" fy=".33" r=".66"><stop offset="0%" stop-color="#ffffff"/><stop offset="100%" stop-color="#cccccc"/></radialGradient><circle cx="0" cy="0" r="25.2" fill="url(#x0g14)" stroke="#000000" stroke-width="8.5"/></g>
    <g id="x0a15"><radialGradient id="x0g15" cx=".5" cy=".5" fx=".33" fy=".33" r=".66"><stop offset="0%" stop-color="#ffffff"/><stop offset="100%" stop-color="#cdcdcd"/></radialGradient><circle cx="0" cy="0" r="25.2" fill="url(#x0g15)" stroke="#0c0c0c" stroke-width="8.5"/></g>
    <g id="x0a16"><radialGradient id="x0g16" cx=".5" cy=".5" fx=".33" fy=".33" r=".66"><stop offset="0%" stop-color="#ffffff"/><stop offset="100%" stop-color="#dfdfdf"/></radialGradient><circle cx="0" cy="0" r="25.2" fill="url(#x0g16)" stroke="#8d8d8d" stroke-width="8.5"/></g>
    <g id="x0a17"><radialGradient id="x0g17" cx=".5" cy=".5" fx=".33" fy=".33" r=".66"><stop offset="0%" stop-color="#ffffff"/><stop offset="100%" stop-color="#cccccc"/></radialGradient><circle cx="0" cy="0" r="25.2" fill="url(#x0g17)" stroke="#010101" stroke-width="8.5"/></g>
  </defs>
  <use x="176.4" y="503.4" xlink:href="#x0a16"/>
  <line x1="178.0" y1="502.5" x2="183.4" y2="499.4" stroke="#232323" stroke-width="21.2" stroke-linecap="round"/>
  <use x="355.5" y="193.2" xlink:href="#x0a12"/>
  <line x1="355.5" y1="195.0" x2="355.5" y2="201.3" stroke="#232323" stroke-width="21.2" stroke-linecap="round"/>
  <use x="534.6" y="503.4" xlink:href="#x0a9"/>
  <line x1="533.0" y1="502.5" x2="527.6" y2="499.3" stroke="#232323" stroke-width="21.2" stroke-linecap="round"/>
  <use x="186.3" y="497.7" xlink:href="#x0a5"/>
  <line x1="151.5" y1="517.8" x2="86.3" y2="555.4" stroke="#030303" stroke-width="21.2" stroke-linecap="round"/>
  <line x1="222.1" y1="518.3" x2="319.8" y2="574.7" stroke="#030303" stroke-width="21.2" stroke-linecap="round"/>
  <line x1="186.3" y1="456.4" x2="186.3" y2="343.6" stroke="#030303" stroke-width="21.2" stroke-linecap="round"/>
  <use x="355.5" y="204.7" xlink:href="#x0a3"/>
  <line x1="355.5" y1="164.5" x2="355.5" y2="89.1" stroke="#030303" stroke-width="21.2" stroke-linecap="round"/>
  <line x1="391.2" y1="225.3" x2="488.9" y2="281.7" stroke="#030303" stroke-width="21.2" stroke-linecap="round"/>
  <line x1="319.8" y1="225.3" x2="222.1" y2="281.7" stroke="#030303" stroke-width="21.2" stroke-linecap="round"/>
  <use x="524.7" y="497.7" xlink:href="#x0a1"/>
  <line x1="559.5" y1="517.8" x2="624.7" y2="555.4" stroke="#030303" stroke-width="21.2" stroke-linecap="round"/>
  <line x1="488.9" y1="518.3" x2="391.2" y2="574.7" stroke="#030303" stroke-width="21.2" stroke-linecap="round"/>
  <line x1="524.7" y1="456.4" x2="524.7" y2="343.6" stroke="#030303" stroke-width="21.2" stroke-linecap="round"/>
  <use x="355.5" y="732.0" xlink:href="#x0a6"/>
  <line x1="355.5" y1="710.9" x2="355.5" y2="635.5" stroke="#020202" stroke-width="21.2" stroke-linecap="round"/>
  <use x="643.0" y="234.0" xlink:href="#x0a11"/>
  <line x1="624.7" y1="244.6" x2="559.5" y2="282.2" stroke="#020202" stroke-width="21.2" stroke-linecap="round"/>
  <use x="68.0" y="234.0" xlink:href="#x0a15"/>
  <line x1="86.3" y1="244.6" x2="151.5" y2="282.2" stroke="#020202" stroke-width="21.2" stroke-linecap="round"/>
  <use x="355.5" y="68.0" xlink:href="#x0a13"/>
  <use x="68.0" y="566.0" xlink:href="#x0a17"/>
  <use x="643.0" y="566.0" xlink:href="#x0a8"/>
  <use x="355.5" y="595.3" xlink:href="#x0a0"/>
  <line x1="355.5" y1="598.7" x2="355.5" y2="605.0" stroke="#000000" stroke-width="21.2" stroke-linecap="round"/>
  <use x="524.7" y="302.3" xlink:href="#x0a2"/>
  <line x1="527.6" y1="300.6" x2="533.0" y2="297.5" stroke="#000000" stroke-width="21.2" stroke-linecap="round"/>
  <use x="186.3" y="302.3" xlink:href="#x0a4"/>
  <line x1="183.4" y1="300.7" x2="178.0" y2="297.5" stroke="#000000" stroke-width="21.2" stroke-linecap="round"/>
  <use x="355.5" y="606.8" xlink:href="#x0a7"/>
  <use x="534.6" y="296.6" xlink:href="#x0a10"/>
  <use x="176.4" y="296.6" xlink:href="#x0a14"/>
</svg>