<svg xmlns="http://www.w3.org/2000/svg" xmlns:xlink="http://www.w3.org/1999/xlink" width="800" height="451">
  <rect width="100%" height="100%" fill="#ffffff"/>
  <defs>
    <g id="x0a0"><radialGradient id="x0g0" cx=".5" cy=".5" fx=".33" fy=".33" r=".66"><stop offset="0%" stop-color="#c3c3c3"/><stop offset="100%" stop-color="#888888"/></radialGradient><circle cx="0" cy="0" r="59.0" fill="url(#x0g0)" stroke="#000000" stroke-width="10.4"/></g>
    <g id="x0a1"><radialGradient id="x0g1" cx=".5" cy=".5" fx=".33" fy=".33" r=".66"><stop offset="0%" stop-color="#c3c3c3"/><stop offset="100%" stop-color="#888888"/></radialGradient><circle cx="0" cy="0" r="59.0" fill="url(#x0g1)" stroke="#000000" stroke-width="10.4"/></g>
    <g id="x0a2"><radialGradient id="x0g2" cx=".5" cy=".5" fx=".33" fy=".33" r=".66"><stop offset="0%" stop-color="#ff5555"/><stop offset="100%" stop-color="#cc0a0a"/></radialGradient><circle cx="0" cy="0" r="52.9" fill="url(#x0g2)" stroke="#000000" stroke-width="10.4"/></g>
    <g id="x0a3"><radialGradient id="x0g3" cx=".5" cy=".5" fx=".33" fy=".33" r=".66"><stop offset="0%" stop-color="#ffffff"/><stop offset="100%" stop-color="#d6d6d6"/></radialGradient><circle cx="0" cy="0" r="31.0" fill="url(#x0g3)" stroke="#494949" stroke-width="10.4"/></g>
    <g id="x0a4"><radialGradient id="x0g4" cx=".5" cy=".5" fx=".33" fy=".33" r=".66"><stop offset="0%" stop-color="#ffffff"/><stop offset="100%" stop-color="#cccccc"/></radialGradient><circle cx="0" cy="0" r="31.0" fill="url(#x0g4)" stroke="#000000" stroke-width="10.4"/></g>
    <g id="x0a5"><radialGradient id="x0g5" cx=".5" cy=".5" fx=".33" fy=".33" r=".66"><stop offset="0%" stop-color="#ffffff"/><stop offset="100%" stop-color="#cccccc"/></radialGradient><circle cx="0" cy="0" r="31.0" fill="url(#x0g5)" stroke="#000000" stroke-width="10.4"/></g>
    <g id="x0a6"><radialGradient id="x0g6" cx=".5" cy=".5" fx=".33" fy=".33" r=".66"><stop offset="0%" stop-color="#ffffff"/><stop offset="100%" stop-color="#d5d5d5"/></radialGradient><circle cx="0" cy="0" r="31.0" fill="url(#x0g6)" stroke="#414141" stroke-width="10.4"/></g>
    <g id="x0a7"><radialGradient id="x0g7" cx=".5" cy=".5" fx=".33" fy=".33" r=".66"><stop offset="0%" stop-color="#ffffff"/><stop offset="100%" stop-color="#cccccc"/></radialGradient><circle cx="0" cy="0" r="31.0" fill="url(#x0g7)" stroke="#000000" stroke-width="10.4"/></g>
    <g id="x0a8"><radialGradient id="x0g8" cx=".5" cy=".5" fx=".33" fy=".33" r=".66"><stop offset="0%" stop-color="#ffffff"/><stop offset="100%" stop-color="#cccccc"/></radialGradient><circle cx="0" cy="0" r="31.0" fill="url(#x0g8)" stroke="#000000" stroke-width="10.4"/></g>
  </defs>
  <use x="159.2" y="352.6" xlink:href="#x0a3"/>
  <line x1="164.8" y1="338.7" x2="184.9" y2="288.9" stroke="#0a0a0a" stroke-width="26.0" stroke-linecap="round"/>
  <use x="458.2" y="80.6" xlink:href="#x0a6"/>
  <line x1="453.8" y1="96.7" x2="438.1" y2="154.5" stroke="#090909" stroke-width="26.0" stroke-linecap="round"/>
  <use x="573.1" y="368.2" xlink:href="#x0a2"/>
  <line x1="617.7" y1="351.4" x2="694.9" y2="322.3" stroke="#000000" stroke-width="26.0" stroke-linecap="round"/>
  <line x1="543.7" y1="330.7" x2="462.4" y2="226.9" stroke="#000000" stroke-width="26.0" stroke-linecap="round"/>
  <use x="721.0" y="312.5" xlink:href="#x0a8"/>
  <use x="429.7" y="185.1" xlink:href="#x0a1"/>
  <line x1="379.3" y1="201.8" x2="245.9" y2="245.9" stroke="#000000" stroke-width="26.0" stroke-linecap="round"/>
  <line x1="436.1" y1="154.2" x2="448.5" y2="95.2" stroke="#000000" stroke-width="26.0" stroke-linecap="round"/>
  <use x="195.5" y="262.6" xlink:href="#x0a0"/>
  <line x1="161.2" y1="222.1" x2="97.0" y2="146.3" stroke="#000000" stroke-width="26.0" stroke-linecap="round"/>
  <line x1="187.7" y1="295.0" x2="173.3" y2="355.0" stroke="#000000" stroke-width="26.0" stroke-linecap="round"/>
  <use x="79.0" y="125.0" xlink:href="#x0a5"/>
  <use x="169.2" y="372.1" xlink:href="#x0a4"/>
  <use x="451.9" y="78.9" xlink:href="#x0a7"/>
</svg>