<svg xmlns="http://www.w3.org/2000/svg" xmlns:xlink="http://www.w3.org/1999/xlink" width="800" height="400">
  <rect width="100%" height="100%" fill="#ffffff"/>
  <defs>
    <g id="x0a0"><radialGradient id="x0g0" cx=".5" cy=".5" fx=".33" fy=".33" r=".66"><stop offset="0%" stop-color="#c3c3c3"/><stop offset="100%" stop-color="#888888"/></radialGradient><circle cx="0" cy="0" r="38.0" fill="url(#x0g0)" stroke="#000000" stroke-width="6.7"/></g>
    <g id="x0a1"><radialGradient id="x0g1" cx=".5" cy=".5" fx=".33" fy=".33" r=".66"><stop offset="0%" stop-color="#ff5555"/><stop offset="100%" stop-color="#cc0a0a"/></radialGradient><circle cx="0" cy="0" r="34.1" fill="url(#x0g1)" stroke="#000000" stroke-width="6.7"/></g>
    <g id="x0a2"><radialGradient id="x0g2" cx=".5" cy=".5" fx=".33" fy=".33" r=".66"><stop offset="0%" stop-color="#ff7373"/><stop offset="100%" stop-color="#d53535"/></radialGradient><circle cx="0" cy="0" r="34.1" fill="url(#x0g2)" stroke="#404040" stroke-width="6.7"/></g>
    <g id="x0a3"><radialGradient id="x0g3" cx=".5" cy=".5" fx=".33" fy=".33" r=".66"><stop offset="0%" stop-color="#c3c3c3"/><stop offset="100%" stop-color="#898989"/></radialGradient><circle cx="0" cy="0" r="38.0" fill="url(#x0g3)" stroke="#050505" stroke-width="6.7"/></g>
    <g id="x0a4"><radialGradient id="x0g4" cx=".5" cy=".5" fx=".33" fy=".33" r=".66"><stop offset="0%" stop-color="#ffffff"/><stop offset="100%" stop-color="#d9d9d9"/></radialGradient><circle cx="0" cy="0" r="20.0" fill="url(#x0g4)" stroke="#5d5d5d" stroke-width="6.7"/></g>
    <g id="x0a5"><radialGradient id="x0g5" cx=".5" cy=".5" fx=".33" fy=".33" r=".66"><stop offset="0%" stop-color="#ffffff"/><stop offset="100%" stop-color="#cdcdcd"/></radialGradient><circle cx="0" cy="0" r="20.0" fill="url(#x0g5)" stroke="#0b0b0b" stroke-width="6.7"/></g>
    <g id="x0a6"><radialGradient id="x0g6" cx=".5" cy=".5" fx=".33" fy=".33" r=".66"><stop offset="0%" stop-color="#ffffff"/><stop offset="100%" stop-color="#cccccc"/></radialGradient><circle cx="0" cy="0" r="20.0" fill="url(#x0g6)" stroke="#000000" stroke-width="6.7"/></g>
    <g id="x0a7"><radialGradient id="x0g7" cx=".5" cy=".5" fx=".33" fy=".33" r=".66"><stop offset="0%" stop-color="#ffffff"/><stop offset="100%" stop-color="#d1d1d1"/></radialGradient><circle cx="0" cy="0" r="20.0" fill="url(#x0g7)" stroke="#252525" stroke-width="6.7"/></g>
    <g id="x0a8"><radialGradient id="x0g8" cx=".5" cy=".5" fx=".33" fy=".33" r=".66"><stop offset="0%" stop-color="#6e84fa"/><stop offset="100%" stop-color="#2740c6"/></radialGradient><circle cx="0" cy="0" r="35.8" fill="url(#x0g8)" stroke="#010101" stroke-width="6.7"/></g>
    <g id="x0a9"><radialGradient id="x0g9" cx=".5" cy=".5" fx=".33" fy=".33" r=".66"><stop offset="0%" stop-color="#ffffff"/><stop offset="100%" stop-color="#cccccc"/></radialGradient><circle cx="0" cy="0" r="20.0" fill="url(#x0g9)" stroke="#000000" stroke-width="6.7"/></g>
    <g id="x0a10"><radialGradient id="x0g10" cx=".5" cy=".5" fx=".33" fy=".33" r=".66"><stop offset="0%" stop-color="#ffffff"/><stop offset="100%" stop-color="#cdcdcd"/></radialGradient><circle cx="0" cy="0" r="20.0" fill="url(#x0g10)" stroke="#0a0a0a" stroke-width="6.7"/></g>
    <g id="x0a11"><radialGradient id="x0g11" cx=".5" cy=".5" fx=".33" fy=".33" r=".66"><stop offset="0%" stop-color="#c4c4c4"/><stop offset="100%" stop-color="#8b8b8b"/></radialGradient><circle cx="0" cy="0" r="38.0" fill="url(#x0g11)" stroke="#090909" stroke-width="6.7"/></g>
    <g id="x0a12"><radialGradient id="x0g12" cx=".5" cy=".5" fx=".33" fy=".33" r=".66"><stop offset="0%" stop-color="#ffffff"/><stop offset="100%" stop-color="#dedede"/></radialGradient><circle cx="0" cy="0" r="20.0" fill="url(#x0g12)" stroke="#818181" stroke-width="6.7"/></g>
    <g id="x0a13"><radialGradient id="x0g13" cx=".5" cy=".5" fx=".33" fy=".33" r=".66"><stop offset="0%" stop-color="#ffffff"/><stop offset="100%" stop-color="#cccccc"/></radialGradient><circle cx="0" cy="0" r="20.0" fill="url(#x0g13)" stroke="#000000" stroke-width="6.7"/></g>
    <g id="x0a14"><radialGradient id="x0g14" cx=".5" cy=".5" fx=".33" fy=".33" r=".66"><stop offset="0%" stop-color="#ffffff"/><stop offset="100%" stop-color="#cccccc"/></radialGradient><circle cx="0" cy="0" r="20.0" fill="url(#x0g14)" stroke="#000000" stroke-width="6.7"/></g>
  </defs>
  <use x="661.2" y="111.8" xlink:href="#x0a12"/>
  <line x1="658.7" y1="114.3" x2="649.6" y2="123.1" stroke="#1d1d1d" stroke-width="16.8" stroke-linecap="round"/>
  <use x="95.2" y="122.3" xlink:href="#x0a4"/>
  <line x1="97.4" y1="131.5" x2="105.2" y2="163.6" stroke="#141414" stroke-width="16.8" stroke-linecap="round"/>
  <use x="331.5" y="260.9" xlink:href="#x0a2"/>
  <line x1="361.1" y1="264.3" x2="417.1" y2="270.7" stroke="#1c1c1c" stroke-width="16.8" stroke-linecap="round"/>
  <line x1="316.7" y1="247.5" x2="280.1" y2="214.5" stroke="#090909" stroke-width="16.8" stroke-linecap="round"/>
  <use x="434.4" y="272.7" xlink:href="#x0a7"/>
  <line x1="451.2" y1="272.9" x2="569.5" y2="273.9" stroke="#070707" stroke-width="16.8" stroke-linecap="round" stroke-dasharray="1.3,33.5"/>
  <use x="60.2" y="284.5" xlink:href="#x0a5"/>
  <line x1="67.9" y1="268.4" x2="94.8" y2="211.6" stroke="#040404" stroke-width="16.8" stroke-linecap="round"/>
  <use x="677.5" y="342.1" xlink:href="#x0a10"/>
  <line x1="664.3" y1="330.7" x2="622.9" y2="294.6" stroke="#020202" stroke-width="16.8" stroke-linecap="round"/>
  <use x="644.7" y="127.9" xlink:href="#x0a11"/>
  <line x1="634.7" y1="160.1" x2="608.8" y2="243.8" stroke="#020202" stroke-width="16.8" stroke-linecap="round"/>
  <line x1="619.6" y1="107.1" x2="573.4" y2="68.8" stroke="#010101" stroke-width="16.8" stroke-linecap="round"/>
  <line x1="673.4" y1="119.6" x2="726.9" y2="104.2" stroke="#010101" stroke-width="16.8" stroke-linecap="round"/>
  <use x="109.4" y="181.0" xlink:href="#x0a3"/>
  <line x1="142.7" y1="185.0" x2="230.3" y2="195.6" stroke="#010101" stroke-width="16.8" stroke-linecap="round"/>
  <line x1="94.1" y1="164.4" x2="66.0" y2="133.9" stroke="#000000" stroke-width="16.8" stroke-linecap="round"/>
  <use x="599.4" y="274.2" xlink:href="#x0a8"/>
  <line x1="592.6" y1="278.0" x2="580.5" y2="284.7" stroke="#000000" stroke-width="16.8" stroke-linecap="round"/>
  <use x="560.3" y="57.9" xlink:href="#x0a13"/>
  <use x="263.6" y="199.6" xlink:href="#x0a0"/>
  <line x1="273.6" y1="181.5" x2="302.1" y2="163.7" stroke="#000000" stroke-width="11.7" stroke-linecap="round"/>
  <line x1="284.3" y1="198.5" x2="312.8" y2="180.7" stroke="#000000" stroke-width="11.7" stroke-linecap="round"/>
  <use x="742.0" y="99.9" xlink:href="#x0a14"/>
  <use x="58.0" y="125.2" xlink:href="#x0a6"/>
  <use x="576.7" y="286.9" xlink:href="#x0a9"/>
  <use x="321.2" y="163.6" xlink:href="#x0a1"/>
</svg>