<svg xmlns="http://www.w3.org/2000/svg" xmlns:xlink="http://www.w3.org/1999/xlink" width="734" height="800">
  <rect width="100%" height="100%" fill="#ffffff"/>
  <defs>
    <g id="x0a0"><radialGradient id="x0g0" cx=".5" cy=".5" fx=".33" fy=".33" r=".66"><stop offset="0%" stop-color="#c7c7c7"/><stop offset="100%" stop-color="#909090"/></radialGradient><circle cx="0" cy="0" r="30.7" fill="url(#x0g0)" stroke="#191919" stroke-width="5.4"/></g>
    <g id="x0a1"><radialGradient id="x0g1" cx=".5" cy=".5" fx=".33" fy=".33" r=".66"><stop offset="0%" stop-color="#c3c3c3"/><stop offset="100%" stop-color="#888888"/></radialGradient><circle cx="0" cy="0" r="30.7" fill="url(#x0g1)" stroke="#000000" stroke-width="5.4"/></g>
    <g id="x0a2"><radialGradient id="x0g2" cx=".5" cy=".5" fx=".33" fy=".33" r=".66"><stop offset="0%" stop-color="#c3c3c3"/><stop offset="100%" stop-color="#888888"/></radialGradient><circle cx="0" cy="0" r="30.7" fill="url(#x0g2)" stroke="#000000" stroke-width="5.4"/></g>
    <g id="x0a3"><radialGradient id="x0g3" cx=".5" cy=".5" fx=".33" fy=".33" r=".66"><stop offset="0%" stop-color="#c7c7c7"/><stop offset="100%" stop-color="#909090"/></radialGradient><circle cx="0" cy="0" r="30.7" fill="url(#x0g3)" stroke="#191919" stroke-width="5.4"/></g>
    <g id="x0a4"><radialGradient id="x0g4" cx=".5" cy=".5" fx=".33" fy=".33" r=".66"><stop offset="0%" stop-color="#d5d5d5"/><stop offset="100%" stop-color="#ababab"/></radialGradient><circle cx="0" cy="0" r="30.7" fill="url(#x0g4)" stroke="#6d6d6d" stroke-width="5.4"/></g>
    <g id="x0a5"><radialGradient id="x0g5" cx=".5" cy=".5" fx=".33" fy=".33" r=".66"><stop offset="0%" stop-color="#d5d5d5"/><stop offset="100%" stop-color="#ababab"/></radialGradient><circle cx="0" cy="0" r="30.7" fill="url(#x0g5)" stroke="#6e6e6e" stroke-width="5.4"/></g>
    <g id="x0a6"><radialGradient id="x0g6" cx=".5" cy=".5" fx=".33" fy=".33" r=".66"><stop offset="0%" stop-color="#ff6161"/><stop offset="100%" stop-color="#cf1b1b"/></radialGradient><circle cx="0" cy="0" r="27.5" fill="url(#x0g6)" stroke="#191919" stroke-width="5.4"/></g>
    <g id="x0a7"><radialGradient id="x0g7" cx=".5" cy=".5" fx=".33" fy=".33" r=".66"><stop offset="0%" stop-color="#ffffff"/><stop offset="100%" stop-color="#cfcfcf"/></radialGradient><circle cx="0" cy="0" r="16.1" fill="url(#x0g7)" stroke="#191919" stroke-width="5.4"/></g>
    <g id="x0a13"><radialGradient id="x0g13" cx=".5" cy=".5" fx=".33" fy=".33" r=".66"><stop offset="0%" stop-color="#c7c7c7"/><stop offset="100%" stop-color="#909090"/></radialGradient><circle cx="0" cy="0" r="30.7" fill="url(#x0g13)" stroke="#191919" stroke-width="5.4"/></g>
    <g id="x0a14"><radialGradient id="x0g14" cx=".5" cy=".5" fx=".33" fy=".33" r=".66"><stop offset="0%" stop-color="#c3c3c3"/><stop offset="100%" stop-color="#888888"/></radialGradient><circle cx="0" cy="0" r="30.7" fill="url(#x0g14)" stroke="#000000" stroke-width="5.4"/></g>
    <g id="x0a15"><radialGradient id="x0g15" cx=".5" cy=".5" fx=".33" fy=".33" r=".66"><stop offset="0%" stop-color="#c3c3c3"/><stop offset="100%" stop-color="#888888"/></radialGradient><circle cx="0" cy="0" r="30.7" fill="url(#x0g15)" stroke="#000000" stroke-width="5.4"/></g>
    <g id="x0a16"><radialGradient id="x0g16" cx=".5" cy=".5" fx=".33" fy=".33" r=".66"><stop offset="0%" stop-color="#c7c7c7"/><stop offset="100%" stop-color="#909090"/></radialGradient><circle cx="0" cy="0" r="30.7" fill="url(#x0g16)" stroke="#191919" stroke-width="5.4"/></g>
    <g id="x0a17"><radialGradient id="x0g17" cx=".5" cy=".5" fx=".33" fy=".33" r=".66"><stop offset="0%" stop-color="#d5d5d5"/><stop offset="100%" stop-color="#ababab"/></radialGradient><circle cx="0" cy="0" r="30.7" fill="url(#x0g17)" stroke="#6d6d6d" stroke-width="5.4"/></g>
    <g id="x0a18"><radialGradient id="x0g18" cx=".5" cy=".5" fx=".33" fy=".33" r=".66"><stop offset="0%" stop-color="#d5d5d5"/><stop offset="100%" stop-color="#ababab"/></radialGradient><circle cx="0" cy="0" r="30.7" fill="url(#x0g18)" stroke="#6d6d6d" stroke-width="5.4"/></g>
    <g id="x0a19"><radialGradient id="x0g19" cx=".5" cy=".5" fx=".33" fy=".33" r=".66"><stop offset="0%" stop-color="#ff6161"/><stop offset="100%" stop-color="#cf1b1b"/></radialGradient><circle cx="0" cy="0" r="27.5" fill="url(#x0g19)" stroke="#191919" stroke-width="5.4"/></g>
    <g id="x0a20"><radialGradient id="x0g20" cx=".5" cy=".5" fx=".33" fy=".33" r=".66"><stop offset="0%" stop-color="#ffffff"/><stop offset="100%" stop-color="#cfcfcf"/></radialGradient><circle cx="0" cy="0" r="16.1" fill="url(#x0g20)" stroke="#191919" stroke-width="5.4"/></g>
  </defs>
  <use x="500.5" y="419.1" xlink:href="#x0a5"/>
  <line x1="500.3" y1="447.9" x2="482.2" y2="508.5" stroke="#3d3d3d" stroke-width="9.5" stroke-linecap="round"/>
  <line x1="484.8" y1="443.2" x2="466.7" y2="503.8" stroke="#3d3d3d" stroke-width="9.5" stroke-linecap="round" stroke-dasharray="9.5,18.9"/>
  <line x1="496.5" y1="403.7" x2="505.4" y2="373.3" stroke="#222222" stroke-width="9.5" stroke-linecap="round" stroke-dasharray="9.5,18.9"/>
  <line x1="512.1" y1="408.2" x2="521.0" y2="377.9" stroke="#222222" stroke-width="9.5" stroke-linecap="round"/>
  <use x="233.9" y="310.9" xlink:href="#x0a18"/>
  <line x1="228.0" y1="339.0" x2="198.1" y2="394.7" stroke="#3d3d3d" stroke-width="9.5" stroke-linecap="round" stroke-dasharray="9.5,18.9"/>
  <line x1="213.7" y1="331.4" x2="183.8" y2="387.0" stroke="#3d3d3d" stroke-width="9.5" stroke-linecap="round"/>
  <line x1="233.5" y1="294.8" x2="248.9" y2="266.7" stroke="#222222" stroke-width="9.5" stroke-linecap="round"/>
  <line x1="247.7" y1="302.6" x2="263.1" y2="274.5" stroke="#222222" stroke-width="9.5" stroke-linecap="round" stroke-dasharray="9.5,18.9"/>
  <use x="466.5" y="532.6" xlink:href="#x0a4"/>
  <line x1="470.4" y1="548.1" x2="461.3" y2="578.5" stroke="#222222" stroke-width="9.5" stroke-linecap="round"/>
  <line x1="454.8" y1="543.5" x2="445.7" y2="573.8" stroke="#222222" stroke-width="9.5" stroke-linecap="round" stroke-dasharray="9.5,18.9"/>
  <use x="177.8" y="415.2" xlink:href="#x0a17"/>
  <line x1="178.5" y1="431.2" x2="163.7" y2="459.3" stroke="#222222" stroke-width="9.5" stroke-linecap="round" stroke-dasharray="9.5,18.9"/>
  <line x1="164.2" y1="423.6" x2="149.3" y2="451.7" stroke="#222222" stroke-width="9.5" stroke-linecap="round"/>
  <use x="544.7" y="246.5" xlink:href="#x0a6"/>
  <line x1="538.9" y1="270.6" x2="523.5" y2="335.6" stroke="#0e0e0e" stroke-width="13.5" stroke-linecap="round"/>
  <line x1="569.3" y1="243.4" x2="612.0" y2="238.0" stroke="#0e0e0e" stroke-width="13.5" stroke-linecap="round"/>
  <use x="517.1" y="362.4" xlink:href="#x0a0"/>
  <line x1="521.0" y1="377.9" x2="512.1" y2="408.2" stroke="#030303" stroke-width="9.5" stroke-linecap="round"/>
  <line x1="505.4" y1="373.3" x2="496.5" y2="403.7" stroke="#030303" stroke-width="9.5" stroke-linecap="round" stroke-dasharray="9.5,18.9"/>
  <use x="398.2" y="164.5" xlink:href="#x0a20"/>
  <line x1="383.8" y1="162.6" x2="340.6" y2="156.7" stroke="#0e0e0e" stroke-width="13.5" stroke-linecap="round"/>
  <use x="316.1" y="153.3" xlink:href="#x0a19"/>
  <line x1="304.9" y1="175.4" x2="275.2" y2="233.8" stroke="#0e0e0e" stroke-width="13.5" stroke-linecap="round"/>
  <use x="449.5" y="589.4" xlink:href="#x0a3"/>
  <line x1="445.7" y1="573.8" x2="454.8" y2="543.5" stroke="#030303" stroke-width="9.5" stroke-linecap="round" stroke-dasharray="9.5,18.9"/>
  <line x1="461.3" y1="578.5" x2="470.4" y2="548.1" stroke="#030303" stroke-width="9.5" stroke-linecap="round"/>
  <use x="262.7" y="258.4" xlink:href="#x0a13"/>
  <line x1="263.1" y1="274.5" x2="247.7" y2="302.6" stroke="#030303" stroke-width="9.5" stroke-linecap="round" stroke-dasharray="9.5,18.9"/>
  <line x1="248.9" y1="266.7" x2="233.5" y2="294.8" stroke="#030303" stroke-width="9.5" stroke-linecap="round"/>
  <use x="626.4" y="236.2" xlink:href="#x0a7"/>
  <use x="150.0" y="467.7" xlink:href="#x0a16"/>
  <line x1="149.3" y1="451.7" x2="164.2" y2="423.6" stroke="#030303" stroke-width="9.5" stroke-linecap="round"/>
  <line x1="163.7" y1="459.3" x2="178.5" y2="431.2" stroke="#030303" stroke-width="9.5" stroke-linecap="round" stroke-dasharray="9.5,18.9"/>
  <path d="M 423.5 257.1 C 424.4 258.6 425.0 260.3 425.5 261.9 C 426.0 263.6 426.3 265.3 426.5 267.1 C 426.7 268.8 426.7 270.6 426.7 272.4 C 426.7 274.1 426.6 275.9 426.3 277.6 C 426.1 279.4 425.7 281.1 425.2 282.8 C 424.7 284.5 424.2 286.2 423.5 287.7 C 422.7 289.3 421.6 290.6 420.7 292.1 C 419.8 293.5 418.8 295.0 417.9 296.4 C 416.9 297.8 416.0 299.3 415.0 300.7 C 414.1 302.1 413.0 303.4 412.1 304.9 C 411.1 306.3 410.2 307.8 409.4 309.3 C 408.6 310.8 408.0 312.5 407.3 314.0 C 406.5 315.6 405.9 317.2 405.2 318.8 C 404.4 320.4 403.7 322.0 403.0 323.5 C 402.2 325.1 401.4 326.6 400.8 328.3 C 400.1 329.9 399.6 331.6 399.2 333.3 C 398.7 334.9 398.3 336.7 397.9 338.4 C 397.5 340.1 397.1 341.8 396.7 343.5 C 396.2 345.2 395.9 346.9 395.4 348.6 C 394.9 350.3 394.3 351.9 393.6 353.6 C 393.0 355.2 392.1 356.7 391.4 358.3 C 390.7 359.8 390.0 361.4 389.3 363.0 C 388.6 364.6 387.9 366.2 387.3 367.8 C 386.6 369.4 385.9 371.1 385.2 372.7 C 384.5 374.2 383.8 375.8 383.1 377.4 C 382.3 379.0 381.5 380.5 380.9 382.1 C 380.2 383.7 379.7 385.4 379.2 387.1 C 378.8 388.8 378.4 390.5 378.0 392.2 C 377.6 393.9 377.2 395.6 376.7 397.3 C 376.3 399.0 376.0 400.8 375.5 402.4 C 375.0 404.1 374.4 405.8 373.8 407.4 C 373.1 409.0 372.2 410.5 371.5 412.1 C 370.8 413.7 370.1 415.3 369.4 416.9 C 368.7 418.4 368.0 420.1 367.4 421.7 C 366.7 423.3 366.1 424.9 365.3 426.5 C 364.6 428.1 363.8 429.6 363.0 431.2 C 362.3 432.7 361.4 434.2 360.7 435.8 C 359.9 437.3 359.2 438.9 358.5 440.5 C 357.9 442.1 357.2 443.8 356.5 445.4 C 355.8 447.0 355.2 448.6 354.5 450.1 C 353.7 451.7 352.9 453.3 352.2 454.8 C 351.5 456.4 350.8 458.0 350.2 459.7 C 349.6 461.3 349.2 463.0 348.8 464.7 C 348.3 466.4 347.9 468.1 347.5 469.8 C 347.1 471.5 346.7 473.2 346.2 474.9 C 345.7 476.6 345.3 478.4 344.7 480.0 C 344.0 481.6 343.1 483.1 342.2 484.5 C 341.3 486.0 340.2 487.3 339.2 488.7 C 338.3 490.1 337.3 491.5 336.2 492.9 C 335.2 494.2 334.0 495.4 332.9 496.7 C 331.8 498.0 330.5 499.1 329.5 500.4 C 328.4 501.7 327.4 503.2 326.4 504.6 C 325.4 505.9 324.4 507.3 323.5 508.8 C 322.5 510.2 321.6 511.6 320.9 513.2 C 320.1 514.8 319.6 516.5 319.1 518.1 C 318.6 519.8 318.2 521.5 317.8 523.2 C 317.3 524.9 316.9 526.6 316.5 528.4 C 316.1 530.1 315.7 531.8 315.1 533.4 C 314.6 535.1 313.9 536.7 313.2 538.3 C 312.5 539.9 311.7 541.4 310.9 542.9 C 310.1 544.5 309.4 546.0 308.5 547.6 C 307.7 549.1 306.8 550.6 305.8 551.9 C 304.8 553.3 303.8 554.7 302.6 555.8 C 301.3 556.8 299.8 557.6 298.3 558.2 C 296.8 558.9 295.2 559.5 293.7 559.7 C 292.1 559.8 290.5 559.4 289.0 558.9 C 287.4 558.4 285.8 557.8 284.5 556.8 C 283.3 555.8 282.1 554.4 281.3 552.9 C 280.4 551.5 279.8 549.7 279.3 548.1 C 278.8 546.4 278.6 544.7 278.4 542.9 C 278.2 541.2 278.2 539.4 278.2 537.6 C 278.3 535.8 278.4 534.1 278.7 532.3 C 278.9 530.6 279.3 528.9 279.7 527.2 C 280.1 525.5 280.6 523.8 281.2 522.1 C 281.7 520.5 282.6 518.9 283.2 517.3 C 283.9 515.7 284.6 514.1 285.1 512.4 C 285.6 510.8 286.0 509.1 286.5 507.4 C 286.9 505.7 287.3 503.9 287.7 502.2 C 288.1 500.5 288.5 498.8 288.9 497.1 C 289.4 495.4 289.8 493.7 290.3 492.0 C 290.9 490.4 291.7 488.8 292.4 487.2 C 293.1 485.6 293.9 484.1 294.6 482.5 C 295.3 480.9 296.0 479.3 296.6 477.7 C 297.3 476.1 298.0 474.5 298.7 472.9 C 299.3 471.3 300.0 469.7 300.7 468.1 C 301.4 466.5 302.3 465.0 303.0 463.4 C 303.7 461.8 304.4 460.2 305.0 458.6 C 305.6 456.9 305.9 455.2 306.3 453.5 C 306.8 451.8 307.2 450.1 307.6 448.4 C 308.0 446.7 308.4 445.0 308.8 443.3 C 309.3 441.6 309.6 439.8 310.2 438.2 C 310.8 436.5 311.5 435.0 312.3 433.4 C 313.0 431.8 313.8 430.3 314.5 428.7 C 315.2 427.1 315.9 425.5 316.5 423.9 C 317.2 422.3 317.9 420.7 318.6 419.1 C 319.3 417.5 319.9 415.9 320.7 414.3 C 321.4 412.7 322.3 411.2 323.1 409.7 C 323.9 408.1 324.6 406.6 325.4 405.0 C 326.1 403.4 326.7 401.8 327.4 400.2 C 328.1 398.6 328.7 397.0 329.4 395.4 C 330.1 393.8 330.8 392.2 331.6 390.6 C 332.3 389.1 333.1 387.5 333.8 385.9 C 334.4 384.3 335.0 382.7 335.5 381.0 C 336.0 379.3 336.4 377.6 336.8 375.9 C 337.2 374.2 337.6 372.4 338.0 370.7 C 338.4 369.0 338.8 367.3 339.3 365.6 C 339.8 363.9 340.3 362.3 340.9 360.6 C 341.5 359.0 342.4 357.5 343.1 355.9 C 343.8 354.3 344.6 352.8 345.3 351.2 C 346.0 349.6 346.6 348.0 347.3 346.4 C 348.0 344.8 348.6 343.1 349.3 341.5 C 350.0 339.9 350.7 338.4 351.4 336.8 C 352.2 335.2 353.0 333.7 353.7 332.1 C 354.3 330.5 354.9 328.8 355.4 327.1 C 355.9 325.5 356.3 323.7 356.7 322.0 C 357.1 320.3 357.5 318.6 357.9 316.9 C 358.3 315.2 358.7 313.5 359.2 311.8 C 359.7 310.1 360.2 308.4 360.8 306.8 C 361.4 305.2 362.3 303.7 363.0 302.1 C 363.8 300.5 364.6 299.0 365.3 297.4 C 366.1 295.9 366.9 294.3 367.8 292.8 C 368.6 291.3 369.5 289.8 370.4 288.4 C 371.4 287.0 372.5 285.7 373.7 284.5 C 374.8 283.3 376.1 282.2 377.3 281.0 C 378.5 279.8 379.8 278.7 380.9 277.4 C 382.0 276.2 383.0 274.8 383.9 273.3 C 384.7 271.8 385.3 270.1 386.0 268.5 C 386.7 266.9 387.3 265.3 387.9 263.7 C 388.6 262.1 389.2 260.4 390.1 258.9 C 390.9 257.4 391.8 255.9 393.0 254.7 C 394.1 253.6 395.6 252.7 397.0 251.9 C 398.4 251.1 400.0 250.4 401.5 250.0 C 403.1 249.7 404.7 249.7 406.3 249.6 C 407.9 249.5 409.6 249.5 411.2 249.7 C 412.8 249.9 414.3 250.4 415.8 251.0 C 417.3 251.6 419.0 252.2 420.2 253.2 C 421.5 254.2 422.6 255.7 423.5 257.1 Z" fill="#35c42f" fill-rule="evenodd" stroke="none" opacity="1.000"/>
  <path d="M 242.7 371.4 C 243.3 373.0 243.7 374.7 244.1 376.4 C 244.5 378.1 244.9 379.9 244.9 381.6 C 245.0 383.4 244.9 385.1 244.5 386.7 C 244.0 388.4 243.1 389.9 242.2 391.4 C 241.4 392.9 240.5 394.5 239.4 395.7 C 238.3 397.0 236.9 397.9 235.5 398.8 C 234.1 399.7 232.6 400.4 231.1 401.1 C 229.6 401.8 228.2 402.6 226.6 403.1 C 225.1 403.6 223.4 403.7 221.8 404.0 C 220.2 404.2 218.6 404.9 217.0 404.7 C 215.5 404.5 214.0 403.5 212.5 402.9 C 211.0 402.3 209.4 401.7 208.0 400.9 C 206.6 400.1 205.2 399.1 203.9 398.2 C 202.5 397.2 201.3 396.0 199.9 395.1 C 198.6 394.1 197.2 393.2 195.8 392.4 C 194.4 391.5 192.9 390.8 191.4 390.0 C 190.0 389.2 188.5 388.5 187.1 387.7 C 185.6 386.9 184.2 386.0 182.8 385.1 C 181.4 384.3 180.0 383.4 178.6 382.5 C 177.2 381.6 175.8 380.7 174.4 379.8 C 173.1 378.8 171.7 377.9 170.4 376.8 C 169.2 375.7 167.8 374.7 166.8 373.3 C 165.9 371.9 165.3 370.2 164.7 368.5 C 164.0 366.9 163.3 365.3 163.0 363.6 C 162.7 361.9 162.8 360.1 162.7 358.3 C 162.7 356.5 162.5 354.7 162.7 353.0 C 162.9 351.2 163.4 349.5 164.0 347.9 C 164.5 346.2 165.1 344.5 165.9 343.0 C 166.8 341.5 167.8 340.2 169.0 339.0 C 170.2 337.8 171.6 336.9 173.0 336.0 C 174.4 335.2 175.8 334.3 177.4 333.7 C 178.9 333.1 180.5 332.9 182.1 332.6 C 183.7 332.3 185.3 331.7 186.9 331.9 C 188.4 332.0 189.9 332.8 191.5 333.4 C 193.0 333.9 194.5 334.6 196.0 335.4 C 197.4 336.1 198.8 337.1 200.1 338.0 C 201.5 339.0 202.7 340.1 204.1 341.1 C 205.4 342.1 206.8 343.0 208.2 343.9 C 209.6 344.7 211.1 345.4 212.6 346.2 C 214.0 347.0 215.5 347.7 216.9 348.5 C 218.4 349.3 219.8 350.2 221.2 351.1 C 222.6 351.9 224.0 352.8 225.4 353.7 C 226.8 354.6 228.2 355.4 229.6 356.3 C 231.0 357.2 232.4 358.2 233.7 359.2 C 235.0 360.2 236.4 361.2 237.5 362.5 C 238.6 363.7 239.4 365.3 240.3 366.8 C 241.2 368.3 242.0 369.8 242.7 371.4 Z" fill="#761805" fill-rule="evenodd" stroke="none" opacity="1.000"/>
  <path d="M 520.4 483.5 C 520.9 485.2 521.5 486.9 521.7 488.6 C 521.8 490.3 521.5 492.0 521.2 493.7 C 520.8 495.4 520.2 497.1 519.5 498.6 C 518.7 500.2 517.8 501.6 516.7 502.8 C 515.6 504.1 514.2 505.0 512.8 505.9 C 511.4 506.8 510.0 507.7 508.5 508.3 C 507.0 509.0 505.5 509.3 503.9 509.7 C 502.4 510.1 500.8 510.7 499.2 510.8 C 497.6 510.9 496.0 510.6 494.4 510.4 C 492.9 510.2 491.3 509.8 489.7 509.5 C 488.1 509.2 486.5 508.8 485.0 508.5 C 483.4 508.1 481.8 507.8 480.3 507.4 C 478.7 507.0 477.1 506.7 475.5 506.3 C 474.0 506.0 472.4 505.6 470.8 505.2 C 469.3 504.8 467.7 504.4 466.1 504.1 C 464.6 503.7 463.0 503.2 461.4 502.8 C 459.9 502.4 458.3 502.0 456.7 501.7 C 455.2 501.4 453.5 501.3 452.0 500.9 C 450.4 500.5 448.8 500.1 447.4 499.5 C 445.9 498.8 444.6 497.8 443.2 496.8 C 441.9 495.9 440.5 494.9 439.4 493.6 C 438.3 492.4 437.2 491.0 436.5 489.5 C 435.7 488.0 435.5 486.2 435.1 484.5 C 434.6 482.8 434.1 481.1 433.9 479.4 C 433.7 477.6 433.9 475.8 433.9 474.1 C 433.9 472.3 433.8 470.5 434.0 468.8 C 434.3 467.1 434.9 465.4 435.6 463.8 C 436.2 462.2 436.8 460.5 437.8 459.2 C 438.8 457.8 440.1 456.7 441.4 455.8 C 442.7 454.8 444.2 454.1 445.7 453.5 C 447.2 452.9 448.8 452.6 450.4 452.3 C 452.0 452.0 453.6 452.0 455.2 451.9 C 456.8 451.9 458.4 451.8 460.0 451.8 C 461.6 451.8 463.2 451.9 464.8 452.0 C 466.4 452.1 468.0 452.1 469.6 452.3 C 471.2 452.5 472.8 452.9 474.4 453.2 C 476.0 453.5 477.5 453.8 479.1 454.2 C 480.7 454.5 482.3 454.9 483.8 455.2 C 485.4 455.6 487.0 456.1 488.5 456.3 C 490.1 456.6 491.7 456.5 493.3 456.7 C 494.9 456.8 496.6 456.7 498.1 457.1 C 499.7 457.6 501.1 458.5 502.5 459.3 C 503.9 460.2 505.2 461.2 506.4 462.4 C 507.6 463.5 508.6 464.9 509.6 466.3 C 510.6 467.6 511.5 469.1 512.5 470.5 C 513.5 471.8 514.6 473.2 515.6 474.5 C 516.6 475.9 517.8 477.2 518.6 478.7 C 519.3 480.2 519.9 481.9 520.4 483.5 Z" fill="#761805" fill-rule="evenodd" stroke="none" opacity="1.000"/>
  <path d="M 472.0 186.5 C 472.7 188.1 473.3 189.8 473.7 191.5 C 474.1 193.3 474.2 195.1 474.4 196.8 C 474.5 198.6 474.7 200.4 474.7 202.2 C 474.7 204.0 474.6 205.7 474.6 207.5 C 474.5 209.3 474.5 211.1 474.3 212.9 C 474.0 214.6 473.6 216.4 473.1 218.0 C 472.6 219.7 472.0 221.4 471.1 223.0 C 470.3 224.5 469.4 226.0 468.3 227.2 C 467.1 228.5 465.7 229.4 464.3 230.4 C 463.0 231.4 461.6 232.4 460.2 233.2 C 458.8 234.1 457.3 234.9 455.9 235.8 C 454.4 236.6 453.0 237.6 451.5 238.2 C 450.0 238.9 448.5 239.4 446.9 239.8 C 445.3 240.2 443.7 240.5 442.0 240.6 C 440.4 240.7 438.8 240.7 437.3 240.3 C 435.7 240.0 434.1 239.2 432.7 238.4 C 431.3 237.5 429.8 236.6 428.8 235.3 C 427.7 234.0 427.0 232.3 426.4 230.7 C 425.7 229.0 425.1 227.3 424.8 225.6 C 424.5 223.9 424.6 222.0 424.5 220.3 C 424.4 218.5 424.3 216.7 424.4 214.9 C 424.6 213.1 425.1 211.4 425.4 209.7 C 425.8 207.9 426.1 206.1 426.7 204.5 C 427.3 202.9 428.3 201.4 429.2 199.9 C 430.1 198.4 431.1 197.0 432.1 195.6 C 433.2 194.2 434.1 192.8 435.2 191.5 C 436.3 190.2 437.5 188.9 438.7 187.7 C 439.9 186.5 441.3 185.5 442.6 184.4 C 443.9 183.4 445.2 182.2 446.5 181.3 C 447.9 180.3 449.3 179.5 450.8 178.9 C 452.4 178.3 454.0 178.1 455.6 177.9 C 457.2 177.7 458.9 177.4 460.4 177.6 C 462.0 177.9 463.6 178.6 465.1 179.4 C 466.5 180.1 468.1 180.9 469.3 182.1 C 470.4 183.3 471.2 185.0 472.0 186.5 Z" fill="#27804c" fill-rule="evenodd" stroke="none" opacity="1.000"/>
  <use x="177.8" y="415.2" xlink:href="#x0a15"/>
  <line x1="183.8" y1="387.0" x2="213.7" y2="331.4" stroke="#000000" stroke-width="9.5" stroke-linecap="round"/>
  <line x1="198.1" y1="394.7" x2="228.0" y2="339.0" stroke="#000000" stroke-width="9.5" stroke-linecap="round" stroke-dasharray="9.5,18.9"/>
  <use x="466.5" y="532.6" xlink:href="#x0a2"/>
  <line x1="466.7" y1="503.8" x2="484.8" y2="443.2" stroke="#000000" stroke-width="9.5" stroke-linecap="round" stroke-dasharray="9.5,18.9"/>
  <line x1="482.2" y1="508.5" x2="500.3" y2="447.9" stroke="#000000" stroke-width="9.5" stroke-linecap="round"/>
  <use x="233.9" y="310.9" xlink:href="#x0a14"/>
  <use x="500.5" y="419.1" xlink:href="#x0a1"/>
</svg>