<svg xmlns="http://www.w3.org/2000/svg" xmlns:xlink="http://www.w3.org/1999/xlink" width="597" height="800">
  <rect width="100%" height="100%" fill="#ffffff"/>
  <defs>
    <g id="x0a0"><radialGradient id="x0g0" cx=".5" cy=".5" fx=".33" fy=".33" r=".66"><stop offset="0%" stop-color="#c8c8c8"/><stop offset="100%" stop-color="#939393"/></radialGradient><circle cx="0" cy="0" r="21.6" fill="url(#x0g0)" stroke="#222222" stroke-width="3.8"/></g>
    <g id="x0a1"><radialGradient id="x0g1" cx=".5" cy=".5" fx=".33" fy=".33" r=".66"><stop offset="0%" stop-color="#c068c0"/><stop offset="100%" stop-color="#8b288b"/></radialGradient><circle cx="0" cy="0" r="25.2" fill="url(#x0g1)" stroke="#3a3a3a" stroke-width="3.8"/></g>
    <g id="x0a5"><radialGradient id="x0g5" cx=".5" cy=".5" fx=".33" fy=".33" r=".66"><stop offset="0%" stop-color="#c3c3c3"/><stop offset="100%" stop-color="#888888"/></radialGradient><circle cx="0" cy="0" r="21.6" fill="url(#x0g5)" stroke="#020202" stroke-width="3.8"/></g>
    <g id="x0a6"><radialGradient id="x0g6" cx=".5" cy=".5" fx=".33" fy=".33" r=".66"><stop offset="0%" stop-color="#c7c7c7"/><stop offset="100%" stop-color="#919191"/></radialGradient><circle cx="0" cy="0" r="21.6" fill="url(#x0g6)" stroke="#1e1e1e" stroke-width="3.8"/></g>
    <g id="x0a7"><radialGradient id="x0g7" cx=".5" cy=".5" fx=".33" fy=".33" r=".66"><stop offset="0%" stop-color="#cdcdcd"/><stop offset="100%" stop-color="#9c9c9c"/></radialGradient><circle cx="0" cy="0" r="21.6" fill="url(#x0g7)" stroke="#3f3f3f" stroke-width="3.8"/></g>
    <g id="x0a8"><radialGradient id="x0g8" cx=".5" cy=".5" fx=".33" fy=".33" r=".66"><stop offset="0%" stop-color="#ffd1d1"/><stop offset="100%" stop-color="#d29e9e"/></radialGradient><circle cx="0" cy="0" r="23.6" fill="url(#x0g8)" stroke="#2f2f2f" stroke-width="3.8"/></g>
    <g id="x0a9"><radialGradient id="x0g9" cx=".5" cy=".5" fx=".33" fy=".33" r=".66"><stop offset="0%" stop-color="#ff5858"/><stop offset="100%" stop-color="#cd0f0f"/></radialGradient><circle cx="0" cy="0" r="19.4" fill="url(#x0g9)" stroke="#080808" stroke-width="3.8"/></g>
    <g id="x0a10"><radialGradient id="x0g10" cx=".5" cy=".5" fx=".33" fy=".33" r=".66"><stop offset="0%" stop-color="#c5c5c5"/><stop offset="100%" stop-color="#8c8c8c"/></radialGradient><circle cx="0" cy="0" r="21.6" fill="url(#x0g10)" stroke="#0c0c0c" stroke-width="3.8"/></g>
    <g id="x0a11"><radialGradient id="x0g11" cx=".5" cy=".5" fx=".33" fy=".33" r=".66"><stop offset="0%" stop-color="#c3c3c3"/><stop offset="100%" stop-color="#888888"/></radialGradient><circle cx="0" cy="0" r="21.6" fill="url(#x0g11)" stroke="#000000" stroke-width="3.8"/></g>
    <g id="x0a12"><radialGradient id="x0g12" cx=".5" cy=".5" fx=".33" fy=".33" r=".66"><stop offset="0%" stop-color="#c5c5c5"/><stop offset="100%" stop-color="#8d8d8d"/></radialGradient><circle cx="0" cy="0" r="21.6" fill="url(#x0g12)" stroke="#101010" stroke-width="3.8"/></g>
    <g id="x0a13"><radialGradient id="x0g13" cx=".5" cy=".5" fx=".33" fy=".33" r=".66"><stop offset="0%" stop-color="#cccccc"/><stop offset="100%" stop-color="#9b9b9b"/></radialGradient><circle cx="0" cy="0" r="21.6" fill="url(#x0g13)" stroke="#3c3c3c" stroke-width="3.8"/></g>
    <g id="x0a14"><radialGradient id="x0g14" cx=".5" cy=".5" fx=".33" fy=".33" r=".66"><stop offset="0%" stop-color="#d5d5d5"/><stop offset="100%" stop-color="#adadad"/></radialGradient><circle cx="0" cy="0" r="21.6" fill="url(#x0g14)" stroke="#727272" stroke-width="3.8"/></g>
    <g id="x0a15"><radialGradient id="x0g15" cx=".5" cy=".5" fx=".33" fy=".33" r=".66"><stop offset="0%" stop-color="#cacaca"/><stop offset="100%" stop-color="#979797"/></radialGradient><circle cx="0" cy="0" r="21.6" fill="url(#x0g15)" stroke="#303030" stroke-width="3.8"/></g>
    <g id="x0a16"><radialGradient id="x0g16" cx=".5" cy=".5" fx=".33" fy=".33" r=".66"><stop offset="0%" stop-color="#ff8383"/><stop offset="100%" stop-color="#d94c4c"/></radialGradient><circle cx="0" cy="0" r="19.4" fill="url(#x0g16)" stroke="#636363" stroke-width="3.8"/></g>
    <g id="x0a17"><radialGradient id="x0g17" cx=".5" cy=".5" fx=".33" fy=".33" r=".66"><stop offset="0%" stop-color="#d9d9d9"/><stop offset="100%" stop-color="#b4b4b4"/></radialGradient><circle cx="0" cy="0" r="21.6" fill="url(#x0g17)" stroke="#898989" stroke-width="3.8"/></g>
    <g id="x0a18"><radialGradient id="x0g18" cx=".5" cy=".5" fx=".33" fy=".33" r=".66"><stop offset="0%" stop-color="#dedede"/><stop offset="100%" stop-color="#bfbfbf"/></radialGradient><circle cx="0" cy="0" r="21.6" fill="url(#x0g18)" stroke="#a9a9a9" stroke-width="3.8"/></g>
    <g id="x0a19"><radialGradient id="x0g19" cx=".5" cy=".5" fx=".33" fy=".33" r=".66"><stop offset="0%" stop-color="#d5d5d5"/><stop offset="100%" stop-color="#acacac"/></radialGradient><circle cx="0" cy="0" r="21.6" fill="url(#x0g19)" stroke="#707070" stroke-width="3.8"/></g>
    <g id="x0a20"><radialGradient id="x0g20" cx=".5" cy=".5" fx=".33" fy=".33" r=".66"><stop offset="0%" stop-color="#cacaca"/><stop offset="100%" stop-color="#979797"/></radialGradient><circle cx="0" cy="0" r="21.6" fill="url(#x0g20)" stroke="#2e2e2e" stroke-width="3.8"/></g>
    <g id="x0a21"><radialGradient id="x0g21" cx=".5" cy=".5" fx=".33" fy=".33" r=".66"><stop offset="0%" stop-color="#758afa"/><stop offset="100%" stop-color="#314ac9"/></radialGradient><circle cx="0" cy="0" r="20.4" fill="url(#x0g21)" stroke="#141414" stroke-width="3.8"/></g>
    <g id="x0a22"><radialGradient id="x0g22" cx=".5" cy=".5" fx=".33" fy=".33" r=".66"><stop offset="0%" stop-color="#c7c7c7"/><stop offset="100%" stop-color="#909090"/></radialGradient><circle cx="0" cy="0" r="21.6" fill="url(#x0g22)" stroke="#1b1b1b" stroke-width="3.8"/></g>
    <g id="x0a23"><radialGradient id="x0g23" cx=".5" cy=".5" fx=".33" fy=".33" r=".66"><stop offset="0%" stop-color="#d3d3d3"/><stop offset="100%" stop-color="#a8a8a8"/></radialGradient><circle cx="0" cy="0" r="21.6" fill="url(#x0g23)" stroke="#646464" stroke-width="3.8"/></g>
    <g id="x0a24"><radialGradient id="x0g24" cx=".5" cy=".5" fx=".33" fy=".33" r=".66"><stop offset="0%" stop-color="#ff9797"/><stop offset="100%" stop-color="#e06a6a"/></radialGradient><circle cx="0" cy="0" r="19.4" fill="url(#x0g24)" stroke="#8f8f8f" stroke-width="3.8"/></g>
    <g id="x0a42"><radialGradient id="x0g42" cx=".5" cy=".5" fx=".33" fy=".33" r=".66"><stop offset="0%" stop-color="#ffffff"/><stop offset="100%" stop-color="#cccccc"/></radialGradient><circle cx="0" cy="0" r="11.4" fill="url(#x0g42)" stroke="#010101" stroke-width="3.8"/></g>
  </defs>
  <use x="151.2" y="300.5" xlink:href="#x0a18"/>
  <line x1="158.2" y1="318.7" x2="161.0" y2="361.5" stroke="#565656" stroke-width="6.7" stroke-linecap="round" stroke-dasharray="6.7,13.4"/>
  <line x1="146.7" y1="319.5" x2="149.6" y2="362.3" stroke="#565656" stroke-width="6.7" stroke-linecap="round"/>
  <line x1="155.2" y1="283.5" x2="175.9" y2="251.2" stroke="#4e4e4e" stroke-width="6.7" stroke-linecap="round"/>
  <line x1="164.9" y1="289.7" x2="185.6" y2="257.3" stroke="#4e4e4e" stroke-width="6.7" stroke-linecap="round" stroke-dasharray="6.7,13.4"/>
  <use x="181.6" y="163.1" xlink:href="#x0a24"/>
  <line x1="183.3" y1="179.6" x2="187.7" y2="222.0" stroke="#474747" stroke-width="9.5" stroke-linecap="round"/>
  <line x1="192.0" y1="151.2" x2="221.4" y2="117.8" stroke="#444444" stroke-width="9.5" stroke-linecap="round"/>
  <use x="156.6" y="380.5" xlink:href="#x0a17"/>
  <line x1="169.1" y1="380.6" x2="192.3" y2="393.0" stroke="#363636" stroke-width="6.7" stroke-linecap="round" stroke-dasharray="6.7,13.4"/>
  <line x1="163.7" y1="390.7" x2="186.9" y2="403.1" stroke="#363636" stroke-width="6.7" stroke-linecap="round"/>
  <use x="196.8" y="696.6" xlink:href="#x0a14"/>
  <line x1="190.7" y1="682.2" x2="174.0" y2="643.0" stroke="#303030" stroke-width="9.5" stroke-linecap="round"/>
  <use x="189.6" y="240.4" xlink:href="#x0a19"/>
  <line x1="202.0" y1="240.0" x2="225.5" y2="251.4" stroke="#2a2a2a" stroke-width="6.7" stroke-linecap="round"/>
  <line x1="197.0" y1="250.3" x2="220.5" y2="261.7" stroke="#2a2a2a" stroke-width="6.7" stroke-linecap="round" stroke-dasharray="6.7,13.4"/>
  <use x="233.1" y="104.5" xlink:href="#x0a23"/>
  <line x1="234.5" y1="107.5" x2="238.4" y2="115.6" stroke="#202020" stroke-width="9.5" stroke-linecap="round"/>
  <use x="180.1" y="552.0" xlink:href="#x0a16"/>
  <line x1="177.6" y1="567.3" x2="170.6" y2="611.5" stroke="#2c2c2c" stroke-width="9.5" stroke-linecap="round"/>
  <line x1="184.1" y1="540.2" x2="194.1" y2="510.1" stroke="#272727" stroke-width="9.5" stroke-linecap="round"/>
  <use x="199.4" y="403.3" xlink:href="#x0a7"/>
  <line x1="199.3" y1="422.3" x2="199.1" y2="475.0" stroke="#1e1e1e" stroke-width="9.5" stroke-linecap="round"/>
  <line x1="203.4" y1="386.3" x2="224.5" y2="353.4" stroke="#191919" stroke-width="6.7" stroke-linecap="round" stroke-dasharray="6.7,13.4"/>
  <line x1="213.1" y1="392.5" x2="234.1" y2="359.6" stroke="#191919" stroke-width="6.7" stroke-linecap="round"/>
  <use x="167.8" y="628.6" xlink:href="#x0a13"/>
  <line x1="148.7" y1="630.2" x2="96.3" y2="634.6" stroke="#1e1e1e" stroke-width="9.5" stroke-linecap="round"/>
  <line x1="178.2" y1="626.2" x2="207.9" y2="619.4" stroke="#121212" stroke-width="9.5" stroke-linecap="round"/>
  <use x="552.2" y="197.1" xlink:href="#x0a1"/>
  <line x1="530.0" y1="197.3" x2="419.9" y2="198.2" stroke="#191919" stroke-width="11.4" stroke-linecap="round" stroke-dasharray="11.4,21.0"/>
  <use x="77.2" y="636.2" xlink:href="#x0a15"/>
  <use x="199.0" y="495.7" xlink:href="#x0a8"/>
  <line x1="202.7" y1="504.5" x2="210.6" y2="523.0" stroke="#0d0d0d" stroke-width="9.5" stroke-linecap="round"/>
  <use x="233.0" y="261.4" xlink:href="#x0a20"/>
  <line x1="239.9" y1="279.6" x2="242.7" y2="323.7" stroke="#151515" stroke-width="6.7" stroke-linecap="round"/>
  <line x1="228.4" y1="280.3" x2="231.3" y2="324.4" stroke="#151515" stroke-width="6.7" stroke-linecap="round" stroke-dasharray="6.7,13.4"/>
  <line x1="242.1" y1="247.4" x2="264.6" y2="212.7" stroke="#121212" stroke-width="9.5" stroke-linecap="round"/>
  <use x="400.8" y="198.3" xlink:href="#x0a0"/>
  <line x1="381.8" y1="198.5" x2="291.2" y2="199.3" stroke="#0f0f0f" stroke-width="11.4" stroke-linecap="round" stroke-dasharray="11.4,21.0"/>
  <use x="238.2" y="342.6" xlink:href="#x0a6"/>
  <line x1="248.3" y1="346.6" x2="275.6" y2="357.4" stroke="#060606" stroke-width="9.5" stroke-linecap="round"/>
  <use x="239.9" y="118.6" xlink:href="#x0a22"/>
  <line x1="247.2" y1="136.4" x2="266.3" y2="182.8" stroke="#0d0d0d" stroke-width="9.5" stroke-linecap="round"/>
  <use x="273.2" y="199.5" xlink:href="#x0a21"/>
  <line x1="273.8" y1="203.4" x2="274.9" y2="210.4" stroke="#040404" stroke-width="9.5" stroke-linecap="round"/>
  <use x="307.6" y="637.8" xlink:href="#x0a12"/>
  <line x1="288.8" y1="633.4" x2="237.2" y2="621.4" stroke="#080808" stroke-width="9.5" stroke-linecap="round"/>
  <use x="218.3" y="617.0" xlink:href="#x0a10"/>
  <line x1="217.3" y1="597.8" x2="214.6" y2="547.6" stroke="#050505" stroke-width="9.5" stroke-linecap="round"/>
  <line x1="211.1" y1="626.0" x2="191.4" y2="650.3" stroke="#010101" stroke-width="9.5" stroke-linecap="round"/>
  <use x="213.7" y="530.3" xlink:href="#x0a9"/>
  <use x="285.8" y="361.4" xlink:href="#x0a5"/>
  <use x="275.2" y="212.5" xlink:href="#x0a42"/>
  <use x="184.1" y="659.3" xlink:href="#x0a11"/>
  <text x="476.8" y="226.3" font-family="monospace" font-size="19.1px" font-weight="bold" text-anchor="middle" dominant-baseline="central" fill="#ffffff" stroke="#ffffff" stroke-width="6.7" stroke-linejoin="round">2.56Å</text>
  <text x="476.8" y="226.3" font-family="monospace" font-size="19.1px" font-weight="bold" text-anchor="middle" dominant-baseline="central" fill="#222222">2.56Å</text>
  <text x="337.3" y="227.5" font-family="monospace" font-size="19.1px" font-weight="bold" text-anchor="middle" dominant-baseline="central" fill="#ffffff" stroke="#ffffff" stroke-width="6.7" stroke-linejoin="round">2.16Å</text>
  <text x="337.3" y="227.5" font-family="monospace" font-size="19.1px" font-weight="bold" text-anchor="middle" dominant-baseline="central" fill="#222222">2.16Å</text>
  <path d="M 433.3,198.1 A 32.5,32.5 0 0,1 368.4,198.6" fill="none" stroke="#222222" stroke-width="4.8" stroke-dasharray="7.6,9.5" stroke-linecap="round"/>
  <text x="401.2" y="252.2" font-family="monospace" font-size="19.1px" font-weight="bold" text-anchor="middle" dominant-baseline="central" fill="#ffffff" stroke="#ffffff" stroke-width="6.7" stroke-linejoin="round">179.8°</text>
  <text x="401.2" y="252.2" font-family="monospace" font-size="19.1px" font-weight="bold" text-anchor="middle" dominant-baseline="central" fill="#222222">179.8°</text>
</svg>