<svg xmlns="http://www.w3.org/2000/svg" xmlns:xlink="http://www.w3.org/1999/xlink" width="625" height="800">
  <rect width="100%" height="100%" fill="#ffffff"/>
  <defs>
    <g id="x0a0"><radialGradient id="x0g0" cx=".5" cy=".5" fx=".33" fy=".33" r=".66"><stop offset="0%" stop-color="#c6c6c6"/><stop offset="100%" stop-color="#8e8e8e"/></radialGradient><circle cx="0" cy="0" r="21.7" fill="url(#x0g0)" stroke="#141414" stroke-width="3.8"/></g>
    <g id="x0a1"><radialGradient id="x0g1" cx=".5" cy=".5" fx=".33" fy=".33" r=".66"><stop offset="0%" stop-color="#be65be"/><stop offset="100%" stop-color="#892489"/></radialGradient><circle cx="0" cy="0" r="25.3" fill="url(#x0g1)" stroke="#333333" stroke-width="3.8"/></g>
    <g id="x0a5"><radialGradient id="x0g5" cx=".5" cy=".5" fx=".33" fy=".33" r=".66"><stop offset="0%" stop-color="#c3c3c3"/><stop offset="100%" stop-color="#888888"/></radialGradient><circle cx="0" cy="0" r="21.7" fill="url(#x0g5)" stroke="#000000" stroke-width="3.8"/></g>
    <g id="x0a6"><radialGradient id="x0g6" cx=".5" cy=".5" fx=".33" fy=".33" r=".66"><stop offset="0%" stop-color="#c5c5c5"/><stop offset="100%" stop-color="#8d8d8d"/></radialGradient><circle cx="0" cy="0" r="21.7" fill="url(#x0g6)" stroke="#111111" stroke-width="3.8"/></g>
    <g id="x0a7"><radialGradient id="x0g7" cx=".5" cy=".5" fx=".33" fy=".33" r=".66"><stop offset="0%" stop-color="#cbcbcb"/><stop offset="100%" stop-color="#999999"/></radialGradient><circle cx="0" cy="0" r="21.7" fill="url(#x0g7)" stroke="#343434" stroke-width="3.8"/></g>
    <g id="x0a8"><radialGradient id="x0g8" cx=".5" cy=".5" fx=".33" fy=".33" r=".66"><stop offset="0%" stop-color="#ffd1d1"/><stop offset="100%" stop-color="#d29d9d"/></radialGradient><circle cx="0" cy="0" r="23.6" fill="url(#x0g8)" stroke="#2b2b2b" stroke-width="3.8"/></g>
    <g id="x0a9"><radialGradient id="x0g9" cx=".5" cy=".5" fx=".33" fy=".33" r=".66"><stop offset="0%" stop-color="#ff5757"/><stop offset="100%" stop-color="#cc0d0d"/></radialGradient><circle cx="0" cy="0" r="19.5" fill="url(#x0g9)" stroke="#050505" stroke-width="3.8"/></g>
    <g id="x0a10"><radialGradient id="x0g10" cx=".5" cy=".5" fx=".33" fy=".33" r=".66"><stop offset="0%" stop-color="#c5c5c5"/><stop offset="100%" stop-color="#8c8c8c"/></radialGradient><circle cx="0" cy="0" r="21.7" fill="url(#x0g10)" stroke="#0e0e0e" stroke-width="3.8"/></g>
    <g id="x0a11"><radialGradient id="x0g11" cx=".5" cy=".5" fx=".33" fy=".33" r=".66"><stop offset="0%" stop-color="#c3c3c3"/><stop offset="100%" stop-color="#888888"/></radialGradient><circle cx="0" cy="0" r="21.7" fill="url(#x0g11)" stroke="#000000" stroke-width="3.8"/></g>
    <g id="x0a12"><radialGradient id="x0g12" cx=".5" cy=".5" fx=".33" fy=".33" r=".66"><stop offset="0%" stop-color="#c7c7c7"/><stop offset="100%" stop-color="#919191"/></radialGradient><circle cx="0" cy="0" r="21.7" fill="url(#x0g12)" stroke="#1c1c1c" stroke-width="3.8"/></g>
    <g id="x0a13"><radialGradient id="x0g13" cx=".5" cy=".5" fx=".33" fy=".33" r=".66"><stop offset="0%" stop-color="#cecece"/><stop offset="100%" stop-color="#9e9e9e"/></radialGradient><circle cx="0" cy="0" r="21.7" fill="url(#x0g13)" stroke="#444444" stroke-width="3.8"/></g>
    <g id="x0a14"><radialGradient id="x0g14" cx=".5" cy=".5" fx=".33" fy=".33" r=".66"><stop offset="0%" stop-color="#dcdcdc"/><stop offset="100%" stop-color="#bababa"/></radialGradient><circle cx="0" cy="0" r="21.7" fill="url(#x0g14)" stroke="#999999" stroke-width="3.8"/></g>
    <g id="x0a15"><radialGradient id="x0g15" cx=".5" cy=".5" fx=".33" fy=".33" r=".66"><stop offset="0%" stop-color="#cacaca"/><stop offset="100%" stop-color="#969696"/></radialGradient><circle cx="0" cy="0" r="21.7" fill="url(#x0g15)" stroke="#2b2b2b" stroke-width="3.8"/></g>
    <g id="x0a16"><radialGradient id="x0g16" cx=".5" cy=".5" fx=".33" fy=".33" r=".66"><stop offset="0%" stop-color="#ff8787"/><stop offset="100%" stop-color="#db5252"/></radialGradient><circle cx="0" cy="0" r="19.5" fill="url(#x0g16)" stroke="#6b6b6b" stroke-width="3.8"/></g>
    <g id="x0a17"><radialGradient id="x0g17" cx=".5" cy=".5" fx=".33" fy=".33" r=".66"><stop offset="0%" stop-color="#d7d7d7"/><stop offset="100%" stop-color="#b1b1b1"/></radialGradient><circle cx="0" cy="0" r="21.7" fill="url(#x0g17)" stroke="#7e7e7e" stroke-width="3.8"/></g>
    <g id="x0a18"><radialGradient id="x0g18" cx=".5" cy=".5" fx=".33" fy=".33" r=".66"><stop offset="0%" stop-color="#dbdbdb"/><stop offset="100%" stop-color="#b8b8b8"/></radialGradient><circle cx="0" cy="0" r="21.7" fill="url(#x0g18)" stroke="#959595" stroke-width="3.8"/></g>
    <g id="x0a19"><radialGradient id="x0g19" cx=".5" cy=".5" fx=".33" fy=".33" r=".66"><stop offset="0%" stop-color="#d0d0d0"/><stop offset="100%" stop-color="#a3a3a3"/></radialGradient><circle cx="0" cy="0" r="21.7" fill="url(#x0g19)" stroke="#545454" stroke-width="3.8"/></g>
    <g id="x0a20"><radialGradient id="x0g20" cx=".5" cy=".5" fx=".33" fy=".33" r=".66"><stop offset="0%" stop-color="#c7c7c7"/><stop offset="100%" stop-color="#909090"/></radialGradient><circle cx="0" cy="0" r="21.7" fill="url(#x0g20)" stroke="#1a1a1a" stroke-width="3.8"/></g>
    <g id="x0a21"><radialGradient id="x0g21" cx=".5" cy=".5" fx=".33" fy=".33" r=".66"><stop offset="0%" stop-color="#6f85fa"/><stop offset="100%" stop-color="#2842c6"/></radialGradient><circle cx="0" cy="0" r="20.4" fill="url(#x0g21)" stroke="#040404" stroke-width="3.8"/></g>
    <g id="x0a22"><radialGradient id="x0g22" cx=".5" cy=".5" fx=".33" fy=".33" r=".66"><stop offset="0%" stop-color="#c3c3c3"/><stop offset="100%" stop-color="#898989"/></radialGradient><circle cx="0" cy="0" r="21.7" fill="url(#x0g22)" stroke="#050505" stroke-width="3.8"/></g>
    <g id="x0a23"><radialGradient id="x0g23" cx=".5" cy=".5" fx=".33" fy=".33" r=".66"><stop offset="0%" stop-color="#cdcdcd"/><stop offset="100%" stop-color="#9c9c9c"/></radialGradient><circle cx="0" cy="0" r="21.7" fill="url(#x0g23)" stroke="#3e3e3e" stroke-width="3.8"/></g>
    <g id="x0a24"><radialGradient id="x0g24" cx=".5" cy=".5" fx=".33" fy=".33" r=".66"><stop offset="0%" stop-color="#ff8686"/><stop offset="100%" stop-color="#da5050"/></radialGradient><circle cx="0" cy="0" r="19.5" fill="url(#x0g24)" stroke="#696969" stroke-width="3.8"/></g>
    <g id="x0a42"><radialGradient id="x0g42" cx=".5" cy=".5" fx=".33" fy=".33" r=".66"><stop offset="0%" stop-color="#ffffff"/><stop offset="100%" stop-color="#cccccc"/></radialGradient><circle cx="0" cy="0" r="11.4" fill="url(#x0g42)" stroke="#000000" stroke-width="3.8"/></g>
  </defs>
  <use x="191.8" y="693.1" xlink:href="#x0a14"/>
  <line x1="187.8" y1="680.0" x2="177.1" y2="644.2" stroke="#3c3c3c" stroke-width="9.6" stroke-linecap="round"/>
  <use x="163.3" y="293.4" xlink:href="#x0a18"/>
  <line x1="169.9" y1="312.2" x2="172.0" y2="356.4" stroke="#4d4d4d" stroke-width="6.7" stroke-linecap="round" stroke-dasharray="6.7,13.4"/>
  <line x1="158.4" y1="312.8" x2="160.5" y2="356.9" stroke="#4d4d4d" stroke-width="6.7" stroke-linecap="round"/>
  <line x1="168.9" y1="277.3" x2="192.6" y2="248.2" stroke="#404040" stroke-width="6.7" stroke-linecap="round"/>
  <line x1="177.8" y1="284.5" x2="201.5" y2="255.5" stroke="#404040" stroke-width="6.7" stroke-linecap="round" stroke-dasharray="6.7,13.4"/>
  <use x="167.2" y="375.8" xlink:href="#x0a17"/>
  <line x1="181.1" y1="378.2" x2="206.5" y2="395.3" stroke="#2f2f2f" stroke-width="6.7" stroke-linecap="round" stroke-dasharray="6.7,13.4"/>
  <line x1="174.7" y1="387.8" x2="200.1" y2="404.8" stroke="#2f2f2f" stroke-width="6.7" stroke-linecap="round"/>
  <use x="183.0" y="550.4" xlink:href="#x0a16"/>
  <line x1="181.1" y1="566.5" x2="175.3" y2="613.1" stroke="#313131" stroke-width="9.6" stroke-linecap="round"/>
  <line x1="189.1" y1="540.2" x2="204.5" y2="514.0" stroke="#282828" stroke-width="9.6" stroke-linecap="round"/>
  <use x="200.6" y="159.4" xlink:href="#x0a24"/>
  <line x1="202.0" y1="176.5" x2="205.6" y2="220.4" stroke="#353535" stroke-width="9.6" stroke-linecap="round"/>
  <line x1="212.1" y1="148.7" x2="244.4" y2="118.6" stroke="#2e2e2e" stroke-width="9.6" stroke-linecap="round"/>
  <use x="207.2" y="239.4" xlink:href="#x0a19"/>
  <line x1="221.1" y1="241.3" x2="246.7" y2="257.4" stroke="#1d1d1d" stroke-width="6.7" stroke-linecap="round"/>
  <line x1="215.0" y1="251.1" x2="240.6" y2="267.1" stroke="#1d1d1d" stroke-width="6.7" stroke-linecap="round" stroke-dasharray="6.7,13.4"/>
  <use x="173.1" y="631.0" xlink:href="#x0a13"/>
  <line x1="154.5" y1="632.5" x2="103.6" y2="636.7" stroke="#1f1f1f" stroke-width="9.6" stroke-linecap="round"/>
  <line x1="185.7" y1="630.8" x2="221.8" y2="630.3" stroke="#141414" stroke-width="9.6" stroke-linecap="round"/>
  <use x="257.2" y="106.7" xlink:href="#x0a23"/>
  <line x1="259.8" y1="111.7" x2="266.8" y2="125.1" stroke="#0e0e0e" stroke-width="9.6" stroke-linecap="round"/>
  <use x="214.0" y="407.2" xlink:href="#x0a7"/>
  <line x1="213.6" y1="426.6" x2="212.4" y2="480.4" stroke="#1a1a1a" stroke-width="9.6" stroke-linecap="round"/>
  <line x1="219.7" y1="391.2" x2="243.7" y2="361.6" stroke="#121212" stroke-width="6.7" stroke-linecap="round" stroke-dasharray="6.7,13.4"/>
  <line x1="228.6" y1="398.4" x2="252.6" y2="368.8" stroke="#121212" stroke-width="6.7" stroke-linecap="round"/>
  <use x="579.7" y="213.7" xlink:href="#x0a1"/>
  <line x1="557.9" y1="213.7" x2="447.8" y2="213.7" stroke="#131313" stroke-width="11.5" stroke-linecap="round" stroke-dasharray="11.5,21.0"/>
  <use x="85.0" y="638.2" xlink:href="#x0a15"/>
  <use x="211.9" y="501.6" xlink:href="#x0a8"/>
  <line x1="217.8" y1="512.7" x2="230.1" y2="535.9" stroke="#0b0b0b" stroke-width="9.6" stroke-linecap="round"/>
  <use x="320.7" y="651.8" xlink:href="#x0a12"/>
  <line x1="302.5" y1="647.2" x2="252.6" y2="634.7" stroke="#0b0b0b" stroke-width="9.6" stroke-linecap="round"/>
  <use x="254.5" y="269.0" xlink:href="#x0a20"/>
  <line x1="261.1" y1="287.9" x2="263.2" y2="333.4" stroke="#0c0c0c" stroke-width="6.7" stroke-linecap="round"/>
  <line x1="249.6" y1="288.4" x2="251.7" y2="333.9" stroke="#0c0c0c" stroke-width="6.7" stroke-linecap="round" stroke-dasharray="6.7,13.4"/>
  <line x1="264.8" y1="256.4" x2="290.3" y2="225.2" stroke="#070707" stroke-width="9.6" stroke-linecap="round"/>
  <use x="429.0" y="213.7" xlink:href="#x0a0"/>
  <use x="258.3" y="352.8" xlink:href="#x0a6"/>
  <line x1="269.4" y1="358.7" x2="299.1" y2="374.7" stroke="#020202" stroke-width="9.6" stroke-linecap="round"/>
  <use x="234.4" y="630.1" xlink:href="#x0a10"/>
  <line x1="234.5" y1="611.2" x2="234.8" y2="562.0" stroke="#050505" stroke-width="9.6" stroke-linecap="round"/>
  <line x1="228.9" y1="640.7" x2="214.1" y2="669.4" stroke="#010101" stroke-width="9.6" stroke-linecap="round"/>
  <use x="269.4" y="130.1" xlink:href="#x0a22"/>
  <line x1="276.2" y1="148.4" x2="293.7" y2="196.1" stroke="#020202" stroke-width="9.6" stroke-linecap="round"/>
  <use x="235.0" y="545.0" xlink:href="#x0a9"/>
  <use x="300.0" y="213.3" xlink:href="#x0a21"/>
  <line x1="301.7" y1="219.0" x2="304.9" y2="229.4" stroke="#000000" stroke-width="9.6" stroke-linecap="round"/>
  <use x="310.2" y="380.7" xlink:href="#x0a5"/>
  <use x="208.6" y="679.9" xlink:href="#x0a11"/>
  <use x="305.8" y="232.6" xlink:href="#x0a42"/>
</svg>