<svg xmlns="http://www.w3.org/2000/svg" xmlns:xlink="http://www.w3.org/1999/xlink" width="597" height="800">
  <rect width="100%" height="100%" fill="#ffffff"/>
  <defs>
    <g id="x0a0"><radialGradient id="x0g0" cx=".5" cy=".5" fx=".33" fy=".33" r=".66"><stop offset="0%" stop-color="#c8c8c8"/><stop offset="100%" stop-color="#939393"/></radialGradient><circle cx="0" cy="0" r="21.6" fill="url(#x0g0)" stroke="#222222" stroke-width="3.8"/></g>
    <g id="x0a1"><radialGradient id="x0g1" cx=".5" cy=".5" fx=".33" fy=".33" r=".66"><stop offset="0%" stop-color="#c068c0"/><stop offset="100%" stop-color="#8b288b"/></radialGradient><circle cx="0" cy="0" r="25.2" fill="url(#x0g1)" stroke="#3a3a3a" stroke-width="3.8"/></g>
    <g id="x0a2"><radialGradient id="x0g2" cx=".5" cy=".5" fx=".33" fy=".33" r=".66"><stop offset="0%" stop-color="#ffffff"/><stop offset="100%" stop-color="#cccccc"/></radialGradient><circle cx="0" cy="0" r="11.4" fill="url(#x0g2)" stroke="#060606" stroke-width="3.8"/></g>
    <g id="x0a3"><radialGradient id="x0g3" cx=".5" cy=".5" fx=".33" fy=".33" r=".66"><stop offset="0%" stop-color="#ffffff"/><stop offset="100%" stop-color="#d2d2d2"/></radialGradient><circle cx="0" cy="0" r="11.4" fill="url(#x0g3)" stroke="#2c2c2c" stroke-width="3.8"/></g>
    <g id="x0a4"><radialGradient id="x0g4" cx=".5" cy=".5" fx=".33" fy=".33" r=".66"><stop offset="0%" stop-color="#ffffff"/><stop offset="100%" stop-color="#d5d5d5"/></radialGradient><circle cx="0" cy="0" r="11.4" fill="url(#x0g4)" stroke="#464646" stroke-width="3.8"/></g>
    <g id="x0a5"><radialGradient id="x0g5" cx=".5" cy=".5" fx=".33" fy=".33" r=".66"><stop offset="0%" stop-color="#c3c3c3"/><stop offset="100%" stop-color="#888888"/></radialGradient><circle cx="0" cy="0" r="21.6" fill="url(#x0g5)" stroke="#020202" stroke-width="3.8"/></g>
    <g id="x0a6"><radialGradient id="x0g6" cx=".5" cy=".5" fx=".33" fy=".33" r=".66"><stop offset="0%" stop-color="#c7c7c7"/><stop offset="100%" stop-color="#919191"/></radialGradient><circle cx="0" cy="0" r="21.6" fill="url(#x0g6)" stroke="#1e1e1e" stroke-width="3.8"/></g>
    <g id="x0a7"><radialGradient id="x0g7" cx=".5" cy=".5" fx=".33" fy=".33" r=".66"><stop offset="0%" stop-color="#cdcdcd"/><stop offset="100%" stop-color="#9c9c9c"/></radialGradient><circle cx="0" cy="0" r="21.6" fill="url(#x0g7)" stroke="#3f3f3f" stroke-width="3.8"/></g>
    <g id="x0a8"><radialGradient id="x0g8" cx=".5" cy=".5" fx=".33" fy=".33" r=".66"><stop offset="0%" stop-color="#ffd1d1"/><stop offset="100%" stop-color="#d29e9e"/></radialGradient><circle cx="0" cy="0" r="23.6" fill="url(#x0g8)" stroke="#2f2f2f" stroke-width="3.8"/></g>
    <g id="x0a9"><radialGradient id="x0g9" cx=".5" cy=".5" fx=".33" fy=".33" r=".66"><stop offset="0%" stop-color="#ff5858"/><stop offset="100%" stop-color="#cd0f0f"/></radialGradient><circle cx="0" cy="0" r="19.4" fill="url(#x0g9)" stroke="#080808" stroke-width="3.8"/></g>
    <g id="x0a10"><radialGradient id="x0g10" cx=".5" cy=".5" fx=".33" fy=".33" r=".66"><stop offset="0%" stop-color="#c5c5c5"/><stop offset="100%" stop-color="#8c8c8c"/></radialGradient><circle cx="0" cy="0" r="21.6" fill="url(#x0g10)" stroke="#0c0c0c" stroke-width="3.8"/></g>
    <g id="x0a11"><radialGradient id="x0g11" cx=".5" cy=".5" fx=".33" fy=".33" r=".66"><stop offset="0%" stop-color="#c3c3c3"/><stop offset="100%" stop-color="#888888"/></radialGradient><circle cx="0" cy="0" r="21.6" fill="url(#x0g11)" stroke="#000000" stroke-width="3.8"/></g>
    <g id="x0a12"><radialGradient id="x0g12" cx=".5" cy=".5" fx=".33" fy=".33" r=".66"><stop offset="0%" stop-color="#c5c5c5"/><stop offset="100%" stop-color="#8d8d8d"/></radialGradient><circle cx="0" cy="0" r="21.6" fill="url(#x0g12)" stroke="#101010" stroke-width="3.8"/></g>
    <g id="x0a13"><radialGradient id="x0g13" cx=".5" cy=".5" fx=".33" fy=".33" r=".66"><stop offset="0%" stop-color="#cccccc"/><stop offset="100%" stop-color="#9b9b9b"/></radialGradient><circle cx="0" cy="0" r="21.6" fill="url(#x0g13)" stroke="#3c3c3c" stroke-width="3.8"/></g>
    <g id="x0a14"><radialGradient id="x0g14" cx=".5" cy=".5" fx=".33" fy=".33" r=".66"><stop offset="0%" stop-color="#d5d5d5"/><stop offset="100%" stop-color="#adadad"/></radialGradient><circle cx="0" cy="0" r="21.6" fill="url(#x0g14)" stroke="#727272" stroke-width="3.8"/></g>
    <g id="x0a15"><radialGradient id="x0g15" cx=".5" cy=".5" fx=".33" fy=".33" r=".66"><stop offset="0%" stop-color="#cacaca"/><stop offset="100%" stop-color="#979797"/></radialGradient><circle cx="0" cy="0" r="21.6" fill="url(#x0g15)" stroke="#303030" stroke-width="3.8"/></g>
    <g id="x0a16"><radialGradient id="x0g16" cx=".5" cy=".5" fx=".33" fy=".33" r=".66"><stop offset="0%" stop-color="#ff8383"/><stop offset="100%" stop-color="#d94c4c"/></radialGradient><circle cx="0" cy="0" r="19.4" fill="url(#x0g16)" stroke="#636363" stroke-width="3.8"/></g>
    <g id="x0a17"><radialGradient id="x0g17" cx=".5" cy=".5" fx=".33" fy=".33" r=".66"><stop offset="0%" stop-color="#d9d9d9"/><stop offset="100%" stop-color="#b4b4b4"/></radialGradient><circle cx="0" cy="0" r="21.6" fill="url(#x0g17)" stroke="#898989" stroke-width="3.8"/></g>
    <g id="x0a18"><radialGradient id="x0g18" cx=".5" cy=".5" fx=".33" fy=".33" r=".66"><stop offset="0%" stop-color="#dedede"/><stop offset="100%" stop-color="#bfbfbf"/></radialGradient><circle cx="0" cy="0" r="21.6" fill="url(#x0g18)" stroke="#a9a9a9" stroke-width="3.8"/></g>
    <g id="x0a19"><radialGradient id="x0g19" cx=".5" cy=".5" fx=".33" fy=".33" r=".66"><stop offset="0%" stop-color="#d5d5d5"/><stop offset="100%" stop-color="#acacac"/></radialGradient><circle cx="0" cy="0" r="21.6" fill="url(#x0g19)" stroke="#707070" stroke-width="3.8"/></g>
    <g id="x0a20"><radialGradient id="x0g20" cx=".5" cy=".5" fx=".33" fy=".33" r=".66"><stop offset="0%" stop-color="#cacaca"/><stop offset="100%" stop-color="#979797"/></radialGradient><circle cx="0" cy="0" r="21.6" fill="url(#x0g20)" stroke="#2e2e2e" stroke-width="3.8"/></g>
    <g id="x0a21"><radialGradient id="x0g21" cx=".5" cy=".5" fx=".33" fy=".33" r=".66"><stop offset="0%" stop-color="#758afa"/><stop offset="100%" stop-color="#314ac9"/></radialGradient><circle cx="0" cy="0" r="20.4" fill="url(#x0g21)" stroke="#141414" stroke-width="3.8"/></g>
    <g id="x0a22"><radialGradient id="x0g22" cx=".5" cy=".5" fx=".33" fy=".33" r=".66"><stop offset="0%" stop-color="#c7c7c7"/><stop offset="100%" stop-color="#909090"/></radialGradient><circle cx="0" cy="0" r="21.6" fill="url(#x0g22)" stroke="#1b1b1b" stroke-width="3.8"/></g>
    <g id="x0a23"><radialGradient id="x0g23" cx=".5" cy=".5" fx=".33" fy=".33" r=".66"><stop offset="0%" stop-color="#d3d3d3"/><stop offset="100%" stop-color="#a8a8a8"/></radialGradient><circle cx="0" cy="0" r="21.6" fill="url(#x0g23)" stroke="#646464" stroke-width="3.8"/></g>
    <g id="x0a24"><radialGradient id="x0g24" cx=".5" cy=".5" fx=".33" fy=".33" r=".66"><stop offset="0%" stop-color="#ff9797"/><stop offset="100%" stop-color="#e06a6a"/></radialGradient><circle cx="0" cy="0" r="19.4" fill="url(#x0g24)" stroke="#8f8f8f" stroke-width="3.8"/></g>
    <g id="x0a25"><radialGradient id="x0g25" cx=".5" cy=".5" fx=".33" fy=".33" r=".66"><stop offset="0%" stop-color="#ffffff"/><stop offset="100%" stop-color="#cccccc"/></radialGradient><circle cx="0" cy="0" r="11.4" fill="url(#x0g25)" stroke="#030303" stroke-width="3.8"/></g>
    <g id="x0a26"><radialGradient id="x0g26" cx=".5" cy=".5" fx=".33" fy=".33" r=".66"><stop offset="0%" stop-color="#ffffff"/><stop offset="100%" stop-color="#cccccc"/></radialGradient><circle cx="0" cy="0" r="11.4" fill="url(#x0g26)" stroke="#000000" stroke-width="3.8"/></g>
    <g id="x0a27"><radialGradient id="x0g27" cx=".5" cy=".5" fx=".33" fy=".33" r=".66"><stop offset="0%" stop-color="#ffffff"/><stop offset="100%" stop-color="#cccccc"/></radialGradient><circle cx="0" cy="0" r="11.4" fill="url(#x0g27)" stroke="#000000" stroke-width="3.8"/></g>
    <g id="x0a28"><radialGradient id="x0g28" cx=".5" cy=".5" fx=".33" fy=".33" r=".66"><stop offset="0%" stop-color="#ffffff"/><stop offset="100%" stop-color="#cccccc"/></radialGradient><circle cx="0" cy="0" r="11.4" fill="url(#x0g28)" stroke="#000000" stroke-width="3.8"/></g>
    <g id="x0a29"><radialGradient id="x0g29" cx=".5" cy=".5" fx=".33" fy=".33" r=".66"><stop offset="0%" stop-color="#ffffff"/><stop offset="100%" stop-color="#cccccc"/></radialGradient><circle cx="0" cy="0" r="11.4" fill="url(#x0g29)" stroke="#000000" stroke-width="3.8"/></g>
    <g id="x0a30"><radialGradient id="x0g30" cx=".5" cy=".5" fx=".33" fy=".33" r=".66"><stop offset="0%" stop-color="#ffffff"/><stop offset="100%" stop-color="#cccccc"/></radialGradient><circle cx="0" cy="0" r="11.4" fill="url(#x0g30)" stroke="#000000" stroke-width="3.8"/></g>
    <g id="x0a31"><radialGradient id="x0g31" cx=".5" cy=".5" fx=".33" fy=".33" r=".66"><stop offset="0%" stop-color="#ffffff"/><stop offset="100%" stop-color="#cccccc"/></radialGradient><circle cx="0" cy="0" r="11.4" fill="url(#x0g31)" stroke="#010101" stroke-width="3.8"/></g>
    <g id="x0a32"><radialGradient id="x0g32" cx=".5" cy=".5" fx=".33" fy=".33" r=".66"><stop offset="0%" stop-color="#ffffff"/><stop offset="100%" stop-color="#cecece"/></radialGradient><circle cx="0" cy="0" r="11.4" fill="url(#x0g32)" stroke="#131313" stroke-width="3.8"/></g>
    <g id="x0a33"><radialGradient id="x0g33" cx=".5" cy=".5" fx=".33" fy=".33" r=".66"><stop offset="0%" stop-color="#ffffff"/><stop offset="100%" stop-color="#d2d2d2"/></radialGradient><circle cx="0" cy="0" r="11.4" fill="url(#x0g33)" stroke="#313131" stroke-width="3.8"/></g>
    <g id="x0a34"><radialGradient id="x0g34" cx=".5" cy=".5" fx=".33" fy=".33" r=".66"><stop offset="0%" stop-color="#ffffff"/><stop offset="100%" stop-color="#d7d7d7"/></radialGradient><circle cx="0" cy="0" r="11.4" fill="url(#x0g34)" stroke="#505050" stroke-width="3.8"/></g>
    <g id="x0a35"><radialGradient id="x0g35" cx=".5" cy=".5" fx=".33" fy=".33" r=".66"><stop offset="0%" stop-color="#ffffff"/><stop offset="100%" stop-color="#e5e5e5"/></radialGradient><circle cx="0" cy="0" r="11.4" fill="url(#x0g35)" stroke="#b2b2b2" stroke-width="3.8"/></g>
    <g id="x0a36"><radialGradient id="x0g36" cx=".5" cy=".5" fx=".33" fy=".33" r=".66"><stop offset="0%" stop-color="#ffffff"/><stop offset="100%" stop-color="#dfdfdf"/></radialGradient><circle cx="0" cy="0" r="11.4" fill="url(#x0g36)" stroke="#8b8b8b" stroke-width="3.8"/></g>
    <g id="x0a37"><radialGradient id="x0g37" cx=".5" cy=".5" fx=".33" fy=".33" r=".66"><stop offset="0%" stop-color="#ffffff"/><stop offset="100%" stop-color="#d0d0d0"/></radialGradient><circle cx="0" cy="0" r="11.4" fill="url(#x0g37)" stroke="#1e1e1e" stroke-width="3.8"/></g>
    <g id="x0a38"><radialGradient id="x0g38" cx=".5" cy=".5" fx=".33" fy=".33" r=".66"><stop offset="0%" stop-color="#ffffff"/><stop offset="100%" stop-color="#dadada"/></radialGradient><circle cx="0" cy="0" r="11.4" fill="url(#x0g38)" stroke="#646464" stroke-width="3.8"/></g>
    <g id="x0a39"><radialGradient id="x0g39" cx=".5" cy=".5" fx=".33" fy=".33" r=".66"><stop offset="0%" stop-color="#ffffff"/><stop offset="100%" stop-color="#cfcfcf"/></radialGradient><circle cx="0" cy="0" r="11.4" fill="url(#x0g39)" stroke="#161616" stroke-width="3.8"/></g>
    <g id="x0a40"><radialGradient id="x0g40" cx=".5" cy=".5" fx=".33" fy=".33" r=".66"><stop offset="0%" stop-color="#ffffff"/><stop offset="100%" stop-color="#e6e6e6"/></radialGradient><circle cx="0" cy="0" r="11.4" fill="url(#x0g40)" stroke="#b2b2b2" stroke-width="3.8"/></g>
    <g id="x0a41"><radialGradient id="x0g41" cx=".5" cy=".5" fx=".33" fy=".33" r=".66"><stop offset="0%" stop-color="#ffffff"/><stop offset="100%" stop-color="#efefef"/></radialGradient><circle cx="0" cy="0" r="11.4" fill="url(#x0g41)" stroke="#b2b2b2" stroke-width="3.8"/></g>
    <g id="x0a42"><radialGradient id="x0g42" cx=".5" cy=".5" fx=".33" fy=".33" r=".66"><stop offset="0%" stop-color="#ffffff"/><stop offset="100%" stop-color="#cccccc"/></radialGradient><circle cx="0" cy="0" r="11.4" fill="url(#x0g42)" stroke="#010101" stroke-width="3.8"/></g>
    <g id="x0a43"><radialGradient id="x0g43" cx=".5" cy=".5" fx=".33" fy=".33" r=".66"><stop offset="0%" stop-color="#ffffff"/><stop offset="100%" stop-color="#cdcdcd"/></radialGradient><circle cx="0" cy="0" r="11.4" fill="url(#x0g43)" stroke="#0d0d0d" stroke-width="3.8"/></g>
    <g id="x0a44"><radialGradient id="x0g44" cx=".5" cy=".5" fx=".33" fy=".33" r=".66"><stop offset="0%" stop-color="#ffffff"/><stop offset="100%" stop-color="#cdcdcd"/></radialGradient><circle cx="0" cy="0" r="11.4" fill="url(#x0g44)" stroke="#0e0e0e" stroke-width="3.8"/></g>
    <g id="x0a45"><radialGradient id="x0g45" cx=".5" cy=".5" fx=".33" fy=".33" r=".66"><stop offset="0%" stop-color="#ffffff"/><stop offset="100%" stop-color="#dcdcdc"/></radialGradient><circle cx="0" cy="0" r="11.4" fill="url(#x0g45)" stroke="#727272" stroke-width="3.8"/></g>
    <g id="x0a46"><radialGradient id="x0g46" cx=".5" cy=".5" fx=".33" fy=".33" r=".66"><stop offset="0%" stop-color="#ffffff"/><stop offset="100%" stop-color="#dedede"/></radialGradient><circle cx="0" cy="0" r="11.4" fill="url(#x0g46)" stroke="#868686" stroke-width="3.8"/></g>
  </defs>
  <use x="117.7" y="282.7" xlink:href="#x0a41"/>
  <line x1="122.9" y1="285.4" x2="141.3" y2="295.2" stroke="#757575" stroke-width="9.5" stroke-linecap="round"/>
  <use x="126.7" y="427.2" xlink:href="#x0a40"/>
  <line x1="131.3" y1="419.9" x2="147.8" y2="394.2" stroke="#5a5a5a" stroke-width="9.5" stroke-linecap="round"/>
  <use x="157.5" y="700.7" xlink:href="#x0a35"/>
  <line x1="163.6" y1="700.1" x2="185.3" y2="697.8" stroke="#535353" stroke-width="9.5" stroke-linecap="round"/>
  <use x="151.2" y="300.5" xlink:href="#x0a18"/>
  <line x1="158.2" y1="318.7" x2="161.0" y2="361.5" stroke="#565656" stroke-width="6.7" stroke-linecap="round" stroke-dasharray="6.7,13.4"/>
  <line x1="146.7" y1="319.5" x2="149.6" y2="362.3" stroke="#565656" stroke-width="6.7" stroke-linecap="round"/>
  <line x1="155.2" y1="283.5" x2="175.9" y2="251.2" stroke="#4e4e4e" stroke-width="6.7" stroke-linecap="round"/>
  <line x1="164.9" y1="289.7" x2="185.6" y2="257.3" stroke="#4e4e4e" stroke-width="6.7" stroke-linecap="round" stroke-dasharray="6.7,13.4"/>
  <use x="181.6" y="163.1" xlink:href="#x0a24"/>
  <line x1="183.3" y1="179.6" x2="187.7" y2="222.0" stroke="#474747" stroke-width="9.5" stroke-linecap="round"/>
  <line x1="192.0" y1="151.2" x2="221.4" y2="117.8" stroke="#444444" stroke-width="9.5" stroke-linecap="round"/>
  <use x="259.0" y="686.5" xlink:href="#x0a36"/>
  <line x1="249.4" y1="688.0" x2="215.1" y2="693.6" stroke="#474747" stroke-width="9.5" stroke-linecap="round"/>
  <use x="156.6" y="380.5" xlink:href="#x0a17"/>
  <line x1="169.1" y1="380.6" x2="192.3" y2="393.0" stroke="#363636" stroke-width="6.7" stroke-linecap="round" stroke-dasharray="6.7,13.4"/>
  <line x1="163.7" y1="390.7" x2="186.9" y2="403.1" stroke="#363636" stroke-width="6.7" stroke-linecap="round"/>
  <use x="293.1" y="107.0" xlink:href="#x0a46"/>
  <line x1="283.9" y1="106.6" x2="250.6" y2="105.2" stroke="#414141" stroke-width="9.5" stroke-linecap="round"/>
  <use x="196.8" y="696.6" xlink:href="#x0a14"/>
  <line x1="196.1" y1="713.6" x2="194.6" y2="745.8" stroke="#363636" stroke-width="9.5" stroke-linecap="round"/>
  <line x1="190.7" y1="682.2" x2="174.0" y2="643.0" stroke="#303030" stroke-width="9.5" stroke-linecap="round"/>
  <use x="206.1" y="45.2" xlink:href="#x0a45"/>
  <line x1="210.3" y1="54.4" x2="225.2" y2="87.1" stroke="#3c3c3c" stroke-width="9.5" stroke-linecap="round"/>
  <use x="189.6" y="240.4" xlink:href="#x0a19"/>
  <line x1="202.0" y1="240.0" x2="225.5" y2="251.4" stroke="#2a2a2a" stroke-width="6.7" stroke-linecap="round"/>
  <line x1="197.0" y1="250.3" x2="220.5" y2="261.7" stroke="#2a2a2a" stroke-width="6.7" stroke-linecap="round" stroke-dasharray="6.7,13.4"/>
  <use x="44.8" y="631.2" xlink:href="#x0a38"/>
  <line x1="49.8" y1="631.9" x2="67.7" y2="634.8" stroke="#282828" stroke-width="9.5" stroke-linecap="round"/>
  <use x="233.1" y="104.5" xlink:href="#x0a23"/>
  <line x1="234.5" y1="107.5" x2="238.4" y2="115.6" stroke="#202020" stroke-width="9.5" stroke-linecap="round"/>
  <use x="180.1" y="552.0" xlink:href="#x0a16"/>
  <line x1="177.6" y1="567.3" x2="170.6" y2="611.5" stroke="#2c2c2c" stroke-width="9.5" stroke-linecap="round"/>
  <line x1="184.1" y1="540.2" x2="194.1" y2="510.1" stroke="#272727" stroke-width="9.5" stroke-linecap="round"/>
  <use x="194.2" y="754.8" xlink:href="#x0a34"/>
  <use x="389.5" y="243.6" xlink:href="#x0a4"/>
  <line x1="391.3" y1="236.5" x2="397.5" y2="211.7" stroke="#1c1c1c" stroke-width="9.5" stroke-linecap="round"/>
  <use x="199.4" y="403.3" xlink:href="#x0a7"/>
  <line x1="199.3" y1="422.3" x2="199.1" y2="475.0" stroke="#1e1e1e" stroke-width="9.5" stroke-linecap="round"/>
  <line x1="203.4" y1="386.3" x2="224.5" y2="353.4" stroke="#191919" stroke-width="6.7" stroke-linecap="round" stroke-dasharray="6.7,13.4"/>
  <line x1="213.1" y1="392.5" x2="234.1" y2="359.6" stroke="#191919" stroke-width="6.7" stroke-linecap="round"/>
  <use x="167.8" y="628.6" xlink:href="#x0a13"/>
  <line x1="148.7" y1="630.2" x2="96.3" y2="634.6" stroke="#1e1e1e" stroke-width="9.5" stroke-linecap="round"/>
  <line x1="178.2" y1="626.2" x2="207.9" y2="619.4" stroke="#121212" stroke-width="9.5" stroke-linecap="round"/>
  <use x="552.2" y="197.1" xlink:href="#x0a1"/>
  <line x1="530.0" y1="197.3" x2="419.9" y2="198.2" stroke="#191919" stroke-width="11.4" stroke-linecap="round" stroke-dasharray="11.4,21.0"/>
  <use x="333.1" y="608.3" xlink:href="#x0a33"/>
  <line x1="329.2" y1="612.8" x2="315.1" y2="629.2" stroke="#111111" stroke-width="9.5" stroke-linecap="round"/>
  <use x="77.2" y="636.2" xlink:href="#x0a15"/>
  <line x1="72.8" y1="653.4" x2="64.5" y2="685.9" stroke="#151515" stroke-width="9.5" stroke-linecap="round"/>
  <line x1="70.9" y1="622.1" x2="58.8" y2="595.4" stroke="#131313" stroke-width="9.5" stroke-linecap="round"/>
  <use x="199.0" y="495.7" xlink:href="#x0a8"/>
  <line x1="202.7" y1="504.5" x2="210.6" y2="523.0" stroke="#0d0d0d" stroke-width="9.5" stroke-linecap="round"/>
  <use x="233.0" y="261.4" xlink:href="#x0a20"/>
  <line x1="239.9" y1="279.6" x2="242.7" y2="323.7" stroke="#151515" stroke-width="6.7" stroke-linecap="round"/>
  <line x1="228.4" y1="280.3" x2="231.3" y2="324.4" stroke="#151515" stroke-width="6.7" stroke-linecap="round" stroke-dasharray="6.7,13.4"/>
  <line x1="242.1" y1="247.4" x2="264.6" y2="212.7" stroke="#121212" stroke-width="9.5" stroke-linecap="round"/>
  <use x="395.8" y="134.4" xlink:href="#x0a3"/>
  <line x1="396.6" y1="144.4" x2="399.3" y2="179.4" stroke="#161616" stroke-width="9.5" stroke-linecap="round"/>
  <use x="400.8" y="198.3" xlink:href="#x0a0"/>
  <line x1="381.8" y1="198.5" x2="291.2" y2="199.3" stroke="#0f0f0f" stroke-width="11.4" stroke-linecap="round" stroke-dasharray="11.4,21.0"/>
  <line x1="404.3" y1="203.7" x2="410.6" y2="213.7" stroke="#0a0a0a" stroke-width="9.5" stroke-linecap="round"/>
  <use x="238.2" y="342.6" xlink:href="#x0a6"/>
  <line x1="248.3" y1="346.6" x2="275.6" y2="357.4" stroke="#060606" stroke-width="9.5" stroke-linecap="round"/>
  <use x="62.1" y="695.0" xlink:href="#x0a37"/>
  <use x="239.9" y="118.6" xlink:href="#x0a22"/>
  <line x1="247.2" y1="136.4" x2="266.3" y2="182.8" stroke="#0d0d0d" stroke-width="9.5" stroke-linecap="round"/>
  <line x1="251.7" y1="105.4" x2="274.1" y2="80.5" stroke="#0b0b0b" stroke-width="9.5" stroke-linecap="round"/>
  <line x1="222.3" y1="116.9" x2="189.0" y2="113.7" stroke="#0b0b0b" stroke-width="9.5" stroke-linecap="round"/>
  <use x="55.5" y="588.0" xlink:href="#x0a39"/>
  <use x="273.2" y="199.5" xlink:href="#x0a21"/>
  <line x1="273.8" y1="203.4" x2="274.9" y2="210.4" stroke="#040404" stroke-width="9.5" stroke-linecap="round"/>
  <use x="316.8" y="703.4" xlink:href="#x0a32"/>
  <line x1="315.3" y1="693.3" x2="310.3" y2="657.0" stroke="#0a0a0a" stroke-width="9.5" stroke-linecap="round"/>
  <use x="307.6" y="637.8" xlink:href="#x0a12"/>
  <line x1="288.8" y1="633.4" x2="237.2" y2="621.4" stroke="#080808" stroke-width="9.5" stroke-linecap="round"/>
  <line x1="317.5" y1="631.6" x2="336.1" y2="619.8" stroke="#040404" stroke-width="9.5" stroke-linecap="round"/>
  <use x="280.4" y="73.6" xlink:href="#x0a44"/>
  <use x="179.8" y="112.7" xlink:href="#x0a43"/>
  <use x="218.3" y="617.0" xlink:href="#x0a10"/>
  <line x1="217.3" y1="597.8" x2="214.6" y2="547.6" stroke="#050505" stroke-width="9.5" stroke-linecap="round"/>
  <line x1="211.1" y1="626.0" x2="191.4" y2="650.3" stroke="#010101" stroke-width="9.5" stroke-linecap="round"/>
  <use x="213.7" y="530.3" xlink:href="#x0a9"/>
  <use x="412.4" y="216.5" xlink:href="#x0a2"/>
  <use x="349.7" y="344.1" xlink:href="#x0a25"/>
  <line x1="339.9" y1="346.8" x2="304.5" y2="356.3" stroke="#010101" stroke-width="9.5" stroke-linecap="round"/>
  <use x="285.8" y="361.4" xlink:href="#x0a5"/>
  <line x1="285.0" y1="380.4" x2="283.6" y2="415.8" stroke="#000000" stroke-width="9.5" stroke-linecap="round"/>
  <line x1="278.9" y1="351.6" x2="265.7" y2="332.9" stroke="#000000" stroke-width="9.5" stroke-linecap="round"/>
  <use x="341.3" y="616.5" xlink:href="#x0a31"/>
  <use x="275.2" y="212.5" xlink:href="#x0a42"/>
  <use x="283.2" y="425.8" xlink:href="#x0a26"/>
  <use x="181.0" y="724.9" xlink:href="#x0a30"/>
  <line x1="181.5" y1="714.8" x2="183.2" y2="678.5" stroke="#000000" stroke-width="9.5" stroke-linecap="round"/>
  <use x="184.1" y="659.3" xlink:href="#x0a11"/>
  <line x1="166.3" y1="652.8" x2="132.8" y2="640.5" stroke="#000000" stroke-width="9.5" stroke-linecap="round"/>
  <line x1="195.7" y1="656.0" x2="217.6" y2="650.0" stroke="#000000" stroke-width="9.5" stroke-linecap="round"/>
  <use x="123.4" y="637.1" xlink:href="#x0a29"/>
  <use x="262.1" y="327.7" xlink:href="#x0a27"/>
  <use x="223.7" y="648.3" xlink:href="#x0a28"/>
</svg>